<svg width="340" height="85" viewBox="0 0 340 85" fill="none" xmlns="http://www.w3.org/2000/svg">
<rect width="340" height="84.3425" rx="11" fill="#164646" fill-opacity="0.3"/>
<path d="M13.7477 17.0548C13.5712 17.0426 13.3642 17.0304 13.1268 17.0183C12.8895 17.0061 12.6734 17 12.4786 17H9.33782L9.31043 16.5435L9.89476 16.3974C9.90693 16.367 9.91606 16.2878 9.92215 16.16C9.93432 16.0322 9.94345 15.8679 9.94954 15.667C9.95563 15.4661 9.95867 15.2409 9.95867 14.9914V13.6492C9.95867 13.3997 9.95563 13.1714 9.94954 12.9645C9.94345 12.7575 9.93432 12.5932 9.92215 12.4714C9.91606 12.3436 9.90693 12.2675 9.89476 12.2432L9.31043 12.0971L9.33782 11.6406H12.1499C12.2717 11.6406 12.4177 11.6406 12.5882 11.6406C12.7647 11.6345 12.9351 11.6284 13.0995 11.6223C13.2699 11.6101 13.4129 11.601 13.5286 11.5949L13.7751 12.9462L13.2455 13.0192L12.9077 12.2158C12.8225 12.1975 12.7495 12.1853 12.6886 12.1793C12.6277 12.1732 12.5608 12.1701 12.4877 12.1701H11.7938C11.6782 12.1701 11.5656 12.1732 11.456 12.1793C11.3525 12.1793 11.2673 12.1853 11.2004 12.1975C11.2004 12.2462 11.1973 12.3193 11.1912 12.4166C11.1912 12.514 11.1882 12.6388 11.1821 12.791C11.1821 12.9432 11.1821 13.1197 11.1821 13.3205V15.247C11.1821 15.4418 11.1821 15.6153 11.1821 15.7674C11.1882 15.9196 11.1912 16.0474 11.1912 16.1509C11.1973 16.2544 11.2004 16.3335 11.2004 16.3883C11.3099 16.4005 11.4225 16.4096 11.5382 16.4157C11.6599 16.4218 11.8121 16.4248 11.9947 16.4248H12.4877C12.6399 16.4248 12.7525 16.4248 12.8256 16.4248C12.9047 16.4187 12.9625 16.4126 12.999 16.4065C13.0416 16.4005 13.0873 16.3944 13.136 16.3883L13.6381 15.4753L14.1586 15.5757L13.7477 17.0548ZM12.579 15.174L12.4969 14.5622C12.4543 14.5562 12.3843 14.5531 12.2869 14.5531C12.1956 14.547 12.0921 14.544 11.9764 14.544H11.4925C11.383 14.544 11.2825 14.547 11.1912 14.5531C11.0999 14.5592 11.0299 14.5653 10.9813 14.5714V13.9231C11.0299 13.9292 11.0999 13.9353 11.1912 13.9414C11.2825 13.9475 11.383 13.9505 11.4925 13.9505H11.9764C12.0921 13.9505 12.1956 13.9505 12.2869 13.9505C12.3843 13.9444 12.4543 13.9414 12.4969 13.9414L12.579 13.3297H13.0903V15.174H12.579ZM16.1215 17.0365L14.4416 13.5579L14.0125 13.4118L14.0307 12.9918H16.3681L16.3955 13.4118L15.8294 13.5579L16.8611 15.7948H16.5963L17.555 13.5579L16.9889 13.4118L17.0163 12.9918H18.6689L18.6871 13.4118L18.258 13.5579L16.5233 17.0365H16.1215ZM20.8145 17.073C20.4188 17.073 20.0658 16.9848 19.7554 16.8083C19.451 16.6317 19.2106 16.3913 19.0341 16.087C18.8636 15.7826 18.7784 15.4387 18.7784 15.0553C18.7784 14.6292 18.8758 14.2579 19.0706 13.9414C19.2654 13.6188 19.518 13.3662 19.8284 13.1836C20.1449 13.001 20.4827 12.9127 20.8419 12.9188C21.3775 12.9188 21.7914 13.0862 22.0836 13.421C22.3757 13.7497 22.5218 14.1788 22.5218 14.7083V14.9274H19.8375V14.4527H21.6271L21.4901 14.6718V14.3614C21.4901 14.0753 21.4262 13.847 21.2984 13.6766C21.1705 13.5062 20.994 13.421 20.7688 13.421C20.6166 13.421 20.4797 13.4636 20.358 13.5488C20.2362 13.634 20.1388 13.7649 20.0658 13.9414C19.9988 14.1118 19.9654 14.3279 19.9654 14.5896V14.7814C19.9654 15.2074 20.078 15.5513 20.3032 15.8131C20.5345 16.0748 20.8419 16.2057 21.2253 16.2057C21.4323 16.2057 21.621 16.1692 21.7914 16.0961C21.9618 16.017 22.1262 15.8861 22.2844 15.7035L22.5675 15.9592C22.397 16.3244 22.1566 16.6013 21.8462 16.79C21.5358 16.9787 21.1918 17.073 20.8145 17.073ZM22.9783 17L22.9509 16.58L23.517 16.4248C23.5231 16.4005 23.5292 16.3457 23.5353 16.2605C23.5414 16.1752 23.5474 16.0687 23.5535 15.9409C23.5596 15.807 23.5627 15.6639 23.5627 15.5118L23.5718 14.8179C23.5718 14.6292 23.5657 14.4649 23.5535 14.3249C23.5414 14.1849 23.52 14.0388 23.4896 13.8866L22.9053 13.7588V13.3479L24.5122 12.9371L24.7587 13.0923L24.7039 13.631L24.7313 13.6401C24.92 13.3966 25.127 13.2171 25.3522 13.1014C25.5835 12.9797 25.8269 12.9188 26.0826 12.9188C26.3443 12.9188 26.5756 12.9827 26.7765 13.1105C26.9834 13.2384 27.1478 13.4271 27.2695 13.6766C27.3912 13.9201 27.4521 14.2153 27.4521 14.5622V15.5026C27.4521 15.7096 27.4552 15.9044 27.4612 16.087C27.4673 16.2635 27.4795 16.3761 27.4978 16.4248L28.0638 16.58L28.0364 17H25.7448L25.7174 16.58L26.2378 16.4248C26.25 16.37 26.2591 16.2939 26.2652 16.1965C26.2713 16.0931 26.2743 15.9805 26.2743 15.8587C26.2804 15.737 26.2835 15.6213 26.2835 15.5118V14.7448C26.2835 14.5135 26.2469 14.3279 26.1739 14.1879C26.1069 14.0418 26.0156 13.9353 25.9 13.8683C25.7904 13.8014 25.6626 13.7679 25.5165 13.7679C25.3643 13.7679 25.2213 13.8014 25.0874 13.8683C24.9596 13.9353 24.8439 14.0327 24.7405 14.1605V15.5026C24.7405 15.7096 24.7435 15.9044 24.7496 16.087C24.7618 16.2635 24.7739 16.3761 24.7861 16.4248L25.343 16.58L25.3157 17H22.9783ZM31.579 16.2331C31.4877 16.4948 31.3203 16.7048 31.0768 16.863C30.8394 17.0152 30.5716 17.0913 30.2733 17.0913C29.8534 17.0913 29.5064 16.9696 29.2325 16.7261C28.9647 16.4765 28.8308 16.1052 28.8308 15.6122L28.8582 13.5762H28.2191V13.2931L29.7803 12.0514H30.0634L30.0451 13.3388L30.0268 15.5026C30.0268 15.7583 30.0877 15.9439 30.2094 16.0596C30.3312 16.1692 30.5016 16.2239 30.7207 16.2239C30.8364 16.2239 30.949 16.2026 31.0585 16.16C31.1681 16.1113 31.2624 16.0505 31.3416 15.9774L31.579 16.2331ZM29.5795 13.5762V13.001H31.3233V13.5762H29.5795ZM33.688 11.6406H36.208C37.194 11.6406 37.961 11.8719 38.5088 12.3345C39.0627 12.791 39.3396 13.4301 39.3396 14.2518C39.3396 14.7814 39.2088 15.2561 38.947 15.6761C38.6853 16.09 38.3262 16.4157 37.8697 16.6531C37.4132 16.8844 36.8897 17 36.2993 17H33.688L33.6606 16.5435L34.245 16.3974C34.2632 16.3548 34.2785 16.2026 34.2906 15.9409C34.3028 15.6731 34.3089 15.3566 34.3089 14.9914V13.6492C34.3089 13.2718 34.3028 12.9523 34.2906 12.6905C34.2785 12.4227 34.2632 12.2706 34.245 12.234L33.6606 12.0971L33.688 11.6406ZM35.5597 12.2432C35.5597 12.2858 35.5567 12.3679 35.5506 12.4897C35.5506 12.6053 35.5476 12.7605 35.5415 12.9553C35.5415 13.144 35.5415 13.3753 35.5415 13.6492V14.9914C35.5415 15.1496 35.5415 15.317 35.5415 15.4935C35.5476 15.6639 35.5536 15.8222 35.5597 15.9683C35.5719 16.1144 35.581 16.23 35.5871 16.3152C35.721 16.3396 35.858 16.3609 35.998 16.3791C36.138 16.3913 36.2688 16.3974 36.3906 16.3974C36.908 16.3974 37.2975 16.2483 37.5592 15.95C37.8271 15.6518 37.961 15.18 37.961 14.5348C37.961 14.1088 37.9123 13.7466 37.8149 13.4484C37.7175 13.1501 37.5836 12.9097 37.4132 12.7271C37.2427 12.5445 37.0479 12.4106 36.8288 12.3253C36.6097 12.2401 36.3754 12.1975 36.1258 12.1975C36.0345 12.1975 35.9402 12.2036 35.8428 12.2158C35.7515 12.2219 35.6571 12.231 35.5597 12.2432ZM42.1517 17.073C41.7561 17.073 41.403 16.9848 41.0926 16.8083C40.7883 16.6317 40.5479 16.3913 40.3713 16.087C40.2009 15.7826 40.1157 15.4387 40.1157 15.0553C40.1157 14.6292 40.2131 14.2579 40.4079 13.9414C40.6026 13.6188 40.8552 13.3662 41.1657 13.1836C41.4822 13.001 41.82 12.9127 42.1791 12.9188C42.7148 12.9188 43.1287 13.0862 43.4208 13.421C43.713 13.7497 43.8591 14.1788 43.8591 14.7083V14.9274H41.1748V14.4527H42.9643L42.8274 14.6718V14.3614C42.8274 14.0753 42.7634 13.847 42.6356 13.6766C42.5078 13.5062 42.3313 13.421 42.1061 13.421C41.9539 13.421 41.817 13.4636 41.6952 13.5488C41.5735 13.634 41.4761 13.7649 41.403 13.9414C41.3361 14.1118 41.3026 14.3279 41.3026 14.5896V14.7814C41.3026 15.2074 41.4152 15.5513 41.6404 15.8131C41.8717 16.0748 42.1791 16.2057 42.5626 16.2057C42.7695 16.2057 42.9582 16.1692 43.1287 16.0961C43.2991 16.017 43.4634 15.8861 43.6217 15.7035L43.9047 15.9592C43.7343 16.3244 43.4939 16.6013 43.1834 16.79C42.873 16.9787 42.5291 17.073 42.1517 17.073ZM47.5477 16.2331C47.4564 16.4948 47.289 16.7048 47.0455 16.863C46.8081 17.0152 46.5403 17.0913 46.242 17.0913C45.8221 17.0913 45.4751 16.9696 45.2012 16.7261C44.9334 16.4765 44.7995 16.1052 44.7995 15.6122L44.8269 13.5762H44.1878V13.2931L45.749 12.0514H46.0321L46.0138 13.3388L45.9955 15.5026C45.9955 15.7583 46.0564 15.9439 46.1781 16.0596C46.2999 16.1692 46.4703 16.2239 46.6894 16.2239C46.8051 16.2239 46.9177 16.2026 47.0272 16.16C47.1368 16.1113 47.2312 16.0505 47.3103 15.9774L47.5477 16.2331ZM45.5482 13.5762V13.001H47.292V13.5762H45.5482ZM49.182 17.073C48.902 17.073 48.6585 17.0122 48.4516 16.8904C48.2507 16.7687 48.0955 16.6226 47.9859 16.4522C47.8824 16.2818 47.8307 16.1205 47.8307 15.9683C47.8307 15.7492 47.8977 15.5666 48.0316 15.4205C48.1716 15.2683 48.3846 15.1496 48.6707 15.0644L50.1041 14.6444V14.3157C50.1041 14.1879 50.0615 14.0692 49.9763 13.9596C49.8972 13.844 49.7907 13.7497 49.6567 13.6766C49.5228 13.6036 49.3798 13.567 49.2276 13.567C49.1302 13.567 49.0602 13.5914 49.0176 13.6401C48.9811 13.6827 48.9568 13.771 48.9446 13.9049L48.8989 14.4618C48.5946 14.5227 48.345 14.5135 48.1503 14.4344C47.9616 14.3492 47.8672 14.2122 47.8672 14.0236C47.8672 13.9079 47.9281 13.7892 48.0498 13.6675C48.1716 13.5457 48.3207 13.4331 48.4972 13.3297C48.6798 13.2201 48.8655 13.1288 49.0541 13.0558C49.2428 12.9766 49.4072 12.931 49.5472 12.9188C50.0889 12.9188 50.518 13.0436 50.8345 13.2931C51.151 13.5366 51.3123 13.8653 51.3184 14.2792L51.291 15.5483C51.291 15.7187 51.2941 15.8526 51.3002 15.95C51.3123 16.0474 51.3306 16.1265 51.355 16.1874L51.9576 16.297V16.6804L51.3641 16.9361C51.2545 16.9787 51.1541 17.0122 51.0628 17.0365C50.9715 17.0609 50.8832 17.073 50.798 17.073C50.5606 17.073 50.3932 16.9513 50.2959 16.7078L50.1406 16.2878L50.3324 16.3335C50.1437 16.5648 49.9489 16.7474 49.748 16.8813C49.5533 17.0091 49.3646 17.073 49.182 17.073ZM49.6476 16.2513C49.7328 16.2513 49.815 16.2361 49.8941 16.2057C49.9733 16.1692 50.0463 16.1174 50.1133 16.0505V15.1557L49.4924 15.2744C49.3402 15.2927 49.2307 15.3383 49.1637 15.4113C49.1028 15.4844 49.0724 15.5818 49.0724 15.7035C49.0724 15.8435 49.1272 15.9713 49.2368 16.087C49.3524 16.1965 49.4894 16.2513 49.6476 16.2513ZM52.1584 17L52.131 16.5709L52.7427 16.4248C52.7488 16.4005 52.7549 16.3457 52.761 16.2605C52.7671 16.1692 52.7732 16.0596 52.7793 15.9318C52.7854 15.8039 52.7884 15.6639 52.7884 15.5118L52.7975 14.827C52.7975 14.6444 52.7914 14.4801 52.7793 14.334C52.7671 14.1879 52.7458 14.0388 52.7154 13.8866L52.1036 13.7588V13.3479L53.7836 12.9371L54.0301 13.0923C54.0118 13.2871 53.9966 13.4849 53.9845 13.6857C53.9784 13.8805 53.9753 14.1027 53.9753 14.3522V15.5026C53.9753 15.7035 53.9784 15.8952 53.9845 16.0779C53.9966 16.2605 54.0088 16.3761 54.021 16.4248L54.6327 16.5709L54.6053 17H52.1584ZM53.391 12.1884C53.1475 12.1884 52.9558 12.1153 52.8158 11.9693C52.6758 11.8171 52.6058 11.6436 52.6058 11.4488C52.6058 11.2541 52.6758 11.0836 52.8158 10.9376C52.9558 10.7854 53.1475 10.7093 53.391 10.7093C53.6345 10.7093 53.8232 10.7854 53.9571 10.9376C54.091 11.0836 54.1579 11.2541 54.1579 11.4488C54.1579 11.6436 54.091 11.8171 53.9571 11.9693C53.8232 12.1153 53.6345 12.1884 53.391 12.1884ZM54.8792 17L54.8518 16.5709L55.4453 16.4248C55.4514 16.3578 55.4575 16.2422 55.4635 16.0779C55.4757 15.9074 55.4848 15.7126 55.4909 15.4935C55.497 15.2744 55.5001 15.0614 55.5001 14.8544V13.704C55.5001 13.491 55.497 13.281 55.4909 13.074C55.4909 12.861 55.4879 12.6601 55.4818 12.4714C55.4818 12.2766 55.4788 12.1032 55.4727 11.951C55.4666 11.7927 55.4575 11.6649 55.4453 11.5675L54.7696 11.4762L54.7514 11.0836L56.4953 10.6363L56.7509 10.7915C56.7387 11.0471 56.7266 11.2967 56.7144 11.5401C56.7083 11.7775 56.7052 12.0484 56.7052 12.3527C56.7052 12.6571 56.7022 13.0284 56.6961 13.4666L56.687 14.8088C56.687 15.2348 56.69 15.597 56.6961 15.8952C56.7083 16.1874 56.7205 16.3639 56.7326 16.4248L57.3261 16.5709L57.3078 17H54.8792ZM59.2343 17.073C58.9787 17.073 58.7261 17.0457 58.4765 16.9909C58.2269 16.93 58.017 16.8539 57.8465 16.7626L57.8009 15.6944H58.3852L58.5769 16.3518C58.8082 16.4857 59.0487 16.5526 59.2982 16.5526C59.4869 16.5526 59.63 16.5161 59.7273 16.4431C59.8247 16.3639 59.8734 16.2605 59.8734 16.1326C59.8734 15.9987 59.8186 15.8831 59.7091 15.7857C59.6056 15.6883 59.3895 15.5787 59.0608 15.457C58.6104 15.2927 58.2969 15.1131 58.1204 14.9183C57.9439 14.7235 57.8557 14.4801 57.8557 14.1879C57.8557 13.9383 57.9317 13.7192 58.0839 13.5305C58.2361 13.3357 58.4491 13.1866 58.723 13.0831C58.9969 12.9736 59.3134 12.9188 59.6726 12.9188C59.8673 12.9188 60.0652 12.9371 60.266 12.9736C60.4669 13.0101 60.6312 13.0588 60.7591 13.1197L60.8686 14.1788H60.2843L60.0834 13.5305C60.0226 13.494 59.9465 13.4666 59.8552 13.4484C59.77 13.424 59.6878 13.4118 59.6087 13.4118C59.426 13.4118 59.2769 13.4514 59.1613 13.5305C59.0517 13.6097 58.9969 13.7162 58.9969 13.8501C58.9969 13.9962 59.0639 14.1179 59.1978 14.2153C59.3317 14.3127 59.5752 14.4344 59.9282 14.5805C60.3299 14.7448 60.616 14.9214 60.7864 15.1101C60.9569 15.2927 61.0421 15.5209 61.0421 15.7948C61.0421 16.1783 60.8747 16.4887 60.5399 16.7261C60.2052 16.9574 59.77 17.073 59.2343 17.073Z" fill="url(#paint0_linear_496_539)"/>
<path d="M13.452 39.5219C13.2239 39.5219 13.0347 39.3326 13.0347 39.1045V37.435C13.0347 37.2068 13.2239 37.0176 13.452 37.0176C13.6802 37.0176 13.8694 37.2068 13.8694 37.435V39.1045C13.8694 39.3326 13.6802 39.5219 13.452 39.5219Z" fill="white"/>
<path d="M17.9042 39.5219C17.676 39.5219 17.4868 39.3326 17.4868 39.1045V37.435C17.4868 37.2068 17.676 37.0176 17.9042 37.0176C18.1324 37.0176 18.3216 37.2068 18.3216 37.435V39.1045C18.3216 39.3326 18.1324 39.5219 17.9042 39.5219Z" fill="white"/>
<path d="M13.7303 44.3913C13.658 44.3913 13.5856 44.3746 13.5189 44.3468C13.4465 44.319 13.3909 44.28 13.3352 44.2299C13.235 44.1242 13.1738 43.985 13.1738 43.8348C13.1738 43.7624 13.1905 43.6901 13.2183 43.6233C13.2462 43.5565 13.2851 43.4953 13.3352 43.4397C13.3909 43.3896 13.4465 43.3506 13.5189 43.3228C13.7192 43.2393 13.9696 43.2839 14.1255 43.4397C14.2256 43.5454 14.2868 43.6901 14.2868 43.8348C14.2868 43.8682 14.2813 43.9071 14.2757 43.9461C14.2701 43.9795 14.259 44.0129 14.2423 44.0463C14.2312 44.0797 14.2145 44.113 14.1922 44.1464C14.1755 44.1743 14.1477 44.2021 14.1255 44.2299C14.0197 44.3301 13.875 44.3913 13.7303 44.3913Z" fill="url(#paint1_linear_496_539)"/>
<path d="M15.6781 44.3912C15.6057 44.3912 15.5334 44.3745 15.4666 44.3467C15.3943 44.3189 15.3386 44.2799 15.283 44.2298C15.1828 44.1241 15.1216 43.985 15.1216 43.8347C15.1216 43.7624 15.1383 43.69 15.1661 43.6232C15.1939 43.5564 15.2329 43.4952 15.283 43.4396C15.3386 43.3895 15.3943 43.3505 15.4666 43.3227C15.667 43.2337 15.9174 43.2838 16.0732 43.4396C16.1734 43.5453 16.2346 43.69 16.2346 43.8347C16.2346 43.8681 16.229 43.9071 16.2235 43.946C16.2179 43.9794 16.2068 44.0128 16.1901 44.0462C16.1789 44.0796 16.1623 44.113 16.14 44.1463C16.1233 44.1742 16.0955 44.202 16.0732 44.2298C15.9675 44.33 15.8228 44.3912 15.6781 44.3912Z" fill="url(#paint2_linear_496_539)"/>
<path d="M17.6258 44.3912C17.5535 44.3912 17.4812 44.3745 17.4144 44.3467C17.342 44.3189 17.2864 44.2799 17.2307 44.2298C17.2085 44.202 17.1862 44.1742 17.1639 44.1463C17.1417 44.113 17.125 44.0796 17.1139 44.0462C17.0972 44.0128 17.086 43.9794 17.0805 43.946C17.0749 43.9071 17.0693 43.8681 17.0693 43.8347C17.0693 43.69 17.1306 43.5453 17.2307 43.4396C17.2864 43.3895 17.342 43.3505 17.4144 43.3227C17.6203 43.2337 17.8651 43.2838 18.021 43.4396C18.1211 43.5453 18.1823 43.69 18.1823 43.8347C18.1823 43.8681 18.1768 43.9071 18.1712 43.946C18.1657 43.9794 18.1545 44.0128 18.1378 44.0462C18.1267 44.0796 18.11 44.113 18.0877 44.1463C18.071 44.1742 18.0432 44.202 18.021 44.2298C17.9152 44.33 17.7705 44.3912 17.6258 44.3912Z" fill="url(#paint3_linear_496_539)"/>
<path d="M13.7303 46.3391C13.658 46.3391 13.5856 46.3224 13.5189 46.2946C13.4521 46.2667 13.3909 46.2278 13.3352 46.1777C13.235 46.072 13.1738 45.9273 13.1738 45.7826C13.1738 45.7102 13.1905 45.6379 13.2183 45.5711C13.2462 45.4988 13.2851 45.4375 13.3352 45.3875C13.5411 45.1816 13.9195 45.1816 14.1255 45.3875C14.2256 45.4932 14.2868 45.6379 14.2868 45.7826C14.2868 45.9273 14.2256 46.072 14.1255 46.1777C14.0197 46.2779 13.875 46.3391 13.7303 46.3391Z" fill="url(#paint4_linear_496_539)"/>
<path d="M15.6781 46.3391C15.5334 46.3391 15.3887 46.2779 15.283 46.1777C15.1828 46.072 15.1216 45.9273 15.1216 45.7826C15.1216 45.7102 15.1383 45.6379 15.1661 45.5711C15.1939 45.4988 15.2329 45.4375 15.283 45.3875C15.4889 45.1816 15.8673 45.1816 16.0732 45.3875C16.1233 45.4375 16.1622 45.4988 16.1901 45.5711C16.2179 45.6379 16.2346 45.7102 16.2346 45.7826C16.2346 45.9273 16.1734 46.072 16.0732 46.1777C15.9675 46.2779 15.8228 46.3391 15.6781 46.3391Z" fill="url(#paint5_linear_496_539)"/>
<path d="M17.6258 46.3391C17.4812 46.3391 17.3365 46.2779 17.2307 46.1777C17.1806 46.1276 17.1417 46.0664 17.1139 45.9941C17.086 45.9273 17.0693 45.8549 17.0693 45.7826C17.0693 45.7102 17.086 45.6379 17.1139 45.5711C17.1417 45.4988 17.1806 45.4376 17.2307 45.3875C17.3587 45.2595 17.5535 45.1982 17.7316 45.2372C17.7705 45.2428 17.8039 45.2539 17.8373 45.2706C17.8707 45.2817 17.9041 45.2984 17.9375 45.3207C17.9653 45.3374 17.9931 45.3652 18.021 45.3875C18.1211 45.4932 18.1823 45.6379 18.1823 45.7826C18.1823 45.9273 18.1211 46.072 18.021 46.1777C17.9152 46.2779 17.7705 46.3391 17.6258 46.3391Z" fill="url(#paint6_linear_496_539)"/>
<path d="M20.4083 41.7979H10.9477C10.7195 41.7979 10.5303 41.6087 10.5303 41.3805C10.5303 41.1523 10.7195 40.9631 10.9477 40.9631H20.4083C20.6364 40.9631 20.8257 41.1523 20.8257 41.3805C20.8257 41.6087 20.6364 41.7979 20.4083 41.7979Z" fill="url(#paint7_linear_496_539)"/>
<path d="M17.9042 48.9824H13.4521C11.4209 48.9824 10.2522 47.8138 10.2522 45.7825V41.0522C10.2522 39.021 11.4209 37.8523 13.4521 37.8523H17.9042C19.9354 37.8523 21.1041 39.021 21.1041 41.0522V45.7825C21.1041 47.8138 19.9354 48.9824 17.9042 48.9824ZM13.4521 38.6871C11.8605 38.6871 11.087 39.4606 11.087 41.0522V45.7825C11.087 47.3741 11.8605 48.1477 13.4521 48.1477H17.9042C19.4958 48.1477 20.2693 47.3741 20.2693 45.7825V41.0522C20.2693 39.4606 19.4958 38.6871 17.9042 38.6871H13.4521Z" fill="url(#paint8_linear_496_539)"/>
<path d="M32.4242 46.0822C32.1624 46.0822 31.8885 46.0487 31.6024 45.9817C31.3164 45.9148 31.0851 45.8296 30.9086 45.7261L30.8629 44.5483L31.2555 44.5118L31.5111 45.3244C31.6572 45.4218 31.8185 45.4978 31.995 45.5526C32.1716 45.6013 32.3603 45.6257 32.5611 45.6257C32.8655 45.6257 33.1059 45.5526 33.2824 45.4065C33.465 45.2605 33.5563 45.0626 33.5563 44.8131C33.5563 44.6 33.4924 44.4235 33.3646 44.2835C33.2368 44.1374 33.0694 44.0127 32.8624 43.9092C32.6616 43.8057 32.4455 43.7022 32.2142 43.5988C31.989 43.4953 31.7729 43.3796 31.5659 43.2518C31.3651 43.1179 31.2007 42.9566 31.0729 42.7679C30.9451 42.5731 30.8812 42.3327 30.8812 42.0466C30.8812 41.7484 30.9633 41.4897 31.1277 41.2706C31.292 41.0453 31.5203 40.8688 31.8124 40.741C32.1107 40.6132 32.4485 40.5493 32.8259 40.5493C32.9842 40.5493 33.1363 40.5584 33.2824 40.5767C33.4346 40.5888 33.5746 40.6101 33.7024 40.6406C33.8302 40.671 33.9459 40.7106 34.0493 40.7593L34.1224 41.9005L33.7298 41.9371L33.4741 41.1701C33.2854 41.0484 33.0359 40.9875 32.7255 40.9875C32.415 40.9875 32.1655 41.0636 31.9768 41.2158C31.7942 41.3619 31.7029 41.5597 31.7029 41.8092C31.7029 42.0284 31.7668 42.211 31.8946 42.3571C32.0285 42.5031 32.1959 42.631 32.3968 42.7405C32.6037 42.8501 32.8198 42.9566 33.045 43.0601C33.2763 43.1636 33.4924 43.2792 33.6933 43.407C33.9002 43.5348 34.0676 43.6931 34.1954 43.8818C34.3293 44.0644 34.3963 44.2927 34.3963 44.5666C34.3963 44.8587 34.3111 45.1205 34.1406 45.3518C33.9763 45.577 33.745 45.7565 33.4467 45.8904C33.1485 46.0183 32.8076 46.0822 32.4242 46.0822ZM36.5328 46.073C36.2893 46.073 36.0732 46.0243 35.8845 45.927C35.6958 45.8296 35.5467 45.7048 35.4371 45.5526C35.3337 45.4005 35.2819 45.2422 35.2819 45.0779C35.2819 44.8709 35.3489 44.7005 35.4828 44.5666C35.6167 44.4327 35.8358 44.317 36.1402 44.2196L37.5279 43.754V43.2883C37.5279 43.1362 37.4823 42.9992 37.391 42.8775C37.2997 42.7497 37.178 42.6492 37.0258 42.5762C36.8736 42.5031 36.7032 42.4666 36.5145 42.4666C36.3623 42.4666 36.2588 42.5001 36.2041 42.567C36.1493 42.6279 36.1158 42.7527 36.1036 42.9414L36.0854 43.3249C35.8662 43.3735 35.6806 43.3675 35.5284 43.3066C35.3763 43.2396 35.3002 43.1331 35.3002 42.987C35.3002 42.8836 35.3428 42.7801 35.428 42.6766C35.5193 42.5731 35.638 42.4757 35.7841 42.3844C35.9302 42.2871 36.0884 42.2049 36.2588 42.1379C36.4293 42.071 36.5967 42.0253 36.761 42.001C37.2114 42.001 37.5706 42.1197 37.8384 42.3571C38.1123 42.5944 38.2523 42.9049 38.2584 43.2883L38.2401 44.8222C38.2401 44.9379 38.2431 45.0505 38.2492 45.16C38.2614 45.2696 38.2766 45.3518 38.2949 45.4065L38.8792 45.5161V45.7991L38.4318 45.9635C38.3466 45.9939 38.2675 46.0183 38.1944 46.0365C38.1214 46.0609 38.0605 46.073 38.0118 46.073C37.8232 46.073 37.7014 45.9665 37.6466 45.7535L37.5462 45.3974H37.6832C37.4823 45.6226 37.2875 45.793 37.0988 45.9087C36.9162 46.0183 36.7275 46.073 36.5328 46.073ZM36.7793 45.5344C36.9193 45.5344 37.0501 45.5039 37.1719 45.4431C37.2936 45.3761 37.4123 45.2757 37.5279 45.1418V44.1831L36.5054 44.457C36.3593 44.4935 36.2528 44.5513 36.1858 44.6305C36.1249 44.7096 36.0945 44.81 36.0945 44.9318C36.0945 45.0839 36.1615 45.2239 36.2954 45.3518C36.4354 45.4735 36.5967 45.5344 36.7793 45.5344ZM42.2209 45.4339C42.1052 45.6348 41.947 45.793 41.7461 45.9087C41.5452 46.0183 41.3352 46.073 41.1161 46.073C40.7448 46.073 40.4405 45.9604 40.2031 45.7352C39.9657 45.51 39.847 45.1722 39.847 44.7218L39.8744 42.5397H39.2353V42.3479L40.4131 41.2797H40.5866L40.5683 42.3297L40.5592 44.5757C40.5592 44.8922 40.6261 45.1265 40.76 45.2787C40.9 45.4309 41.0948 45.507 41.3444 45.507C41.4844 45.507 41.6122 45.4796 41.7278 45.4248C41.8496 45.37 41.9591 45.297 42.0565 45.2057L42.2209 45.4339ZM40.2396 42.5397V42.0831H41.947V42.5397H40.2396ZM46.3203 45.3609L46.8955 45.507V45.8083L45.7086 46.1004L45.5716 45.9817L45.5808 45.4065L45.5534 45.3974C45.3769 45.647 45.1943 45.8235 45.0056 45.927C44.823 46.0243 44.6251 46.073 44.4121 46.073C44.0043 46.073 43.6634 45.9483 43.3895 45.6987C43.1156 45.4431 42.9787 45.0626 42.9787 44.5574V43.7722C42.9787 43.6018 42.9726 43.4375 42.9604 43.2792C42.9543 43.1149 42.9452 42.9505 42.933 42.7862L42.3122 42.6584V42.3571L43.5539 42.0192L43.7182 42.1653C43.706 42.354 43.6969 42.5549 43.6908 42.7679C43.6847 42.981 43.6817 43.2031 43.6817 43.4344L43.6726 44.4387C43.6726 44.8161 43.7608 45.087 43.9373 45.2513C44.1139 45.4096 44.3391 45.4887 44.613 45.4887C44.7773 45.4887 44.9447 45.4461 45.1151 45.3609C45.2856 45.2757 45.4347 45.1296 45.5625 44.9226V43.8635C45.5625 43.7296 45.5595 43.5988 45.5534 43.4709C45.5534 43.337 45.5503 43.2122 45.5443 43.0966C45.5382 42.9749 45.529 42.8714 45.5169 42.7862L44.8504 42.6584V42.3571L46.1377 42.0192L46.2747 42.1471C46.2686 42.3175 46.2625 42.4697 46.2564 42.6036C46.2564 42.7375 46.2564 42.8714 46.2564 43.0053C46.2564 43.1331 46.2564 43.2792 46.2564 43.4435V44.0918C46.2564 44.4266 46.2625 44.6974 46.2747 44.9044C46.2929 45.1052 46.3081 45.2574 46.3203 45.3609ZM47.4251 46L47.3977 45.6713L47.9638 45.5344C47.9698 45.5039 47.9759 45.4491 47.982 45.37C47.9881 45.2909 47.9911 45.1844 47.9911 45.0505C47.9972 44.9166 48.0003 44.7522 48.0003 44.5574L48.0094 43.8453C48.0094 43.6444 48.0003 43.4466 47.982 43.2518C47.9698 43.057 47.9546 42.9018 47.9364 42.7862L47.352 42.6584V42.3571L48.5755 42.0192L48.7033 42.1471L48.6668 42.914L48.6942 42.9231C48.8768 42.5701 49.0624 42.3327 49.2511 42.211C49.4398 42.0831 49.6163 42.0192 49.7807 42.0192C49.9207 42.0192 50.0363 42.0558 50.1276 42.1288C50.225 42.1958 50.2737 42.2992 50.2737 42.4392C50.2737 42.5853 50.222 42.6979 50.1185 42.777C50.0211 42.8501 49.8963 42.8866 49.7441 42.8866C49.6346 42.8866 49.5281 42.8623 49.4246 42.8136C49.3272 42.7649 49.2328 42.6979 49.1415 42.6127L49.3059 42.6675C49.1902 42.7405 49.0807 42.844 48.9772 42.9779C48.8737 43.1057 48.7794 43.267 48.6942 43.4618L48.7033 44.3109C48.7094 44.4631 48.7155 44.6213 48.7216 44.7857C48.7276 44.95 48.7337 45.0992 48.7398 45.2331C48.7459 45.3609 48.752 45.4613 48.7581 45.5344L49.5524 45.6531L49.5341 46H47.4251ZM53.7432 46.1004L53.6062 45.9817L53.6153 45.3883L53.5879 45.3791C53.4053 45.6348 53.2167 45.8144 53.0219 45.9178C52.8332 46.0213 52.6323 46.073 52.4193 46.073C52.0723 46.073 51.7619 45.9939 51.488 45.8357C51.2202 45.6713 51.0071 45.4461 50.8489 45.16C50.6906 44.8739 50.6115 44.5453 50.6115 44.174C50.6115 43.8514 50.6663 43.5562 50.7759 43.2883C50.8854 43.0205 51.0345 42.7923 51.2232 42.6036C51.418 42.4088 51.6371 42.2597 51.8806 42.1562C52.1241 42.0527 52.3767 42.001 52.6384 42.001C52.8088 42.001 52.9823 42.0223 53.1588 42.0649C53.3353 42.1075 53.4845 42.1744 53.6062 42.2658C53.6062 42.1562 53.6032 42.0131 53.5971 41.8366C53.5971 41.6601 53.594 41.4775 53.5879 41.2888C53.5879 41.094 53.5849 40.9236 53.5788 40.7775C53.5788 40.6254 53.5758 40.5219 53.5697 40.4671L52.8575 40.3393L52.8393 40.038L54.1814 39.6636L54.3458 39.7915C54.3336 40.1689 54.3245 40.5341 54.3184 40.8871C54.3123 41.2401 54.3092 41.6084 54.3092 41.9918L54.3001 44.0918C54.3001 44.4022 54.3062 44.67 54.3184 44.8952C54.3366 45.1144 54.3488 45.2696 54.3549 45.3609L54.9392 45.507V45.8083L53.7432 46.1004ZM52.6475 45.4613C52.8241 45.4613 52.9884 45.4248 53.1406 45.3518C53.2927 45.2726 53.448 45.1357 53.6062 44.9409V42.9779C53.4906 42.771 53.3445 42.6249 53.168 42.5397C52.9914 42.4544 52.8149 42.4118 52.6384 42.4118C52.2549 42.4118 51.9536 42.5549 51.7345 42.841C51.5215 43.1209 51.415 43.4862 51.415 43.9366C51.415 44.4174 51.5337 44.7918 51.771 45.0596C52.0145 45.3274 52.3067 45.4613 52.6475 45.4613ZM56.957 46.073C56.7135 46.073 56.4974 46.0243 56.3087 45.927C56.1201 45.8296 55.9709 45.7048 55.8614 45.5526C55.7579 45.4005 55.7062 45.2422 55.7062 45.0779C55.7062 44.8709 55.7731 44.7005 55.907 44.5666C56.0409 44.4327 56.2601 44.317 56.5644 44.2196L57.9522 43.754V43.2883C57.9522 43.1362 57.9065 42.9992 57.8152 42.8775C57.7239 42.7497 57.6022 42.6492 57.45 42.5762C57.2979 42.5031 57.1274 42.4666 56.9387 42.4666C56.7866 42.4666 56.6831 42.5001 56.6283 42.567C56.5735 42.6279 56.54 42.7527 56.5279 42.9414L56.5096 43.3249C56.2905 43.3735 56.1048 43.3675 55.9527 43.3066C55.8005 43.2396 55.7244 43.1331 55.7244 42.987C55.7244 42.8836 55.767 42.7801 55.8522 42.6766C55.9435 42.5731 56.0622 42.4757 56.2083 42.3844C56.3544 42.2871 56.5127 42.2049 56.6831 42.1379C56.8535 42.071 57.0209 42.0253 57.1852 42.001C57.6357 42.001 57.9948 42.1197 58.2626 42.3571C58.5365 42.5944 58.6765 42.9049 58.6826 43.2883L58.6643 44.8222C58.6643 44.9379 58.6674 45.0505 58.6735 45.16C58.6856 45.2696 58.7009 45.3518 58.7191 45.4065L59.3034 45.5161V45.7991L58.8561 45.9635C58.7709 45.9939 58.6917 46.0183 58.6187 46.0365C58.5456 46.0609 58.4848 46.073 58.4361 46.073C58.2474 46.073 58.1257 45.9665 58.0709 45.7535L57.9704 45.3974H58.1074C57.9065 45.6226 57.7118 45.793 57.5231 45.9087C57.3405 46.0183 57.1518 46.073 56.957 46.073ZM57.2035 45.5344C57.3435 45.5344 57.4744 45.5039 57.5961 45.4431C57.7178 45.3761 57.8365 45.2757 57.9522 45.1418V44.1831L56.9296 44.457C56.7835 44.4935 56.677 44.5513 56.61 44.6305C56.5492 44.7096 56.5187 44.81 56.5187 44.9318C56.5187 45.0839 56.5857 45.2239 56.7196 45.3518C56.8596 45.4735 57.0209 45.5344 57.2035 45.5344ZM61.449 46.0365L59.8421 42.5397L59.413 42.4027L59.4404 42.074H61.2117L61.2299 42.4027L60.6638 42.5397L61.9056 45.3152L61.449 46.0365ZM63.7864 42.074L63.8138 42.4027L63.3846 42.5397L61.8325 45.7991L61.1021 47.3147C60.9682 47.5947 60.8251 47.7926 60.673 47.9082C60.5269 48.0239 60.3565 48.0817 60.1617 48.0817C60.0095 48.0817 59.8847 48.0452 59.7873 47.9721C59.696 47.8991 59.6504 47.8047 59.6504 47.6891C59.6504 47.5978 59.6869 47.5095 59.76 47.4243C59.833 47.3452 59.9456 47.2843 60.0978 47.2417L60.9469 46.9861L60.5269 47.4426L61.5403 45.4887L61.6408 45.3244L62.8277 42.5397L62.2616 42.4027L62.2799 42.074H63.7864ZM68.9815 42.8683C68.8293 43.1544 68.6254 43.3827 68.3697 43.5531C68.1202 43.7175 67.8524 43.7996 67.5663 43.7996C67.2741 43.7996 67.0093 43.7357 66.7719 43.6079C66.5406 43.474 66.355 43.2944 66.215 43.0692C66.0811 42.8379 66.0141 42.5792 66.0141 42.2931C66.0141 41.9888 66.0902 41.7058 66.2424 41.444C66.4007 41.1762 66.6167 40.9632 66.8906 40.8049C67.1645 40.6406 67.4719 40.5584 67.8128 40.5584C68.1841 40.5584 68.5097 40.6436 68.7897 40.8141C69.0697 40.9784 69.2858 41.2127 69.438 41.5171C69.5962 41.8214 69.6753 42.1805 69.6753 42.5944C69.6753 43.0388 69.5993 43.4588 69.4471 43.8544C69.301 44.25 69.088 44.6061 68.808 44.9226C68.528 45.2331 68.1902 45.4948 67.7945 45.7078C67.405 45.9209 66.9698 46.067 66.4889 46.1461L66.3428 45.7352C66.8906 45.5952 67.3471 45.3852 67.7124 45.1052C68.0836 44.8252 68.3606 44.4753 68.5432 44.0553C68.7319 43.6353 68.8262 43.1514 68.8262 42.6036C68.8262 42.2749 68.7806 41.9918 68.6893 41.7545C68.6041 41.511 68.4793 41.3223 68.3149 41.1884C68.1567 41.0545 67.965 40.9875 67.7397 40.9875C67.478 40.9875 67.2619 41.088 67.0915 41.2888C66.9211 41.4897 66.8359 41.7514 66.8359 42.074C66.8359 42.4088 66.9302 42.6797 67.1189 42.8866C67.3137 43.0936 67.5632 43.197 67.8676 43.197C68.0137 43.197 68.1536 43.1727 68.2876 43.124C68.4215 43.0692 68.5432 42.9931 68.6528 42.8957C68.7684 42.7923 68.8719 42.6736 68.9632 42.5397L68.9815 42.8683ZM73.4096 45.4339C73.2939 45.6348 73.1357 45.793 72.9348 45.9087C72.734 46.0183 72.524 46.073 72.3048 46.073C71.9335 46.073 71.6292 45.9604 71.3918 45.7352C71.1544 45.51 71.0357 45.1722 71.0357 44.7218L71.0631 42.5397H70.424V42.3479L71.6018 41.2797H71.7753L71.757 42.3297L71.7479 44.5757C71.7479 44.8922 71.8149 45.1265 71.9488 45.2787C72.0888 45.4309 72.2835 45.507 72.5331 45.507C72.6731 45.507 72.8009 45.4796 72.9166 45.4248C73.0383 45.37 73.1479 45.297 73.2453 45.2057L73.4096 45.4339ZM71.4283 42.5397V42.0831H73.1357V42.5397H71.4283ZM73.6378 46L73.6196 45.6713L74.1857 45.5344C74.1978 45.4674 74.207 45.367 74.2131 45.2331C74.2191 45.0931 74.2222 44.9074 74.2222 44.6761C74.2283 44.4448 74.2313 44.1618 74.2313 43.827V42.6857C74.2313 42.4788 74.2283 42.2566 74.2222 42.0192C74.2222 41.7819 74.2191 41.5536 74.2131 41.3345C74.2131 41.1093 74.21 40.9145 74.2039 40.7501C74.2039 40.5858 74.2009 40.4762 74.1948 40.4215L73.5192 40.3302L73.5009 40.038L74.7883 39.6636L74.9617 39.7915C74.9556 39.9802 74.9496 40.1689 74.9435 40.3575C74.9374 40.5462 74.9313 40.7501 74.9252 40.9693C74.9252 41.1823 74.9222 41.4258 74.9161 41.6997C74.9161 41.9736 74.9161 42.2901 74.9161 42.6492L74.9435 42.6584C75.1565 42.4271 75.3635 42.2597 75.5643 42.1562C75.7713 42.0527 75.9965 42.001 76.24 42.001C76.4652 42.001 76.6752 42.0588 76.8699 42.1744C77.0708 42.2901 77.2321 42.4666 77.3538 42.704C77.4817 42.9353 77.5456 43.2336 77.5456 43.5988V44.5848C77.5456 44.8039 77.5517 45.0018 77.5638 45.1783C77.576 45.3487 77.5882 45.4674 77.6004 45.5344L78.1664 45.6713L78.1482 46H76.313L76.2856 45.6713L76.8152 45.5344C76.8212 45.4857 76.8273 45.4248 76.8334 45.3518C76.8395 45.2787 76.8425 45.1874 76.8425 45.0779C76.8486 44.9622 76.8517 44.8192 76.8517 44.6487V43.6627C76.8517 43.4009 76.806 43.1909 76.7147 43.0327C76.6295 42.8683 76.5169 42.7497 76.3769 42.6766C76.2369 42.5975 76.0878 42.5579 75.9295 42.5579C75.7347 42.5579 75.5491 42.6097 75.3726 42.7131C75.1961 42.8105 75.0469 42.9475 74.9252 43.124V44.4935C74.9252 44.7735 74.9282 45.0048 74.9343 45.1874C74.9465 45.37 74.9587 45.4857 74.9709 45.5344L75.5278 45.6713L75.5095 46H73.6378ZM80.4124 46L80.3942 45.6713L80.9603 45.5344C80.9663 45.4918 80.9694 45.4339 80.9694 45.3609C80.9755 45.2878 80.9816 45.1874 80.9877 45.0596C80.9937 44.9318 80.9968 44.7644 80.9968 44.5574L81.0059 43.8544C81.0059 43.6535 80.9968 43.4557 80.9785 43.2609C80.9663 43.0601 80.9511 42.9018 80.9329 42.7862L80.3485 42.6584V42.3571L81.572 42.0192L81.7272 42.1653L81.6815 42.6492L81.7089 42.6584C81.922 42.4271 82.132 42.2597 82.3389 42.1562C82.5459 42.0527 82.7711 42.001 83.0146 42.001C83.2398 42.001 83.4498 42.0588 83.6445 42.1744C83.8454 42.284 84.0067 42.4544 84.1284 42.6857C84.2563 42.917 84.3202 43.2122 84.3202 43.5714V44.5848C84.3202 44.8039 84.3232 45.0018 84.3293 45.1783C84.3415 45.3548 84.3567 45.4735 84.375 45.5344L84.941 45.6713L84.9136 46H83.0785L83.0602 45.6713L83.5898 45.5344C83.5958 45.4857 83.6019 45.4248 83.608 45.3518C83.6141 45.2787 83.6171 45.1874 83.6171 45.0779C83.6232 44.9622 83.6263 44.8192 83.6263 44.6487V43.6627C83.6263 43.3888 83.5776 43.1727 83.4802 43.0144C83.3889 42.8501 83.2732 42.7344 83.1332 42.6675C82.9933 42.5944 82.8502 42.5579 82.7041 42.5579C82.5033 42.5579 82.3146 42.6097 82.1381 42.7131C81.9676 42.8105 81.8215 42.9475 81.6998 43.124V44.4935C81.6998 44.7735 81.7028 45.0018 81.7089 45.1783C81.7211 45.3487 81.7333 45.4674 81.7455 45.5344L82.3115 45.6713L82.2841 46H80.4124ZM87.4975 46.073C87.1018 46.073 86.7549 45.9878 86.4566 45.8174C86.1645 45.647 85.9362 45.4096 85.7719 45.1052C85.6075 44.7948 85.5254 44.4418 85.5254 44.0461C85.5254 43.6322 85.6167 43.2731 85.7993 42.9688C85.9819 42.6644 86.2253 42.4271 86.5297 42.2566C86.834 42.0862 87.1688 42.001 87.534 42.001C87.9114 42.001 88.2401 42.0862 88.5201 42.2566C88.8061 42.421 89.0253 42.6553 89.1774 42.9596C89.3357 43.2579 89.4148 43.6079 89.4148 44.0096C89.4148 44.3931 89.3296 44.74 89.1592 45.0505C88.9887 45.3609 88.7574 45.6104 88.4653 45.7991C88.1792 45.9817 87.8566 46.073 87.4975 46.073ZM87.5888 45.6439C87.7957 45.6439 87.9753 45.5831 88.1275 45.4613C88.2796 45.3335 88.3983 45.16 88.4835 44.9409C88.5688 44.7157 88.6114 44.46 88.6114 44.174C88.6114 43.6505 88.5018 43.2275 88.2827 42.9049C88.0696 42.5762 87.7866 42.4118 87.4336 42.4118C87.1049 42.4118 86.8401 42.5488 86.6392 42.8227C86.4445 43.0966 86.3471 43.4588 86.3471 43.9092C86.3471 44.25 86.3988 44.5513 86.5023 44.8131C86.6119 45.0748 86.761 45.2787 86.9497 45.4248C87.1384 45.5709 87.3514 45.6439 87.5888 45.6439ZM91.7795 46.0365L90.1635 42.5397L89.7344 42.4027L89.7526 42.074H91.533L91.5513 42.4027L90.9852 42.5397L92.236 45.3152L91.9987 45.3244L93.1491 42.5397L92.583 42.4027L92.6013 42.074H94.1169L94.1351 42.4027L93.706 42.5397L92.0534 46.0365H91.7795ZM96.2625 46.073C95.9094 46.073 95.5899 45.9939 95.3038 45.8357C95.0238 45.6774 94.7986 45.4522 94.6282 45.16C94.4638 44.8618 94.3816 44.5118 94.3816 44.1101C94.3816 43.6779 94.4699 43.3036 94.6464 42.987C94.8229 42.6705 95.0542 42.4271 95.3403 42.2566C95.6264 42.0801 95.9338 41.9949 96.2625 42.001C96.7372 42.0071 97.1085 42.1653 97.3763 42.4757C97.6442 42.7862 97.7781 43.2244 97.7781 43.7905V43.9548H94.9751V43.5531H97.1755L97.075 43.6718V43.4801C97.075 43.127 96.9959 42.8562 96.8377 42.6675C96.6794 42.4788 96.4633 42.3844 96.1894 42.3844C96.019 42.3844 95.8546 42.4362 95.6964 42.5397C95.5381 42.637 95.4103 42.7892 95.3129 42.9962C95.2155 43.197 95.1668 43.4527 95.1668 43.7631V43.8727C95.1668 44.3718 95.2886 44.7613 95.532 45.0413C95.7816 45.3213 96.1012 45.4613 96.4907 45.4613C96.7038 45.4613 96.8955 45.4187 97.0659 45.3335C97.2363 45.2483 97.4007 45.1113 97.5589 44.9226L97.7872 45.1326C97.6168 45.4491 97.4007 45.6865 97.139 45.8448C96.8772 45.997 96.5851 46.073 96.2625 46.073ZM98.3989 46L98.3807 45.6713L98.9467 45.5344C98.9528 45.4918 98.9559 45.437 98.9559 45.37C98.962 45.3031 98.968 45.2057 98.9741 45.0779C98.9802 44.95 98.9833 44.7766 98.9833 44.5574L98.9924 43.8453C98.9985 43.7175 98.9954 43.5866 98.9833 43.4527C98.9772 43.3188 98.968 43.194 98.9559 43.0783C98.9437 42.9566 98.9315 42.8592 98.9193 42.7862L98.335 42.6584V42.3571L99.5585 42.0192L99.7137 42.1653L99.668 42.6584L99.6954 42.6675C99.8841 42.4301 100.079 42.2597 100.28 42.1562C100.487 42.0527 100.697 42.001 100.91 42.001C101.123 42.001 101.33 42.0588 101.531 42.1744C101.731 42.2901 101.896 42.4666 102.024 42.704C102.158 42.9414 102.224 43.2457 102.224 43.617L102.234 44.5848C102.234 44.8039 102.237 45.0018 102.243 45.1783C102.255 45.3487 102.27 45.4674 102.288 45.5344L102.836 45.6713L102.809 46H101.028L101.001 45.6713L101.503 45.5344C101.509 45.4857 101.515 45.4248 101.521 45.3518C101.528 45.2787 101.531 45.1874 101.531 45.0779C101.537 44.9622 101.54 44.8192 101.54 44.6487L101.531 43.6444C101.531 43.3827 101.488 43.1727 101.403 43.0144C101.324 42.8562 101.217 42.7405 101.083 42.6675C100.949 42.5944 100.806 42.5579 100.654 42.5579C100.465 42.5579 100.289 42.6036 100.125 42.6949C99.9602 42.7862 99.8141 42.9292 99.6863 43.124V44.4935C99.6863 44.7735 99.6893 45.0018 99.6954 45.1783C99.7076 45.3487 99.7198 45.4674 99.7319 45.5344L100.271 45.6713L100.243 46H98.3989ZM103.548 46L103.521 45.6713L104.041 45.5344C104.047 45.4857 104.051 45.4248 104.051 45.3518C104.057 45.2787 104.063 45.1874 104.069 45.0779C104.075 44.9622 104.078 44.8192 104.078 44.6487V43.6535C104.078 43.3857 104.032 43.1727 103.941 43.0144C103.85 42.8562 103.734 42.7405 103.594 42.6675C103.46 42.5944 103.323 42.5579 103.183 42.5579C102.976 42.5579 102.784 42.6097 102.608 42.7131C102.431 42.8166 102.273 42.9749 102.133 43.1879L101.96 42.8501C102.173 42.5579 102.398 42.3449 102.635 42.211C102.879 42.071 103.134 42.001 103.402 42.001C103.658 42.001 103.889 42.0618 104.096 42.1836C104.303 42.3053 104.467 42.4818 104.589 42.7131C104.711 42.9444 104.772 43.2244 104.772 43.5531V44.5848C104.772 44.8039 104.775 45.0018 104.781 45.1783C104.793 45.3487 104.805 45.4674 104.817 45.5344L105.384 45.6713L105.365 46H103.548ZM106.342 45.7535C106.348 45.5404 106.351 45.3548 106.351 45.1965C106.357 45.0383 106.36 44.8861 106.36 44.74C106.36 44.5879 106.36 44.4266 106.36 44.2561V42.6857C106.36 42.4788 106.357 42.2566 106.351 42.0192C106.351 41.7758 106.348 41.5445 106.342 41.3253C106.342 41.1001 106.339 40.9054 106.333 40.741C106.333 40.5767 106.333 40.4671 106.333 40.4123L105.657 40.3302L105.639 40.038L106.927 39.6636L107.1 39.7915C107.094 40.0471 107.088 40.3028 107.082 40.5584C107.076 40.8141 107.07 41.1093 107.063 41.444C107.057 41.7788 107.051 42.1927 107.045 42.6857L107.073 42.6949C107.219 42.4879 107.404 42.3205 107.63 42.1927C107.861 42.0649 108.107 42.001 108.369 42.001C108.673 42.001 108.953 42.074 109.209 42.2201C109.465 42.3662 109.669 42.5792 109.821 42.8592C109.979 43.1392 110.058 43.477 110.058 43.8727C110.058 44.3048 109.955 44.6883 109.748 45.0231C109.547 45.3518 109.276 45.6104 108.935 45.7991C108.594 45.9817 108.217 46.073 107.803 46.073C107.541 46.073 107.283 46.0457 107.027 45.9909C106.771 45.93 106.543 45.8509 106.342 45.7535ZM108.004 45.6074C108.363 45.6074 108.658 45.4704 108.89 45.1965C109.127 44.9226 109.249 44.5361 109.255 44.037C109.267 43.5501 109.151 43.1909 108.908 42.9596C108.67 42.7223 108.381 42.6036 108.04 42.6036C107.858 42.6036 107.678 42.6462 107.502 42.7314C107.331 42.8105 107.182 42.9353 107.054 43.1057V45.3244C107.176 45.4096 107.313 45.4796 107.465 45.5344C107.623 45.5831 107.803 45.6074 108.004 45.6074ZM112.688 46.073C112.335 46.073 112.015 45.9939 111.729 45.8357C111.449 45.6774 111.224 45.4522 111.053 45.16C110.889 44.8618 110.807 44.5118 110.807 44.1101C110.807 43.6779 110.895 43.3036 111.072 42.987C111.248 42.6705 111.479 42.4271 111.766 42.2566C112.052 42.0801 112.359 41.9949 112.688 42.001C113.162 42.0071 113.534 42.1653 113.802 42.4757C114.069 42.7862 114.203 43.2244 114.203 43.7905V43.9548H111.4V43.5531H113.601L113.5 43.6718V43.4801C113.5 43.127 113.421 42.8562 113.263 42.6675C113.105 42.4788 112.889 42.3844 112.615 42.3844C112.444 42.3844 112.28 42.4362 112.122 42.5397C111.963 42.637 111.836 42.7892 111.738 42.9962C111.641 43.197 111.592 43.4527 111.592 43.7631V43.8727C111.592 44.3718 111.714 44.7613 111.957 45.0413C112.207 45.3213 112.526 45.4613 112.916 45.4613C113.129 45.4613 113.321 45.4187 113.491 45.3335C113.662 45.2483 113.826 45.1113 113.984 44.9226L114.212 45.1326C114.042 45.4491 113.826 45.6865 113.564 45.8448C113.302 45.997 113.01 46.073 112.688 46.073ZM114.833 46L114.806 45.6713L115.372 45.5344C115.378 45.5039 115.384 45.4491 115.39 45.37C115.396 45.2909 115.399 45.1844 115.399 45.0505C115.405 44.9166 115.408 44.7522 115.408 44.5574L115.418 43.8453C115.418 43.6444 115.408 43.4466 115.39 43.2518C115.378 43.057 115.363 42.9018 115.345 42.7862L114.76 42.6584V42.3571L115.984 42.0192L116.111 42.1471L116.075 42.914L116.102 42.9231C116.285 42.5701 116.471 42.3327 116.659 42.211C116.848 42.0831 117.025 42.0192 117.189 42.0192C117.329 42.0192 117.445 42.0558 117.536 42.1288C117.633 42.1958 117.682 42.2992 117.682 42.4392C117.682 42.5853 117.63 42.6979 117.527 42.777C117.429 42.8501 117.305 42.8866 117.152 42.8866C117.043 42.8866 116.936 42.8623 116.833 42.8136C116.735 42.7649 116.641 42.6979 116.55 42.6127L116.714 42.6675C116.598 42.7405 116.489 42.844 116.385 42.9779C116.282 43.1057 116.188 43.267 116.102 43.4618L116.111 44.3109C116.118 44.4631 116.124 44.6213 116.13 44.7857C116.136 44.95 116.142 45.0992 116.148 45.2331C116.154 45.3609 116.16 45.4613 116.166 45.5344L116.961 45.6531L116.942 46H114.833ZM120.074 46.0183L120.037 45.6987C120.616 45.1935 121.075 44.7492 121.416 44.3657C121.763 43.9761 122.013 43.617 122.165 43.2883C122.317 42.9596 122.393 42.637 122.393 42.3205C122.393 41.9797 122.299 41.7088 122.11 41.5079C121.927 41.301 121.669 41.1975 121.334 41.1975C120.823 41.1975 120.415 41.441 120.111 41.9279L119.855 41.7453C120.007 41.374 120.232 41.0849 120.531 40.878C120.835 40.6649 121.179 40.5584 121.562 40.5584C121.891 40.5584 122.18 40.6254 122.43 40.7593C122.685 40.8932 122.883 41.0788 123.023 41.3162C123.163 41.5475 123.233 41.8214 123.233 42.1379C123.233 42.637 123.026 43.1666 122.612 43.7266C122.204 44.2866 121.593 44.8618 120.777 45.4522L120.804 45.3152H122.722C122.789 45.3152 122.85 45.3122 122.904 45.3061C122.965 45.3 123.014 45.2909 123.05 45.2787L123.352 44.5209L123.726 44.5574L123.516 46.0365C123.425 46.0243 123.33 46.0152 123.233 46.0091C123.136 46.0091 123.032 46.0061 122.923 46C122.819 46 122.703 46 122.576 46H120.75C120.634 46 120.518 46 120.403 46C120.293 46.0061 120.184 46.0122 120.074 46.0183ZM126.757 46.0822C126.325 46.0822 125.942 45.9696 125.607 45.7444C125.278 45.5131 125.023 45.1905 124.84 44.7766C124.657 44.3627 124.566 43.8848 124.566 43.3431C124.566 42.8014 124.66 42.3205 124.849 41.9005C125.044 41.4806 125.306 41.1519 125.634 40.9145C125.969 40.6771 126.349 40.5584 126.776 40.5584C127.183 40.5584 127.542 40.6741 127.853 40.9054C128.169 41.1306 128.416 41.4471 128.592 41.8549C128.769 42.2627 128.857 42.7375 128.857 43.2792C128.857 43.8027 128.763 44.2774 128.574 44.7035C128.392 45.1296 128.142 45.4674 127.826 45.717C127.509 45.9604 127.153 46.0822 126.757 46.0822ZM126.803 45.6257C127.046 45.6257 127.256 45.5404 127.433 45.37C127.609 45.1935 127.746 44.947 127.844 44.6305C127.947 44.314 127.999 43.9366 127.999 43.4983C127.999 42.7253 127.88 42.1166 127.643 41.6723C127.406 41.2219 127.092 40.9967 126.703 40.9967C126.313 40.9967 126.006 41.1884 125.78 41.5719C125.561 41.9492 125.452 42.4818 125.452 43.1696C125.452 43.6627 125.506 44.0948 125.616 44.4661C125.732 44.8313 125.89 45.1174 126.091 45.3244C126.298 45.5252 126.535 45.6257 126.803 45.6257ZM129.725 46.0183L129.688 45.6987C130.266 45.1935 130.726 44.7492 131.067 44.3657C131.414 43.9761 131.663 43.617 131.815 43.2883C131.968 42.9596 132.044 42.637 132.044 42.3205C132.044 41.9797 131.949 41.7088 131.761 41.5079C131.578 41.301 131.319 41.1975 130.985 41.1975C130.473 41.1975 130.065 41.441 129.761 41.9279L129.505 41.7453C129.658 41.374 129.883 41.0849 130.181 40.878C130.485 40.6649 130.829 40.5584 131.213 40.5584C131.542 40.5584 131.831 40.6254 132.08 40.7593C132.336 40.8932 132.534 41.0788 132.674 41.3162C132.814 41.5475 132.884 41.8214 132.884 42.1379C132.884 42.637 132.677 43.1666 132.263 43.7266C131.855 44.2866 131.243 44.8618 130.428 45.4522L130.455 45.3152H132.372C132.439 45.3152 132.5 45.3122 132.555 45.3061C132.616 45.3 132.665 45.2909 132.701 45.2787L133.002 44.5209L133.377 44.5574L133.167 46.0365C133.075 46.0243 132.981 46.0152 132.884 46.0091C132.786 46.0091 132.683 46.0061 132.573 46C132.47 46 132.354 46 132.226 46H130.4C130.285 46 130.169 46 130.053 46C129.944 46.0061 129.834 46.0122 129.725 46.0183ZM137.239 44.4935C137.239 44.8526 137.239 45.1022 137.239 45.2422C137.245 45.3761 137.251 45.4735 137.257 45.5344L137.814 45.6622L137.787 46H135.796L135.769 45.6622L136.508 45.5344C136.514 45.4735 136.517 45.3761 136.517 45.2422C136.517 45.1022 136.517 44.8526 136.517 44.4935V41.444L136.7 41.4806L134.71 44.1009V43.9092H138.051V44.4935H134.144L134.08 44.1831L136.91 40.6041H137.257C137.251 40.8232 137.245 41.0453 137.239 41.2706C137.233 41.4958 137.23 41.724 137.23 41.9553L137.239 44.4935Z" fill="white"/>
<path d="M15.6781 65.2281C14.4927 65.2281 13.5244 64.2653 13.5244 63.0744C13.5244 61.8835 14.4927 60.9263 15.6781 60.9263C16.8635 60.9263 17.8318 61.889 17.8318 63.08C17.8318 64.2709 16.8635 65.2281 15.6781 65.2281ZM15.6781 61.761C14.9546 61.761 14.3592 62.3509 14.3592 63.08C14.3592 63.809 14.9491 64.3989 15.6781 64.3989C16.4071 64.3989 16.997 63.809 16.997 63.08C16.997 62.3509 16.4016 61.761 15.6781 61.761Z" fill="url(#paint9_linear_496_539)"/>
<path d="M15.6781 70.0085C14.8545 70.0085 14.0253 69.6969 13.3798 69.0792C11.7381 67.4987 9.92385 64.9777 10.6083 61.9782C11.2261 59.2568 13.6024 58.0381 15.6781 58.0381C15.6781 58.0381 15.6781 58.0381 15.6837 58.0381C17.7595 58.0381 20.1357 59.2568 20.7535 61.9837C21.4324 64.9833 19.6182 67.4987 17.9765 69.0792C17.331 69.6969 16.5018 70.0085 15.6781 70.0085ZM15.6781 58.8728C14.0587 58.8728 11.9774 59.7354 11.4264 62.1618C10.8254 64.7829 12.4726 67.0424 13.9641 68.4726C14.9268 69.402 16.435 69.402 17.3977 68.4726C18.8836 67.0424 20.5309 64.7829 19.941 62.1618C19.3845 59.7354 17.2976 58.8728 15.6781 58.8728Z" fill="url(#paint10_linear_496_539)"/>
<path d="M34.8071 69.3881C34.6306 69.3698 34.4724 69.3576 34.3324 69.3515C34.1985 69.3455 34.0706 69.3424 33.9489 69.3424H30.8173L30.7899 68.9955L31.3559 68.8676C31.3681 68.8372 31.3742 68.7672 31.3742 68.6576C31.3803 68.5481 31.3833 68.399 31.3833 68.2103C31.3894 68.0216 31.3925 67.7933 31.3925 67.5255V65.809C31.3925 65.5351 31.3894 65.3038 31.3833 65.1151C31.3833 64.9204 31.3803 64.7682 31.3742 64.6586C31.3742 64.5491 31.3681 64.4821 31.3559 64.4578L30.7899 64.3299L30.8173 63.983H33.748C33.8333 63.983 33.9215 63.983 34.0128 63.983C34.1102 63.9769 34.2137 63.9708 34.3232 63.9647C34.4328 63.9586 34.5454 63.9526 34.6611 63.9465L34.8437 65.1516L34.4328 65.2156L34.1315 64.4486C34.0828 64.4365 34.028 64.4304 33.9672 64.4304C33.9063 64.4243 33.8424 64.4212 33.7754 64.4212H32.7437C32.6281 64.4212 32.5246 64.4243 32.4333 64.4304C32.3481 64.4304 32.2629 64.4365 32.1777 64.4486C32.1777 64.473 32.1746 64.543 32.1685 64.6586C32.1685 64.7682 32.1655 64.896 32.1594 65.0421C32.1594 65.1882 32.1594 65.3343 32.1594 65.4803V67.9455C32.1594 68.0672 32.1594 68.192 32.1594 68.3198C32.1655 68.4416 32.1685 68.5511 32.1685 68.6485C32.1746 68.7459 32.1777 68.8129 32.1777 68.8494C32.2629 68.8555 32.3511 68.8616 32.4424 68.8676C32.5398 68.8737 32.6463 68.8768 32.762 68.8768H33.6476C33.7815 68.8768 33.8911 68.8768 33.9763 68.8768C34.0615 68.8707 34.1285 68.8646 34.1772 68.8585C34.2259 68.8524 34.2654 68.8463 34.2959 68.8402L34.7706 67.9729L35.1815 68.0551L34.8071 69.3881ZM33.7937 67.4707L33.6841 66.8499C33.6537 66.8377 33.602 66.8286 33.5289 66.8225C33.4559 66.8164 33.3676 66.8133 33.2641 66.8133H32.5702C32.4911 66.8133 32.4059 66.8164 32.3146 66.8225C32.2233 66.8286 32.1259 66.8346 32.0224 66.8407V66.3386C32.1259 66.3447 32.2233 66.3507 32.3146 66.3568C32.4059 66.3568 32.4911 66.3568 32.5702 66.3568H33.2641C33.3676 66.3568 33.4559 66.3538 33.5289 66.3477C33.602 66.3416 33.6537 66.3355 33.6841 66.3294L33.7937 65.6995H34.1863V67.4707H33.7937ZM37.5006 69.4246C37.2388 69.4246 36.9649 69.3911 36.6788 69.3241C36.3928 69.2572 36.1615 69.172 35.9849 69.0685L35.9393 67.8907L36.3319 67.8542L36.5875 68.6668C36.7336 68.7642 36.8949 68.8402 37.0714 68.895C37.248 68.9437 37.4366 68.9681 37.6375 68.9681C37.9418 68.9681 38.1823 68.895 38.3588 68.7489C38.5414 68.6029 38.6327 68.405 38.6327 68.1555C38.6327 67.9424 38.5688 67.7659 38.441 67.6259C38.3131 67.4798 38.1458 67.3551 37.9388 67.2516C37.7379 67.1481 37.5219 67.0446 37.2906 66.9412C37.0653 66.8377 36.8493 66.722 36.6423 66.5942C36.4415 66.4603 36.2771 66.299 36.1493 66.1103C36.0215 65.9155 35.9576 65.6751 35.9576 65.389C35.9576 65.0908 36.0397 64.8321 36.2041 64.613C36.3684 64.3878 36.5967 64.2112 36.8888 64.0834C37.1871 63.9556 37.5249 63.8917 37.9023 63.8917C38.0605 63.8917 38.2127 63.9008 38.3588 63.9191C38.511 63.9312 38.651 63.9526 38.7788 63.983C38.9066 64.0134 39.0223 64.053 39.1257 64.1017L39.1988 65.243L38.8062 65.2795L38.5505 64.5125C38.3618 64.3908 38.1123 64.3299 37.8018 64.3299C37.4914 64.3299 37.2419 64.406 37.0532 64.5582C36.8706 64.7043 36.7793 64.9021 36.7793 65.1516C36.7793 65.3708 36.8432 65.5534 36.971 65.6995C37.1049 65.8455 37.2723 65.9734 37.4732 66.0829C37.6801 66.1925 37.8962 66.299 38.1214 66.4025C38.3527 66.506 38.5688 66.6216 38.7696 66.7494C38.9766 66.8773 39.144 67.0355 39.2718 67.2242C39.4057 67.4068 39.4727 67.6351 39.4727 67.909C39.4727 68.2011 39.3875 68.4629 39.217 68.6942C39.0527 68.9194 38.8214 69.0989 38.5231 69.2328C38.2249 69.3607 37.884 69.4246 37.5006 69.4246ZM40.267 69.3424L40.2487 68.9955L40.8057 68.8676C40.8179 68.8372 40.8239 68.7672 40.8239 68.6576C40.83 68.5481 40.8331 68.399 40.8331 68.2103C40.8392 68.0216 40.8422 67.7933 40.8422 67.5255V65.809C40.8422 65.5351 40.8392 65.3038 40.8331 65.1151C40.8331 64.9204 40.83 64.7682 40.8239 64.6586C40.8239 64.5491 40.8179 64.4821 40.8057 64.4578L40.2487 64.3299L40.267 63.983H42.2117L42.23 64.3299L41.673 64.4578C41.6609 64.476 41.6487 64.5369 41.6365 64.6404C41.6304 64.7377 41.6244 64.8838 41.6183 65.0786C41.6183 65.2673 41.6183 65.5108 41.6183 65.809V67.5255C41.6183 67.8177 41.6183 68.0581 41.6183 68.2468C41.6244 68.4355 41.6304 68.5816 41.6365 68.685C41.6487 68.7824 41.6609 68.8433 41.673 68.8676L42.23 68.9955L42.2117 69.3424H40.267ZM47.4251 62.6865L47.6898 62.9239C47.1846 63.4291 46.8012 64.0378 46.5394 64.7499C46.2777 65.456 46.1468 66.226 46.1468 67.0599C46.1468 67.8938 46.2777 68.6637 46.5394 69.3698C46.8012 70.082 47.1846 70.6906 47.6898 71.1958L47.4251 71.4332C46.7251 70.855 46.1986 70.1976 45.8455 69.4611C45.4925 68.7246 45.316 67.9242 45.316 67.0599C45.316 66.1955 45.4925 65.3921 45.8455 64.6495C46.1986 63.9069 46.7251 63.2526 47.4251 62.6865ZM52.1271 69.3881C51.9506 69.3698 51.7923 69.3576 51.6523 69.3515C51.5184 69.3455 51.3906 69.3424 51.2689 69.3424H48.1372L48.1098 68.9955L48.6759 68.8676C48.6881 68.8372 48.6942 68.7672 48.6942 68.6576C48.7003 68.5481 48.7033 68.399 48.7033 68.2103C48.7094 68.0216 48.7124 67.7933 48.7124 67.5255V65.809C48.7124 65.5351 48.7094 65.3038 48.7033 65.1151C48.7033 64.9204 48.7003 64.7682 48.6942 64.6586C48.6942 64.5491 48.6881 64.4821 48.6759 64.4578L48.1098 64.3299L48.1372 63.983H51.068C51.1532 63.983 51.2415 63.983 51.3328 63.983C51.4302 63.9769 51.5337 63.9708 51.6432 63.9647C51.7528 63.9586 51.8654 63.9526 51.981 63.9465L52.1636 65.1516L51.7528 65.2156L51.4515 64.4486C51.4028 64.4365 51.348 64.4304 51.2871 64.4304C51.2263 64.4243 51.1624 64.4212 51.0954 64.4212H50.0637C49.948 64.4212 49.8446 64.4243 49.7533 64.4304C49.6681 64.4304 49.5828 64.4365 49.4976 64.4486C49.4976 64.473 49.4946 64.543 49.4885 64.6586C49.4885 64.7682 49.4855 64.896 49.4794 65.0421C49.4794 65.1882 49.4794 65.3343 49.4794 65.4803V67.9455C49.4794 68.0672 49.4794 68.192 49.4794 68.3198C49.4855 68.4416 49.4885 68.5511 49.4885 68.6485C49.4946 68.7459 49.4976 68.8129 49.4976 68.8494C49.5828 68.8555 49.6711 68.8616 49.7624 68.8676C49.8598 68.8737 49.9663 68.8768 50.082 68.8768H50.9676C51.1015 68.8768 51.2111 68.8768 51.2963 68.8768C51.3815 68.8707 51.4484 68.8646 51.4971 68.8585C51.5458 68.8524 51.5854 68.8463 51.6158 68.8402L52.0906 67.9729L52.5015 68.0551L52.1271 69.3881ZM51.1137 67.4707L51.0041 66.8499C50.9737 66.8377 50.9219 66.8286 50.8489 66.8225C50.7759 66.8164 50.6876 66.8133 50.5841 66.8133H49.8902C49.8111 66.8133 49.7259 66.8164 49.6346 66.8225C49.5433 66.8286 49.4459 66.8346 49.3424 66.8407V66.3386C49.4459 66.3447 49.5433 66.3507 49.6346 66.3568C49.7259 66.3568 49.8111 66.3568 49.8902 66.3568H50.5841C50.6876 66.3568 50.7759 66.3538 50.8489 66.3477C50.9219 66.3416 50.9737 66.3355 51.0041 66.3294L51.1137 65.6995H51.5063V67.4707H51.1137ZM55.0214 69.4154C54.6805 69.4154 54.3671 69.3394 54.081 69.1872C53.7949 69.0289 53.5666 68.8037 53.3962 68.5116C53.2258 68.2133 53.1406 67.8603 53.1406 67.4525C53.1406 67.0568 53.2288 66.7007 53.4053 66.3842C53.5879 66.0616 53.8345 65.809 54.1449 65.6264C54.4614 65.4377 54.8144 65.3434 55.204 65.3434C55.4718 65.3434 55.697 65.3769 55.8796 65.4438C56.0622 65.5108 56.1992 65.599 56.2905 65.7086C56.3879 65.8182 56.4366 65.9338 56.4366 66.0555C56.4366 66.1529 56.4061 66.2351 56.3453 66.3021C56.2844 66.3629 56.1992 66.3934 56.0896 66.3934C55.9922 66.3934 55.907 66.3751 55.834 66.3386C55.7609 66.3021 55.6727 66.229 55.5692 66.1194L55.1036 65.6538L55.4322 65.7451C55.1888 65.6903 54.9544 65.7147 54.7292 65.8182C54.504 65.9155 54.3184 66.089 54.1723 66.3386C54.0262 66.582 53.9532 66.8986 53.9532 67.2881C53.9532 67.7751 54.0749 68.1494 54.3184 68.4111C54.5679 68.6729 54.8783 68.8037 55.2496 68.8037C55.4809 68.8037 55.6788 68.7611 55.8431 68.6759C56.0135 68.5907 56.1748 68.4537 56.327 68.265L56.5735 68.475C56.4031 68.7916 56.187 69.0289 55.9253 69.1872C55.6635 69.3394 55.3622 69.4154 55.0214 69.4154ZM58.9474 69.4154C58.5517 69.4154 58.2048 69.3302 57.9065 69.1598C57.6144 68.9894 57.3861 68.752 57.2218 68.4476C57.0574 68.1372 56.9752 67.7842 56.9752 67.3885C56.9752 66.9746 57.0666 66.6155 57.2492 66.3112C57.4318 66.0068 57.6752 65.7695 57.9796 65.599C58.2839 65.4286 58.6187 65.3434 58.9839 65.3434C59.3613 65.3434 59.69 65.4286 59.97 65.599C60.256 65.7634 60.4752 65.9977 60.6273 66.3021C60.7856 66.6003 60.8647 66.9503 60.8647 67.352C60.8647 67.7355 60.7795 68.0824 60.6091 68.3929C60.4386 68.7033 60.2073 68.9529 59.9152 69.1415C59.6291 69.3241 59.3065 69.4154 58.9474 69.4154ZM59.0387 68.9863C59.2456 68.9863 59.4252 68.9255 59.5774 68.8037C59.7295 68.6759 59.8482 68.5024 59.9334 68.2833C60.0186 68.0581 60.0613 67.8024 60.0613 67.5164C60.0613 66.9929 59.9517 66.5699 59.7326 66.2473C59.5195 65.9186 59.2365 65.7542 58.8835 65.7542C58.5548 65.7542 58.29 65.8912 58.0891 66.1651C57.8944 66.439 57.797 66.8012 57.797 67.2516C57.797 67.5925 57.8487 67.8938 57.9522 68.1555C58.0617 68.4172 58.2109 68.6211 58.3996 68.7672C58.5883 68.9133 58.8013 68.9863 59.0387 68.9863ZM61.4947 69.3424L61.4764 69.0046L62.0699 68.8768C62.0821 68.8159 62.0912 68.7155 62.0973 68.5755C62.1034 68.4355 62.1064 68.2498 62.1064 68.0185C62.1125 67.7872 62.1155 67.5042 62.1155 67.1694V66.0281C62.1155 65.7968 62.1125 65.5595 62.1064 65.316C62.1064 65.0725 62.1034 64.8443 62.0973 64.6312C62.0973 64.4121 62.0942 64.2265 62.0882 64.0743C62.0882 63.916 62.0851 63.8126 62.079 63.7639L61.4034 63.6726L61.3851 63.3804L62.6908 63.0061L62.8642 63.1339C62.8581 63.3895 62.8521 63.6452 62.846 63.9008C62.8399 64.1565 62.8338 64.4395 62.8277 64.7499C62.8277 65.0603 62.8277 65.4347 62.8277 65.8729L62.8186 67.3429C62.8186 67.702 62.8216 68.0277 62.8277 68.3198C62.8399 68.6059 62.8521 68.7916 62.8642 68.8768L63.4577 69.0046L63.4394 69.3424H61.4947ZM65.9594 69.4154C65.6063 69.4154 65.2868 69.3363 65.0007 69.1781C64.7207 69.0198 64.4955 68.7946 64.3251 68.5024C64.1607 68.2042 64.0785 67.8542 64.0785 67.4525C64.0785 67.0203 64.1668 66.646 64.3433 66.3294C64.5198 66.0129 64.7511 65.7695 65.0372 65.599C65.3233 65.4225 65.6307 65.3373 65.9594 65.3434C66.4341 65.3495 66.8054 65.5077 67.0732 65.8182C67.3411 66.1286 67.475 66.5668 67.475 67.1329V67.2972H64.672V66.8955H66.8724L66.7719 67.0142V66.8225C66.7719 66.4694 66.6928 66.1986 66.5346 66.0099C66.3763 65.8212 66.1602 65.7269 65.8863 65.7269C65.7159 65.7269 65.5515 65.7786 65.3933 65.8821C65.235 65.9795 65.1072 66.1316 65.0098 66.3386C64.9124 66.5394 64.8637 66.7951 64.8637 67.1055V67.2151C64.8637 67.7142 64.9855 68.1037 65.2289 68.3837C65.4785 68.6637 65.7981 68.8037 66.1876 68.8037C66.4007 68.8037 66.5924 68.7611 66.7628 68.6759C66.9332 68.5907 67.0976 68.4537 67.2558 68.265L67.4841 68.475C67.3137 68.7916 67.0976 69.0289 66.8359 69.1872C66.5741 69.3394 66.282 69.4154 65.9594 69.4154ZM74.1674 68.0368V65.9916C74.1674 65.6325 74.1644 65.3464 74.1583 65.1334C74.1522 64.9143 74.1461 64.753 74.14 64.6495C74.1339 64.5399 74.1278 64.476 74.1217 64.4578L73.5009 64.3299L73.5283 63.983H75.263L75.2904 64.3299L74.7243 64.4578C74.7243 64.476 74.7183 64.5399 74.7061 64.6495C74.7 64.753 74.6939 64.9143 74.6878 65.1334C74.6817 65.3464 74.6787 65.6325 74.6787 65.9916V68.1646C74.6787 68.3533 74.6787 68.5511 74.6787 68.7581C74.6787 68.9589 74.6817 69.1659 74.6878 69.3789H74.277L70.9171 64.8595H71.1179V67.3064C71.1179 67.6716 71.121 67.9668 71.127 68.192C71.1331 68.4111 71.1392 68.5724 71.1453 68.6759C71.1575 68.7794 71.1666 68.8433 71.1727 68.8676L71.7935 68.9955L71.7662 69.3424H70.0132L69.9858 68.9955L70.5427 68.8676C70.5488 68.8433 70.5549 68.7794 70.561 68.6759C70.5731 68.5724 70.5823 68.4111 70.5884 68.192C70.5945 67.9668 70.5975 67.6716 70.5975 67.3064V65.7451C70.5975 65.4712 70.5945 65.246 70.5884 65.0695C70.5823 64.893 70.5762 64.756 70.5701 64.6586C70.564 64.5612 70.5549 64.4943 70.5427 64.4578L69.9858 64.3299L70.0132 63.983H71.264L74.3317 68.0368H74.1674ZM77.436 69.4154C77.1925 69.4154 76.9765 69.3668 76.7878 69.2694C76.5991 69.172 76.4499 69.0472 76.3404 68.895C76.2369 68.7429 76.1852 68.5846 76.1852 68.4203C76.1852 68.2133 76.2521 68.0429 76.386 67.909C76.5199 67.7751 76.7391 67.6594 77.0434 67.562L78.4312 67.0964V66.6307C78.4312 66.4786 78.3855 66.3416 78.2942 66.2199C78.2029 66.0921 78.0812 65.9916 77.929 65.9186C77.7769 65.8455 77.6064 65.809 77.4177 65.809C77.2656 65.809 77.1621 65.8425 77.1073 65.9095C77.0525 65.9703 77.0191 66.0951 77.0069 66.2838L76.9886 66.6673C76.7695 66.716 76.5839 66.7099 76.4317 66.649C76.2795 66.582 76.2034 66.4755 76.2034 66.3294C76.2034 66.226 76.246 66.1225 76.3313 66.019C76.4226 65.9155 76.5413 65.8182 76.6873 65.7269C76.8334 65.6295 76.9917 65.5473 77.1621 65.4803C77.3325 65.4134 77.4999 65.3677 77.6643 65.3434C78.1147 65.3434 78.4738 65.4621 78.7416 65.6995C79.0155 65.9368 79.1555 66.2473 79.1616 66.6307L79.1434 68.1646C79.1434 68.2803 79.1464 68.3929 79.1525 68.5024C79.1647 68.612 79.1799 68.6942 79.1981 68.7489L79.7825 68.8585V69.1415L79.3351 69.3059C79.2499 69.3363 79.1707 69.3607 79.0977 69.3789C79.0247 69.4033 78.9638 69.4154 78.9151 69.4154C78.7264 69.4154 78.6047 69.3089 78.5499 69.0959L78.4495 68.7398H78.5864C78.3855 68.965 78.1908 69.1355 78.0021 69.2511C77.8195 69.3607 77.6308 69.4154 77.436 69.4154ZM77.6825 68.8768C77.8225 68.8768 77.9534 68.8463 78.0751 68.7855C78.1969 68.7185 78.3156 68.6181 78.4312 68.4842V67.5255L77.4086 67.7994C77.2625 67.8359 77.156 67.8938 77.0891 67.9729C77.0282 68.052 76.9978 68.1524 76.9978 68.2742C76.9978 68.4263 77.0647 68.5663 77.1986 68.6942C77.3386 68.8159 77.4999 68.8768 77.6825 68.8768ZM83.1241 68.7763C83.0085 68.9772 82.8502 69.1355 82.6493 69.2511C82.4485 69.3607 82.2385 69.4154 82.0194 69.4154C81.6481 69.4154 81.3437 69.3028 81.1063 69.0776C80.869 68.8524 80.7503 68.5146 80.7503 68.0642L80.7777 65.8821H80.1385V65.6903L81.3163 64.6221H81.4898L81.4716 65.6721L81.4624 67.9181C81.4624 68.2346 81.5294 68.469 81.6633 68.6211C81.8033 68.7733 81.9981 68.8494 82.2476 68.8494C82.3876 68.8494 82.5154 68.822 82.6311 68.7672C82.7528 68.7124 82.8624 68.6394 82.9598 68.5481L83.1241 68.7763ZM81.1429 65.8821V65.4256H82.8502V65.8821H81.1429ZM83.3159 69.3424L83.2976 69.0046L83.9093 68.8768C83.9154 68.8524 83.9184 68.8098 83.9184 68.7489C83.9245 68.6881 83.9306 68.5907 83.9367 68.4568C83.9428 68.3229 83.9458 68.1372 83.9458 67.8998V67.2972C83.9458 67.0477 83.9397 66.8194 83.9276 66.6125C83.9154 66.4055 83.9002 66.2442 83.8819 66.1286L83.2702 66.0008V65.6995L84.5667 65.3616L84.7036 65.4895C84.6854 65.6782 84.6702 65.8638 84.658 66.0464C84.6519 66.229 84.6489 66.442 84.6489 66.6855V67.8359C84.6489 68.1159 84.6519 68.3472 84.658 68.5298C84.6702 68.7124 84.6823 68.8281 84.6945 68.8768L85.3062 69.0046L85.288 69.3424H83.3159ZM84.3019 64.3299C84.1497 64.3299 84.0158 64.2782 83.9002 64.1747C83.7906 64.0712 83.7358 63.9434 83.7358 63.7913C83.7358 63.6391 83.7906 63.5113 83.9002 63.4078C84.0158 63.3043 84.1497 63.2526 84.3019 63.2526C84.4602 63.2526 84.591 63.3043 84.6945 63.4078C84.798 63.5113 84.8497 63.6391 84.8497 63.7913C84.8497 63.9434 84.798 64.0712 84.6945 64.1747C84.591 64.2782 84.4602 64.3299 84.3019 64.3299ZM87.8627 69.4154C87.467 69.4154 87.1201 69.3302 86.8218 69.1598C86.5297 68.9894 86.3014 68.752 86.1371 68.4476C85.9727 68.1372 85.8906 67.7842 85.8906 67.3885C85.8906 66.9746 85.9819 66.6155 86.1645 66.3112C86.3471 66.0068 86.5905 65.7695 86.8949 65.599C87.1992 65.4286 87.534 65.3434 87.8992 65.3434C88.2766 65.3434 88.6053 65.4286 88.8853 65.599C89.1713 65.7634 89.3905 65.9977 89.5426 66.3021C89.7009 66.6003 89.78 66.9503 89.78 67.352C89.78 67.7355 89.6948 68.0824 89.5244 68.3929C89.354 68.7033 89.1227 68.9529 88.8305 69.1415C88.5444 69.3241 88.2218 69.4154 87.8627 69.4154ZM87.954 68.9863C88.1609 68.9863 88.3405 68.9255 88.4927 68.8037C88.6448 68.6759 88.7635 68.5024 88.8487 68.2833C88.934 68.0581 88.9766 67.8024 88.9766 67.5164C88.9766 66.9929 88.867 66.5699 88.6479 66.2473C88.4348 65.9186 88.1518 65.7542 87.7988 65.7542C87.4701 65.7542 87.2053 65.8912 87.0044 66.1651C86.8097 66.439 86.7123 66.8012 86.7123 67.2516C86.7123 67.5925 86.764 67.8938 86.8675 68.1555C86.9771 68.4172 87.1262 68.6211 87.3149 68.7672C87.5036 68.9133 87.7166 68.9863 87.954 68.9863ZM90.4374 69.3424L90.4191 69.0137L90.9852 68.8768C90.9913 68.8342 90.9943 68.7763 90.9943 68.7033C91.0004 68.6303 91.0065 68.5298 91.0126 68.402C91.0187 68.2742 91.0217 68.1068 91.0217 67.8998L91.0309 67.1968C91.0309 66.9959 91.0217 66.7981 91.0035 66.6033C90.9913 66.4025 90.9761 66.2442 90.9578 66.1286L90.3735 66.0008V65.6995L91.5969 65.3616L91.7521 65.5077L91.7065 65.9916L91.7339 66.0008C91.9469 65.7695 92.1569 65.6021 92.3639 65.4986C92.5708 65.3951 92.796 65.3434 93.0395 65.3434C93.2647 65.3434 93.4747 65.4012 93.6695 65.5169C93.8704 65.6264 94.0317 65.7968 94.1534 66.0281C94.2812 66.2594 94.3451 66.5547 94.3451 66.9138V67.9272C94.3451 68.1464 94.3482 68.3442 94.3543 68.5207C94.3664 68.6972 94.3816 68.8159 94.3999 68.8768L94.966 69.0137L94.9386 69.3424H93.1034L93.0852 69.0137L93.6147 68.8768C93.6208 68.8281 93.6269 68.7672 93.633 68.6942C93.6391 68.6211 93.6421 68.5298 93.6421 68.4203C93.6482 68.3046 93.6512 68.1616 93.6512 67.9911V67.0051C93.6512 66.7312 93.6025 66.5151 93.5051 66.3568C93.4138 66.1925 93.2982 66.0768 93.1582 66.0099C93.0182 65.9368 92.8752 65.9003 92.7291 65.9003C92.5282 65.9003 92.3395 65.9521 92.163 66.0555C91.9926 66.1529 91.8465 66.2899 91.7248 66.4664V67.8359C91.7248 68.1159 91.7278 68.3442 91.7339 68.5207C91.7461 68.6911 91.7582 68.8098 91.7704 68.8768L92.3365 69.0137L92.3091 69.3424H90.4374ZM96.9655 69.4154C96.722 69.4154 96.5059 69.3668 96.3172 69.2694C96.1286 69.172 95.9794 69.0472 95.8699 68.895C95.7664 68.7429 95.7147 68.5846 95.7147 68.4203C95.7147 68.2133 95.7816 68.0429 95.9155 67.909C96.0494 67.7751 96.2686 67.6594 96.5729 67.562L97.9607 67.0964V66.6307C97.9607 66.4786 97.915 66.3416 97.8237 66.2199C97.7324 66.0921 97.6107 65.9916 97.4585 65.9186C97.3063 65.8455 97.1359 65.809 96.9472 65.809C96.7951 65.809 96.6916 65.8425 96.6368 65.9095C96.582 65.9703 96.5485 66.0951 96.5364 66.2838L96.5181 66.6673C96.299 66.716 96.1133 66.7099 95.9612 66.649C95.809 66.582 95.7329 66.4755 95.7329 66.3294C95.7329 66.226 95.7755 66.1225 95.8607 66.019C95.952 65.9155 96.0707 65.8182 96.2168 65.7269C96.3629 65.6295 96.5212 65.5473 96.6916 65.4803C96.862 65.4134 97.0294 65.3677 97.1937 65.3434C97.6442 65.3434 98.0033 65.4621 98.2711 65.6995C98.545 65.9368 98.685 66.2473 98.6911 66.6307L98.6728 68.1646C98.6728 68.2803 98.6759 68.3929 98.682 68.5024C98.6941 68.612 98.7094 68.6942 98.7276 68.7489L99.3119 68.8585V69.1415L98.8646 69.3059C98.7794 69.3363 98.7002 69.3607 98.6272 69.3789C98.5541 69.4033 98.4933 69.4154 98.4446 69.4154C98.2559 69.4154 98.1342 69.3089 98.0794 69.0959L97.9789 68.7398H98.1159C97.915 68.965 97.7203 69.1355 97.5316 69.2511C97.349 69.3607 97.1603 69.4154 96.9655 69.4154ZM97.212 68.8768C97.352 68.8768 97.4829 68.8463 97.6046 68.7855C97.7263 68.7185 97.845 68.6181 97.9607 68.4842V67.5255L96.9381 67.7994C96.792 67.8359 96.6855 67.8938 96.6185 67.9729C96.5577 68.052 96.5272 68.1524 96.5272 68.2742C96.5272 68.4263 96.5942 68.5663 96.7281 68.6942C96.8681 68.8159 97.0294 68.8768 97.212 68.8768ZM99.7593 69.3424L99.7411 69.0046L100.335 68.8768C100.347 68.8159 100.356 68.7155 100.362 68.5755C100.368 68.4355 100.371 68.2498 100.371 68.0185C100.377 67.7872 100.38 67.5042 100.38 67.1694V66.0281C100.38 65.7968 100.377 65.5595 100.371 65.316C100.371 65.0725 100.368 64.8443 100.362 64.6312C100.362 64.4121 100.359 64.2265 100.353 64.0743C100.353 63.916 100.35 63.8126 100.344 63.7639L99.668 63.6726L99.6498 63.3804L100.955 63.0061L101.129 63.1339C101.123 63.3895 101.117 63.6452 101.111 63.9008C101.105 64.1565 101.098 64.4395 101.092 64.7499C101.092 65.0603 101.092 65.4347 101.092 65.8729L101.083 67.3429C101.083 67.702 101.086 68.0277 101.092 68.3198C101.105 68.6059 101.117 68.7916 101.129 68.8768L101.722 69.0046L101.704 69.3424H99.7593ZM104.224 69.4154C103.871 69.4154 103.551 69.3363 103.265 69.1781C102.985 69.0198 102.76 68.7946 102.59 68.5024C102.425 68.2042 102.343 67.8542 102.343 67.4525C102.343 67.0203 102.431 66.646 102.608 66.3294C102.784 66.0129 103.016 65.7695 103.302 65.599C103.588 65.4225 103.895 65.3373 104.224 65.3434C104.699 65.3495 105.07 65.5077 105.338 65.8182C105.606 66.1286 105.74 66.5668 105.74 67.1329V67.2972H102.937V66.8955H105.137L105.037 67.0142V66.8225C105.037 66.4694 104.957 66.1986 104.799 66.0099C104.641 65.8212 104.425 65.7269 104.151 65.7269C103.981 65.7269 103.816 65.7786 103.658 65.8821C103.5 65.9795 103.372 66.1316 103.274 66.3386C103.177 66.5394 103.128 66.7951 103.128 67.1055V67.2151C103.128 67.7142 103.25 68.1037 103.494 68.3837C103.743 68.6637 104.063 68.8037 104.452 68.8037C104.665 68.8037 104.857 68.7611 105.027 68.6759C105.198 68.5907 105.362 68.4537 105.52 68.265L105.749 68.475C105.578 68.7916 105.362 69.0289 105.1 69.1872C104.839 69.3394 104.547 69.4154 104.224 69.4154ZM109.876 69.4246C109.614 69.4246 109.34 69.3911 109.054 69.3241C108.768 69.2572 108.536 69.172 108.36 69.0685L108.314 67.8907L108.707 67.8542L108.963 68.6668C109.109 68.7642 109.27 68.8402 109.446 68.895C109.623 68.9437 109.812 68.9681 110.013 68.9681C110.317 68.9681 110.557 68.895 110.734 68.7489C110.916 68.6029 111.008 68.405 111.008 68.1555C111.008 67.9424 110.944 67.7659 110.816 67.6259C110.688 67.4798 110.521 67.3551 110.314 67.2516C110.113 67.1481 109.897 67.0446 109.666 66.9412C109.44 66.8377 109.224 66.722 109.017 66.5942C108.816 66.4603 108.652 66.299 108.524 66.1103C108.396 65.9155 108.333 65.6751 108.333 65.389C108.333 65.0908 108.415 64.8321 108.579 64.613C108.743 64.3878 108.972 64.2112 109.264 64.0834C109.562 63.9556 109.9 63.8917 110.277 63.8917C110.436 63.8917 110.588 63.9008 110.734 63.9191C110.886 63.9312 111.026 63.9526 111.154 63.983C111.282 64.0134 111.397 64.053 111.501 64.1017L111.574 65.243L111.181 65.2795L110.926 64.5125C110.737 64.3908 110.487 64.3299 110.177 64.3299C109.866 64.3299 109.617 64.406 109.428 64.5582C109.246 64.7043 109.154 64.9021 109.154 65.1516C109.154 65.3708 109.218 65.5534 109.346 65.6995C109.48 65.8455 109.647 65.9734 109.848 66.0829C110.055 66.1925 110.271 66.299 110.496 66.4025C110.728 66.506 110.944 66.6216 111.145 66.7494C111.352 66.8773 111.519 67.0355 111.647 67.2242C111.781 67.4068 111.848 67.6351 111.848 67.909C111.848 68.2011 111.762 68.4629 111.592 68.6942C111.428 68.9194 111.196 69.0989 110.898 69.2328C110.6 69.3607 110.259 69.4246 109.876 69.4246ZM116.349 68.7033L116.924 68.8494V69.1507L115.737 69.4428L115.6 69.3241L115.609 68.7489L115.582 68.7398C115.405 68.9894 115.223 69.1659 115.034 69.2694C114.852 69.3668 114.654 69.4154 114.441 69.4154C114.033 69.4154 113.692 69.2907 113.418 69.0411C113.144 68.7855 113.007 68.405 113.007 67.8998V67.1146C113.007 66.9442 113.001 66.7799 112.989 66.6216C112.983 66.4573 112.974 66.2929 112.962 66.1286L112.341 66.0008V65.6995L113.582 65.3616L113.747 65.5077C113.735 65.6964 113.725 65.8973 113.719 66.1103C113.713 66.3234 113.71 66.5455 113.71 66.7768L113.701 67.7811C113.701 68.1585 113.789 68.4294 113.966 68.5937C114.142 68.752 114.368 68.8311 114.642 68.8311C114.806 68.8311 114.973 68.7885 115.144 68.7033C115.314 68.6181 115.463 68.472 115.591 68.265V67.2059C115.591 67.072 115.588 66.9412 115.582 66.8133C115.582 66.6794 115.579 66.5547 115.573 66.439C115.567 66.3173 115.558 66.2138 115.545 66.1286L114.879 66.0008V65.6995L116.166 65.3616L116.303 65.4895C116.297 65.6599 116.291 65.8121 116.285 65.946C116.285 66.0799 116.285 66.2138 116.285 66.3477C116.285 66.4755 116.285 66.6216 116.285 66.786V67.4342C116.285 67.769 116.291 68.0398 116.303 68.2468C116.321 68.4476 116.337 68.5998 116.349 68.7033ZM117.417 71.351L117.399 71.0224L117.965 70.8854C117.965 70.855 117.965 70.8002 117.965 70.7211C117.971 70.648 117.977 70.5506 117.983 70.4289C117.989 70.3072 117.992 70.1611 117.992 69.9907C117.998 69.8202 118.001 69.6224 118.001 69.3972L118.02 67.142C118.02 66.9594 118.011 66.7738 117.992 66.5851C117.98 66.3964 117.965 66.2442 117.947 66.1286L117.362 66.0008V65.6995L118.586 65.3616L118.741 65.5077L118.695 66.0099H118.723C118.893 65.7908 119.079 65.6264 119.28 65.5169C119.487 65.4012 119.709 65.3434 119.946 65.3434C120.281 65.3434 120.576 65.4286 120.832 65.599C121.094 65.7634 121.297 65.9916 121.444 66.2838C121.596 66.5699 121.672 66.9016 121.672 67.279C121.672 67.6807 121.58 68.0429 121.398 68.3655C121.215 68.6881 120.966 68.9437 120.649 69.1324C120.339 69.315 119.986 69.4063 119.59 69.4063C119.444 69.4063 119.292 69.3911 119.134 69.3607C118.975 69.3302 118.835 69.2937 118.714 69.2511V69.9359C118.714 70.1672 118.717 70.3619 118.723 70.5202C118.735 70.6845 118.744 70.8063 118.75 70.8854L119.499 71.0041L119.481 71.351H117.417ZM119.617 68.9589C119.861 68.9589 120.074 68.9011 120.257 68.7855C120.445 68.6698 120.591 68.4994 120.695 68.2742C120.804 68.049 120.862 67.7751 120.868 67.4525C120.874 67.1603 120.826 66.9016 120.722 66.6764C120.625 66.4512 120.485 66.2747 120.302 66.1468C120.126 66.0129 119.922 65.946 119.691 65.946C119.502 65.946 119.325 65.9916 119.161 66.0829C118.997 66.1681 118.848 66.296 118.714 66.4664V68.6759C118.835 68.7672 118.975 68.8372 119.134 68.8859C119.292 68.9346 119.453 68.9589 119.617 68.9589ZM124.32 69.4154C123.967 69.4154 123.647 69.3363 123.361 69.1781C123.081 69.0198 122.856 68.7946 122.685 68.5024C122.521 68.2042 122.439 67.8542 122.439 67.4525C122.439 67.0203 122.527 66.646 122.703 66.3294C122.88 66.0129 123.111 65.7695 123.397 65.599C123.683 65.4225 123.991 65.3373 124.32 65.3434C124.794 65.3495 125.166 65.5077 125.433 65.8182C125.701 66.1286 125.835 66.5668 125.835 67.1329V67.2972H123.032V66.8955H125.233L125.132 67.0142V66.8225C125.132 66.4694 125.053 66.1986 124.895 66.0099C124.736 65.8212 124.52 65.7269 124.246 65.7269C124.076 65.7269 123.912 65.7786 123.753 65.8821C123.595 65.9795 123.467 66.1316 123.37 66.3386C123.273 66.5394 123.224 66.7951 123.224 67.1055V67.2151C123.224 67.7142 123.346 68.1037 123.589 68.3837C123.839 68.6637 124.158 68.8037 124.548 68.8037C124.761 68.8037 124.953 68.7611 125.123 68.6759C125.293 68.5907 125.458 68.4537 125.616 68.265L125.844 68.475C125.674 68.7916 125.458 69.0289 125.196 69.1872C124.934 69.3394 124.642 69.4154 124.32 69.4154ZM126.465 69.3424L126.438 69.0137L127.004 68.8768C127.01 68.8463 127.016 68.7916 127.022 68.7124C127.028 68.6333 127.031 68.5268 127.031 68.3929C127.037 68.259 127.04 68.0946 127.04 67.8998L127.049 67.1877C127.049 66.9868 127.04 66.789 127.022 66.5942C127.01 66.3994 126.995 66.2442 126.976 66.1286L126.392 66.0008V65.6995L127.616 65.3616L127.743 65.4895L127.707 66.2564L127.734 66.2655C127.917 65.9125 128.102 65.6751 128.291 65.5534C128.48 65.4256 128.656 65.3616 128.821 65.3616C128.961 65.3616 129.076 65.3982 129.168 65.4712C129.265 65.5382 129.314 65.6416 129.314 65.7816C129.314 65.9277 129.262 66.0403 129.159 66.1194C129.061 66.1925 128.936 66.229 128.784 66.229C128.675 66.229 128.568 66.2047 128.465 66.156C128.367 66.1073 128.273 66.0403 128.182 65.9551L128.346 66.0099C128.23 66.0829 128.121 66.1864 128.017 66.3203C127.914 66.4481 127.819 66.6094 127.734 66.8042L127.743 67.6533C127.749 67.8055 127.756 67.9637 127.762 68.1281C127.768 68.2924 127.774 68.4416 127.78 68.5755C127.786 68.7033 127.792 68.8037 127.798 68.8768L128.592 68.9955L128.574 69.3424H126.465ZM129.734 69.3424L129.715 69.0046L130.327 68.8768C130.333 68.8524 130.336 68.8098 130.336 68.7489C130.342 68.6881 130.349 68.5907 130.355 68.4568C130.361 68.3229 130.364 68.1372 130.364 67.8998V67.2972C130.364 67.0477 130.358 66.8194 130.345 66.6125C130.333 66.4055 130.318 66.2442 130.3 66.1286L129.688 66.0008V65.6995L130.985 65.3616L131.122 65.4895C131.103 65.6782 131.088 65.8638 131.076 66.0464C131.07 66.229 131.067 66.442 131.067 66.6855V67.8359C131.067 68.1159 131.07 68.3472 131.076 68.5298C131.088 68.7124 131.1 68.8281 131.112 68.8768L131.724 69.0046L131.706 69.3424H129.734ZM130.72 64.3299C130.568 64.3299 130.434 64.2782 130.318 64.1747C130.209 64.0712 130.154 63.9434 130.154 63.7913C130.154 63.6391 130.209 63.5113 130.318 63.4078C130.434 63.3043 130.568 63.2526 130.72 63.2526C130.878 63.2526 131.009 63.3043 131.112 63.4078C131.216 63.5113 131.268 63.6391 131.268 63.7913C131.268 63.9434 131.216 64.0712 131.112 64.1747C131.009 64.2782 130.878 64.3299 130.72 64.3299ZM134.198 69.4154C133.845 69.4154 133.526 69.3363 133.24 69.1781C132.96 69.0198 132.735 68.7946 132.564 68.5024C132.4 68.2042 132.318 67.8542 132.318 67.4525C132.318 67.0203 132.406 66.646 132.582 66.3294C132.759 66.0129 132.99 65.7695 133.276 65.599C133.562 65.4225 133.87 65.3373 134.198 65.3434C134.673 65.3495 135.044 65.5077 135.312 65.8182C135.58 66.1286 135.714 66.5668 135.714 67.1329V67.2972H132.911V66.8955H135.111L135.011 67.0142V66.8225C135.011 66.4694 134.932 66.1986 134.774 66.0099C134.615 65.8212 134.399 65.7269 134.125 65.7269C133.955 65.7269 133.791 65.7786 133.632 65.8821C133.474 65.9795 133.346 66.1316 133.249 66.3386C133.151 66.5394 133.103 66.7951 133.103 67.1055V67.2151C133.103 67.7142 133.225 68.1037 133.468 68.3837C133.718 68.6637 134.037 68.8037 134.427 68.8037C134.64 68.8037 134.831 68.7611 135.002 68.6759C135.172 68.5907 135.337 68.4537 135.495 68.265L135.723 68.475C135.553 68.7916 135.337 69.0289 135.075 69.1872C134.813 69.3394 134.521 69.4154 134.198 69.4154ZM140.197 68.7033L140.772 68.8494V69.1507L139.585 69.4428L139.448 69.3241L139.457 68.7489L139.43 68.7398C139.253 68.9894 139.071 69.1659 138.882 69.2694C138.7 69.3668 138.502 69.4154 138.289 69.4154C137.881 69.4154 137.54 69.2907 137.266 69.0411C136.992 68.7855 136.855 68.405 136.855 67.8998V67.1146C136.855 66.9442 136.849 66.7799 136.837 66.6216C136.831 66.4573 136.822 66.2929 136.81 66.1286L136.189 66.0008V65.6995L137.43 65.3616L137.595 65.5077C137.583 65.6964 137.574 65.8973 137.567 66.1103C137.561 66.3234 137.558 66.5455 137.558 66.7768L137.549 67.7811C137.549 68.1585 137.637 68.4294 137.814 68.5937C137.99 68.752 138.216 68.8311 138.49 68.8311C138.654 68.8311 138.821 68.7885 138.992 68.7033C139.162 68.6181 139.311 68.472 139.439 68.265V67.2059C139.439 67.072 139.436 66.9412 139.43 66.8133C139.43 66.6794 139.427 66.5547 139.421 66.439C139.415 66.3173 139.406 66.2138 139.393 66.1286L138.727 66.0008V65.6995L140.014 65.3616L140.151 65.4895C140.145 65.6599 140.139 65.8121 140.133 65.946C140.133 66.0799 140.133 66.2138 140.133 66.3477C140.133 66.4755 140.133 66.6216 140.133 66.786V67.4342C140.133 67.769 140.139 68.0398 140.151 68.2468C140.17 68.4476 140.185 68.5998 140.197 68.7033ZM141.302 69.3424L141.274 69.0137L141.84 68.8768C141.846 68.8463 141.853 68.7916 141.859 68.7124C141.865 68.6333 141.868 68.5268 141.868 68.3929C141.874 68.259 141.877 68.0946 141.877 67.8998L141.886 67.1877C141.886 66.9868 141.877 66.789 141.859 66.5942C141.846 66.3994 141.831 66.2442 141.813 66.1286L141.229 66.0008V65.6995L142.452 65.3616L142.58 65.4895L142.543 66.2564L142.571 66.2655C142.753 65.9125 142.939 65.6751 143.128 65.5534C143.316 65.4256 143.493 65.3616 143.657 65.3616C143.797 65.3616 143.913 65.3982 144.004 65.4712C144.102 65.5382 144.15 65.6416 144.15 65.7816C144.15 65.9277 144.099 66.0403 143.995 66.1194C143.898 66.1925 143.773 66.229 143.621 66.229C143.511 66.229 143.405 66.2047 143.301 66.156C143.204 66.1073 143.109 66.0403 143.018 65.9551L143.183 66.0099C143.067 66.0829 142.957 66.1864 142.854 66.3203C142.75 66.4481 142.656 66.6094 142.571 66.8042L142.58 67.6533C142.586 67.8055 142.592 67.9637 142.598 68.1281C142.604 68.2924 142.61 68.4416 142.616 68.5755C142.623 68.7033 142.629 68.8037 142.635 68.8768L143.429 68.9955L143.411 69.3424H141.302ZM146.387 69.4154C146.034 69.4154 145.715 69.3363 145.429 69.1781C145.149 69.0198 144.923 68.7946 144.753 68.5024C144.589 68.2042 144.506 67.8542 144.506 67.4525C144.506 67.0203 144.595 66.646 144.771 66.3294C144.948 66.0129 145.179 65.7695 145.465 65.599C145.751 65.4225 146.059 65.3373 146.387 65.3434C146.862 65.3495 147.233 65.5077 147.501 65.8182C147.769 66.1286 147.903 66.5668 147.903 67.1329V67.2972H145.1V66.8955H147.3L147.2 67.0142V66.8225C147.2 66.4694 147.121 66.1986 146.962 66.0099C146.804 65.8212 146.588 65.7269 146.314 65.7269C146.144 65.7269 145.979 65.7786 145.821 65.8821C145.663 65.9795 145.535 66.1316 145.438 66.3386C145.34 66.5394 145.292 66.7951 145.292 67.1055V67.2151C145.292 67.7142 145.413 68.1037 145.657 68.3837C145.906 68.6637 146.226 68.8037 146.615 68.8037C146.829 68.8037 147.02 68.7611 147.191 68.6759C147.361 68.5907 147.525 68.4537 147.684 68.265L147.912 68.475C147.742 68.7916 147.525 69.0289 147.264 69.1872C147.002 69.3394 146.71 69.4154 146.387 69.4154ZM153.481 69.4428L153.344 69.3241L153.354 68.7307L153.326 68.7216C153.144 68.9772 152.955 69.1568 152.76 69.2602C152.571 69.3637 152.371 69.4154 152.157 69.4154C151.811 69.4154 151.5 69.3363 151.226 69.1781C150.958 69.0137 150.745 68.7885 150.587 68.5024C150.429 68.2164 150.35 67.8877 150.35 67.5164C150.35 67.1938 150.404 66.8986 150.514 66.6307C150.624 66.3629 150.773 66.1347 150.961 65.946C151.156 65.7512 151.375 65.6021 151.619 65.4986C151.862 65.3951 152.115 65.3434 152.377 65.3434C152.547 65.3434 152.721 65.3647 152.897 65.4073C153.074 65.4499 153.223 65.5169 153.344 65.6082C153.344 65.4986 153.341 65.3556 153.335 65.179C153.335 65.0025 153.332 64.8199 153.326 64.6312C153.326 64.4365 153.323 64.266 153.317 64.1199C153.317 63.9678 153.314 63.8643 153.308 63.8095L152.596 63.6817L152.577 63.3804L153.92 63.0061L154.084 63.1339C154.072 63.5113 154.063 63.8765 154.057 64.2295C154.05 64.5825 154.047 64.9508 154.047 65.3343L154.038 67.4342C154.038 67.7446 154.044 68.0124 154.057 68.2377C154.075 68.4568 154.087 68.612 154.093 68.7033L154.677 68.8494V69.1507L153.481 69.4428ZM152.386 68.8037C152.562 68.8037 152.727 68.7672 152.879 68.6942C153.031 68.615 153.186 68.4781 153.344 68.2833V66.3203C153.229 66.1134 153.083 65.9673 152.906 65.8821C152.73 65.7968 152.553 65.7542 152.377 65.7542C151.993 65.7542 151.692 65.8973 151.473 66.1834C151.26 66.4634 151.153 66.8286 151.153 67.279C151.153 67.7598 151.272 68.1342 151.509 68.402C151.753 68.6698 152.045 68.8037 152.386 68.8037ZM155.344 65.599L155.207 65.3343C155.45 65.2247 155.636 65.0938 155.764 64.9417C155.898 64.7834 155.965 64.6008 155.965 64.3938C155.965 64.2965 155.947 64.2173 155.91 64.1565C155.88 64.0956 155.84 64.0439 155.791 64.0012C155.743 63.9586 155.694 63.916 155.645 63.8734C155.597 63.8247 155.554 63.7699 155.517 63.7091C155.487 63.6421 155.472 63.56 155.472 63.4626C155.472 63.3287 155.52 63.213 155.618 63.1156C155.721 63.0182 155.852 62.9695 156.01 62.9695C156.12 62.9695 156.22 63 156.312 63.0608C156.409 63.1217 156.485 63.213 156.54 63.3347C156.601 63.4565 156.631 63.6117 156.631 63.8004C156.631 64.0439 156.577 64.2873 156.467 64.5308C156.357 64.7682 156.205 64.9812 156.01 65.1699C155.816 65.3586 155.593 65.5016 155.344 65.599ZM157.581 69.3424L157.563 68.9955L158.12 68.8676C158.132 68.8372 158.138 68.7672 158.138 68.6576C158.144 68.5481 158.147 68.399 158.147 68.2103C158.153 68.0216 158.156 67.7933 158.156 67.5255V65.809C158.156 65.5351 158.153 65.3038 158.147 65.1151C158.147 64.9204 158.144 64.7682 158.138 64.6586C158.138 64.5491 158.132 64.4821 158.12 64.4578L157.563 64.3299L157.581 63.983H159.526L159.544 64.3299L158.987 64.4578C158.975 64.476 158.963 64.5369 158.95 64.6404C158.944 64.7377 158.938 64.8838 158.932 65.0786C158.932 65.2673 158.932 65.5108 158.932 65.809V67.5255C158.932 67.8177 158.932 68.0581 158.932 68.2468C158.938 68.4355 158.944 68.5816 158.95 68.685C158.963 68.7824 158.975 68.8433 158.987 68.8676L159.544 68.9955L159.526 69.3424H157.581ZM160.247 69.3424L160.229 69.0137L160.795 68.8768C160.801 68.8342 160.804 68.7763 160.804 68.7033C160.81 68.6303 160.816 68.5298 160.822 68.402C160.828 68.2742 160.831 68.1068 160.831 67.8998L160.84 67.1968C160.84 66.9959 160.831 66.7981 160.813 66.6033C160.801 66.4025 160.786 66.2442 160.767 66.1286L160.183 66.0008V65.6995L161.406 65.3616L161.562 65.5077L161.516 65.9916L161.543 66.0008C161.756 65.7695 161.966 65.6021 162.173 65.4986C162.38 65.3951 162.605 65.3434 162.849 65.3434C163.074 65.3434 163.284 65.4012 163.479 65.5169C163.68 65.6264 163.841 65.7968 163.963 66.0281C164.091 66.2594 164.155 66.5547 164.155 66.9138V67.9272C164.155 68.1464 164.158 68.3442 164.164 68.5207C164.176 68.6972 164.191 68.8159 164.209 68.8768L164.775 69.0137L164.748 69.3424H162.913L162.895 69.0137L163.424 68.8768C163.43 68.8281 163.436 68.7672 163.442 68.6942C163.448 68.6211 163.452 68.5298 163.452 68.4203C163.458 68.3046 163.461 68.1616 163.461 67.9911V67.0051C163.461 66.7312 163.412 66.5151 163.315 66.3568C163.223 66.1925 163.108 66.0768 162.968 66.0099C162.828 65.9368 162.685 65.9003 162.539 65.9003C162.338 65.9003 162.149 65.9521 161.972 66.0555C161.802 66.1529 161.656 66.2899 161.534 66.4664V67.8359C161.534 68.1159 161.537 68.3442 161.543 68.5207C161.556 68.6911 161.568 68.8098 161.58 68.8768L162.146 69.0137L162.119 69.3424H160.247ZM167.323 69.3424H165.305L165.278 69.0137L165.844 68.8768C165.85 68.8159 165.853 68.752 165.853 68.685C165.859 68.612 165.862 68.5268 165.862 68.4294C165.862 68.3259 165.862 68.2042 165.862 68.0642C165.862 67.9181 165.862 67.7416 165.862 67.5346L165.853 65.8912V64.8504C165.853 64.4608 165.914 64.126 166.035 63.846C166.157 63.566 166.328 63.35 166.547 63.1978C166.766 63.0456 167.021 62.9695 167.314 62.9695C167.563 62.9695 167.77 63.0243 167.934 63.1339C168.099 63.2434 168.181 63.3773 168.181 63.5356C168.181 63.6208 168.151 63.6908 168.09 63.7456C168.035 63.7943 167.965 63.8186 167.88 63.8186C167.728 63.8186 167.584 63.7517 167.451 63.6178L167.031 63.216L167.25 63.2708C167.024 63.2708 166.851 63.3865 166.729 63.6178C166.608 63.8491 166.547 64.1747 166.547 64.5947V65.4347L166.556 65.8912L166.565 67.4616C166.565 67.7233 166.568 67.9881 166.574 68.2559C166.58 68.5237 166.586 68.7307 166.592 68.8768L167.341 68.9955L167.323 69.3424ZM165.195 65.8912V65.5899L165.853 65.4347H166.528H167.56V65.8912H165.195ZM170.053 69.4154C169.657 69.4154 169.31 69.3302 169.012 69.1598C168.72 68.9894 168.491 68.752 168.327 68.4476C168.163 68.1372 168.081 67.7842 168.081 67.3885C168.081 66.9746 168.172 66.6155 168.354 66.3112C168.537 66.0068 168.781 65.7695 169.085 65.599C169.389 65.4286 169.724 65.3434 170.089 65.3434C170.467 65.3434 170.795 65.4286 171.075 65.599C171.361 65.7634 171.58 65.9977 171.733 66.3021C171.891 66.6003 171.97 66.9503 171.97 67.352C171.97 67.7355 171.885 68.0824 171.714 68.3929C171.544 68.7033 171.313 68.9529 171.02 69.1415C170.734 69.3241 170.412 69.4154 170.053 69.4154ZM170.144 68.9863C170.351 68.9863 170.53 68.9255 170.683 68.8037C170.835 68.6759 170.954 68.5024 171.039 68.2833C171.124 68.0581 171.167 67.8024 171.167 67.5164C171.167 66.9929 171.057 66.5699 170.838 66.2473C170.625 65.9186 170.342 65.7542 169.989 65.7542C169.66 65.7542 169.395 65.8912 169.194 66.1651C169 66.439 168.902 66.8012 168.902 67.2516C168.902 67.5925 168.954 67.8938 169.057 68.1555C169.167 68.4172 169.316 68.6211 169.505 68.7672C169.694 68.9133 169.907 68.9863 170.144 68.9863ZM172.646 69.3424L172.618 69.0137L173.184 68.8768C173.19 68.8463 173.196 68.7916 173.203 68.7124C173.209 68.6333 173.212 68.5268 173.212 68.3929C173.218 68.259 173.221 68.0946 173.221 67.8998L173.23 67.1877C173.23 66.9868 173.221 66.789 173.203 66.5942C173.19 66.3994 173.175 66.2442 173.157 66.1286L172.573 66.0008V65.6995L173.796 65.3616L173.924 65.4895L173.887 66.2564L173.915 66.2655C174.097 65.9125 174.283 65.6751 174.472 65.5534C174.66 65.4256 174.837 65.3616 175.001 65.3616C175.141 65.3616 175.257 65.3982 175.348 65.4712C175.446 65.5382 175.494 65.6416 175.494 65.7816C175.494 65.9277 175.443 66.0403 175.339 66.1194C175.242 66.1925 175.117 66.229 174.965 66.229C174.855 66.229 174.749 66.2047 174.645 66.156C174.548 66.1073 174.453 66.0403 174.362 65.9551L174.526 66.0099C174.411 66.0829 174.301 66.1864 174.198 66.3203C174.094 66.4481 174 66.6094 173.915 66.8042L173.924 67.6533C173.93 67.8055 173.936 67.9637 173.942 68.1281C173.948 68.2924 173.954 68.4416 173.96 68.5755C173.966 68.7033 173.973 68.8037 173.979 68.8768L174.773 68.9955L174.755 69.3424H172.646ZM175.96 69.3424L175.942 69.0137L176.508 68.8768C176.514 68.8342 176.517 68.7794 176.517 68.7124C176.523 68.6455 176.529 68.5481 176.535 68.4203C176.541 68.2924 176.544 68.119 176.544 67.8998L176.553 67.1877C176.559 67.0599 176.556 66.929 176.544 66.7951C176.538 66.6612 176.529 66.5364 176.517 66.4207C176.505 66.299 176.493 66.2016 176.48 66.1286L175.896 66.0008V65.6995L177.119 65.3616L177.275 65.5077L177.229 66.0008L177.256 66.0099C177.445 65.7725 177.64 65.6021 177.841 65.4986C178.048 65.3951 178.258 65.3434 178.471 65.3434C178.684 65.3434 178.891 65.4012 179.092 65.5169C179.292 65.6325 179.457 65.809 179.585 66.0464C179.719 66.2838 179.785 66.5881 179.785 66.9594L179.795 67.9272C179.795 68.1464 179.798 68.3442 179.804 68.5207C179.816 68.6911 179.831 68.8098 179.849 68.8768L180.397 69.0137L180.37 69.3424H178.589L178.562 69.0137L179.064 68.8768C179.07 68.8281 179.076 68.7672 179.082 68.6942C179.089 68.6211 179.092 68.5298 179.092 68.4203C179.098 68.3046 179.101 68.1616 179.101 67.9911L179.092 66.9868C179.092 66.7251 179.049 66.5151 178.964 66.3568C178.885 66.1986 178.778 66.0829 178.644 66.0099C178.51 65.9368 178.367 65.9003 178.215 65.9003C178.026 65.9003 177.85 65.946 177.686 66.0373C177.521 66.1286 177.375 66.2716 177.247 66.4664V67.8359C177.247 68.1159 177.25 68.3442 177.256 68.5207C177.269 68.6911 177.281 68.8098 177.293 68.8768L177.832 69.0137L177.804 69.3424H175.96ZM181.109 69.3424L181.082 69.0137L181.602 68.8768C181.608 68.8281 181.611 68.7672 181.611 68.6942C181.618 68.6211 181.624 68.5298 181.63 68.4203C181.636 68.3046 181.639 68.1616 181.639 67.9911V66.9959C181.639 66.7281 181.593 66.5151 181.502 66.3568C181.411 66.1986 181.295 66.0829 181.155 66.0099C181.021 65.9368 180.884 65.9003 180.744 65.9003C180.537 65.9003 180.345 65.9521 180.169 66.0555C179.992 66.159 179.834 66.3173 179.694 66.5303L179.521 66.1925C179.734 65.9003 179.959 65.6873 180.196 65.5534C180.44 65.4134 180.695 65.3434 180.963 65.3434C181.219 65.3434 181.45 65.4043 181.657 65.526C181.864 65.6477 182.028 65.8242 182.15 66.0555C182.272 66.2868 182.333 66.5668 182.333 66.8955V67.9272C182.333 68.1464 182.336 68.3442 182.342 68.5207C182.354 68.6911 182.366 68.8098 182.378 68.8768L182.945 69.0137L182.926 69.3424H181.109ZM184.971 69.4154C184.728 69.4154 184.512 69.3668 184.323 69.2694C184.134 69.172 183.985 69.0472 183.876 68.895C183.772 68.7429 183.721 68.5846 183.721 68.4203C183.721 68.2133 183.788 68.0429 183.921 67.909C184.055 67.7751 184.274 67.6594 184.579 67.562L185.967 67.0964V66.6307C185.967 66.4786 185.921 66.3416 185.83 66.2199C185.738 66.0921 185.617 65.9916 185.464 65.9186C185.312 65.8455 185.142 65.809 184.953 65.809C184.801 65.809 184.697 65.8425 184.643 65.9095C184.588 65.9703 184.554 66.0951 184.542 66.2838L184.524 66.6673C184.305 66.716 184.119 66.7099 183.967 66.649C183.815 66.582 183.739 66.4755 183.739 66.3294C183.739 66.226 183.781 66.1225 183.867 66.019C183.958 65.9155 184.077 65.8182 184.223 65.7269C184.369 65.6295 184.527 65.5473 184.697 65.4803C184.868 65.4134 185.035 65.3677 185.2 65.3434C185.65 65.3434 186.009 65.4621 186.277 65.6995C186.551 65.9368 186.691 66.2473 186.697 66.6307L186.679 68.1646C186.679 68.2803 186.682 68.3929 186.688 68.5024C186.7 68.612 186.715 68.6942 186.734 68.7489L187.318 68.8585V69.1415L186.87 69.3059C186.785 69.3363 186.706 69.3607 186.633 69.3789C186.56 69.4033 186.499 69.4154 186.45 69.4154C186.262 69.4154 186.14 69.3089 186.085 69.0959L185.985 68.7398H186.122C185.921 68.965 185.726 69.1355 185.537 69.2511C185.355 69.3607 185.166 69.4154 184.971 69.4154ZM185.218 68.8768C185.358 68.8768 185.489 68.8463 185.611 68.7855C185.732 68.7185 185.851 68.6181 185.967 68.4842V67.5255L184.944 67.7994C184.798 67.8359 184.691 67.8938 184.624 67.9729C184.564 68.052 184.533 68.1524 184.533 68.2742C184.533 68.4263 184.6 68.5663 184.734 68.6942C184.874 68.8159 185.035 68.8768 185.218 68.8768ZM190.66 68.7763C190.544 68.9772 190.386 69.1355 190.185 69.2511C189.984 69.3607 189.774 69.4154 189.555 69.4154C189.183 69.4154 188.879 69.3028 188.642 69.0776C188.404 68.8524 188.286 68.5146 188.286 68.0642L188.313 65.8821H187.674V65.6903L188.852 64.6221H189.025L189.007 65.6721L188.998 67.9181C188.998 68.2346 189.065 68.469 189.199 68.6211C189.339 68.7733 189.533 68.8494 189.783 68.8494C189.923 68.8494 190.051 68.822 190.166 68.7672C190.288 68.7124 190.398 68.6394 190.495 68.5481L190.66 68.7763ZM188.678 65.8821V65.4256H190.386V65.8821H188.678ZM190.851 69.3424L190.833 69.0046L191.445 68.8768C191.451 68.8524 191.454 68.8098 191.454 68.7489C191.46 68.6881 191.466 68.5907 191.472 68.4568C191.478 68.3229 191.481 68.1372 191.481 67.8998V67.2972C191.481 67.0477 191.475 66.8194 191.463 66.6125C191.451 66.4055 191.436 66.2442 191.417 66.1286L190.806 66.0008V65.6995L192.102 65.3616L192.239 65.4895C192.221 65.6782 192.206 65.8638 192.193 66.0464C192.187 66.229 192.184 66.442 192.184 66.6855V67.8359C192.184 68.1159 192.187 68.3472 192.193 68.5298C192.206 68.7124 192.218 68.8281 192.23 68.8768L192.842 69.0046L192.823 69.3424H190.851ZM191.837 64.3299C191.685 64.3299 191.551 64.2782 191.436 64.1747C191.326 64.0712 191.271 63.9434 191.271 63.7913C191.271 63.6391 191.326 63.5113 191.436 63.4078C191.551 63.3043 191.685 63.2526 191.837 63.2526C191.996 63.2526 192.126 63.3043 192.23 63.4078C192.333 63.5113 192.385 63.6391 192.385 63.7913C192.385 63.9434 192.333 64.0712 192.23 64.1747C192.126 64.2782 191.996 64.3299 191.837 64.3299ZM195.763 71.351L195.736 71.0224L196.393 70.8854C196.399 70.8063 196.402 70.7272 196.402 70.648C196.408 70.575 196.412 70.4776 196.412 70.3559C196.418 70.2402 196.421 70.082 196.421 69.8811L196.412 68.7489L196.384 68.7398C196.214 68.9711 196.031 69.1415 195.836 69.2511C195.642 69.3607 195.438 69.4154 195.225 69.4154C194.865 69.4154 194.552 69.3363 194.284 69.1781C194.016 69.0137 193.806 68.7885 193.654 68.5024C193.508 68.2164 193.435 67.8877 193.435 67.5164C193.435 67.0477 193.536 66.652 193.736 66.3294C193.943 66.0068 194.205 65.7634 194.522 65.599C194.844 65.4286 195.173 65.3434 195.508 65.3434C195.702 65.3434 195.888 65.3647 196.065 65.4073C196.241 65.4499 196.405 65.5138 196.558 65.599L196.841 65.3251H197.124C197.118 65.5321 197.112 65.7421 197.105 65.9551C197.099 66.1681 197.096 66.3964 197.096 66.6399C197.096 66.8773 197.096 67.142 197.096 67.4342L197.124 69.5707C197.13 69.9602 197.136 70.2585 197.142 70.4654C197.154 70.6724 197.163 70.8124 197.169 70.8854L197.735 71.0224L197.708 71.351H195.763ZM195.444 68.8037C195.626 68.8037 195.791 68.7672 195.937 68.6942C196.083 68.615 196.235 68.4781 196.393 68.2833L196.402 66.2199C196.287 66.0555 196.141 65.9368 195.964 65.8638C195.794 65.7908 195.626 65.7542 195.462 65.7542C195.249 65.7542 195.048 65.8121 194.859 65.9277C194.671 66.0373 194.519 66.2047 194.403 66.4299C194.287 66.6551 194.229 66.9381 194.229 67.279C194.229 67.7598 194.342 68.1342 194.567 68.402C194.799 68.6698 195.091 68.8037 195.444 68.8037ZM201.99 68.7033L202.565 68.8494V69.1507L201.378 69.4428L201.241 69.3241L201.251 68.7489L201.223 68.7398C201.047 68.9894 200.864 69.1659 200.675 69.2694C200.493 69.3668 200.295 69.4154 200.082 69.4154C199.674 69.4154 199.333 69.2907 199.059 69.0411C198.785 68.7855 198.648 68.405 198.648 67.8998V67.1146C198.648 66.9442 198.642 66.7799 198.63 66.6216C198.624 66.4573 198.615 66.2929 198.603 66.1286L197.982 66.0008V65.6995L199.224 65.3616L199.388 65.5077C199.376 65.6964 199.367 65.8973 199.361 66.1103C199.354 66.3234 199.351 66.5455 199.351 66.7768L199.342 67.7811C199.342 68.1585 199.431 68.4294 199.607 68.5937C199.784 68.752 200.009 68.8311 200.283 68.8311C200.447 68.8311 200.614 68.7885 200.785 68.7033C200.955 68.6181 201.104 68.472 201.232 68.265V67.2059C201.232 67.072 201.229 66.9412 201.223 66.8133C201.223 66.6794 201.22 66.5547 201.214 66.439C201.208 66.3173 201.199 66.2138 201.187 66.1286L200.52 66.0008V65.6995L201.807 65.3616L201.944 65.4895C201.938 65.6599 201.932 65.8121 201.926 65.946C201.926 66.0799 201.926 66.2138 201.926 66.3477C201.926 66.4755 201.926 66.6216 201.926 66.786V67.4342C201.926 67.769 201.932 68.0398 201.944 68.2468C201.963 68.4476 201.978 68.5998 201.99 68.7033ZM205.058 69.4154C204.705 69.4154 204.385 69.3363 204.099 69.1781C203.819 69.0198 203.594 68.7946 203.424 68.5024C203.259 68.2042 203.177 67.8542 203.177 67.4525C203.177 67.0203 203.265 66.646 203.442 66.3294C203.618 66.0129 203.85 65.7695 204.136 65.599C204.422 65.4225 204.729 65.3373 205.058 65.3434C205.533 65.3495 205.904 65.5077 206.172 65.8182C206.44 66.1286 206.573 66.5668 206.573 67.1329V67.2972H203.77V66.8955H205.971L205.87 67.0142V66.8225C205.87 66.4694 205.791 66.1986 205.633 66.0099C205.475 65.8212 205.259 65.7269 204.985 65.7269C204.814 65.7269 204.65 65.7786 204.492 65.8821C204.333 65.9795 204.206 66.1316 204.108 66.3386C204.011 66.5394 203.962 66.7951 203.962 67.1055V67.2151C203.962 67.7142 204.084 68.1037 204.327 68.3837C204.577 68.6637 204.897 68.8037 205.286 68.8037C205.499 68.8037 205.691 68.7611 205.861 68.6759C206.032 68.5907 206.196 68.4537 206.354 68.265L206.583 68.475C206.412 68.7916 206.196 69.0289 205.934 69.1872C205.673 69.3394 205.38 69.4154 205.058 69.4154ZM207.076 62.6865C207.782 63.2526 208.308 63.9069 208.655 64.6495C209.008 65.3921 209.185 66.1955 209.185 67.0599C209.185 67.9242 209.008 68.7246 208.655 69.4611C208.308 70.1976 207.782 70.855 207.076 71.4332L206.811 71.1958C207.316 70.6906 207.699 70.082 207.961 69.3698C208.223 68.6637 208.354 67.8938 208.354 67.0599C208.354 66.226 208.223 65.456 207.961 64.7499C207.699 64.0378 207.316 63.4291 206.811 62.9239L207.076 62.6865Z" fill="white"/>
<defs>
<linearGradient id="paint0_linear_496_539" x1="28.2784" y1="9" x2="123.605" y2="148.006" gradientUnits="userSpaceOnUse">
<stop stop-color="#A36514"/>
<stop offset="1" stop-color="#623D0D"/>
</linearGradient>
<linearGradient id="paint1_linear_496_539" x1="13.2405" y1="43.2814" x2="14.2685" y2="43.3281" gradientUnits="userSpaceOnUse">
<stop stop-color="#A36514"/>
<stop offset="1" stop-color="#623D0D"/>
</linearGradient>
<linearGradient id="paint2_linear_496_539" x1="15.1882" y1="43.2788" x2="16.2163" y2="43.3254" gradientUnits="userSpaceOnUse">
<stop stop-color="#A36514"/>
<stop offset="1" stop-color="#623D0D"/>
</linearGradient>
<linearGradient id="paint3_linear_496_539" x1="17.136" y1="43.2788" x2="18.164" y2="43.3254" gradientUnits="userSpaceOnUse">
<stop stop-color="#A36514"/>
<stop offset="1" stop-color="#623D0D"/>
</linearGradient>
<linearGradient id="paint4_linear_496_539" x1="13.2405" y1="45.233" x2="14.2685" y2="45.2799" gradientUnits="userSpaceOnUse">
<stop stop-color="#A36514"/>
<stop offset="1" stop-color="#623D0D"/>
</linearGradient>
<linearGradient id="paint5_linear_496_539" x1="15.1882" y1="45.233" x2="16.2162" y2="45.2799" gradientUnits="userSpaceOnUse">
<stop stop-color="#A36514"/>
<stop offset="1" stop-color="#623D0D"/>
</linearGradient>
<linearGradient id="paint6_linear_496_539" x1="17.136" y1="45.2256" x2="18.164" y2="45.2721" gradientUnits="userSpaceOnUse">
<stop stop-color="#A36514"/>
<stop offset="1" stop-color="#623D0D"/>
</linearGradient>
<linearGradient id="paint7_linear_496_539" x1="11.1467" y1="40.9631" x2="18.4098" y2="45.0198" gradientUnits="userSpaceOnUse">
<stop stop-color="#A36514"/>
<stop offset="1" stop-color="#623D0D"/>
</linearGradient>
<linearGradient id="paint8_linear_496_539" x1="10.9019" y1="37.8523" x2="20.9263" y2="38.2949" gradientUnits="userSpaceOnUse">
<stop stop-color="#A36514"/>
<stop offset="1" stop-color="#623D0D"/>
</linearGradient>
<linearGradient id="paint9_linear_496_539" x1="13.7823" y1="60.9263" x2="17.7608" y2="61.1067" gradientUnits="userSpaceOnUse">
<stop stop-color="#A36514"/>
<stop offset="1" stop-color="#623D0D"/>
</linearGradient>
<linearGradient id="paint10_linear_496_539" x1="11.085" y1="58.0381" x2="20.7324" y2="58.4191" gradientUnits="userSpaceOnUse">
<stop stop-color="#A36514"/>
<stop offset="1" stop-color="#623D0D"/>
</linearGradient>
</defs>
</svg>
