<svg width="240" height="96" viewBox="0 0 240 96" fill="none" xmlns="http://www.w3.org/2000/svg">
<path d="M76.8902 44.1503C76.8614 44.6845 76.738 45.192 76.5363 45.6569L76.4147 45.9156L76.1022 46.5823L75.8203 47.184L70.913 57.6418L70.8833 57.704L70.8779 57.7165C70.8166 57.8631 70.7788 58.0214 70.7698 58.1885C70.768 58.2143 70.768 58.2391 70.768 58.2649V64.1849H70.7671C70.7671 64.2454 70.7662 64.3067 70.7626 64.368C70.7527 64.5476 70.7293 64.7236 70.6923 64.8943C70.4582 65.9858 69.6963 66.8747 68.693 67.312C68.2049 67.5245 67.6582 67.6303 67.089 67.6C66.6306 67.576 66.1975 67.4658 65.8048 67.2871C64.9285 66.8889 64.2549 66.1467 63.9523 65.248C63.855 64.9574 63.7965 64.6498 63.783 64.3316V58C63.783 57.7965 63.7884 57.592 63.7992 57.3858C63.8199 57.0009 63.8595 56.6223 63.918 56.2489C64.0738 55.2489 64.3611 54.2943 64.761 53.4009L64.9213 53.0614L67.4097 47.7583L67.4079 47.7574C67.4763 47.6169 67.5177 47.4605 67.5267 47.2952C67.5619 46.6525 67.0899 46.0978 66.4532 46.0027L66.3902 45.9947H66.3893L66.0002 45.9458L41.9183 42.912L36.983 42.2907L36.9263 42.2836C34.6667 41.9885 32.9258 40.1992 32.7061 38.008C32.6403 37.3218 32.607 36.6267 32.607 35.9254C32.607 23.7031 42.6459 13.7956 55.0292 13.7956C65.3635 13.7956 74.0651 20.696 76.6606 30.0836C76.7146 30.2792 76.766 30.4756 76.8146 30.6729C76.8488 30.8694 76.8668 31.072 76.8668 31.2792C76.8668 33.2605 75.2394 34.8676 73.2311 34.8676C71.5461 34.8676 70.1277 33.7343 69.7161 32.1983C69.7062 32.1565 69.6954 32.1147 69.6846 32.0738C68.0401 25.6294 62.1277 20.8587 55.0886 20.8587C47.538 20.8587 41.2851 26.3467 40.2035 33.5031C40.1963 33.5458 40.19 33.5885 40.1837 33.632C40.1801 33.6605 40.1756 33.6889 40.172 33.7183C40.1693 33.7458 40.1675 33.7734 40.1657 33.8009C40.1225 34.6036 40.6664 35.3031 41.4301 35.5023L41.8768 35.5583L42.0371 35.5787L69.7557 39.0703L72.8853 39.464L72.9249 39.4694C74.5739 39.6836 75.9284 40.7503 76.5417 42.1814C76.8002 42.7849 76.9272 43.4534 76.8902 44.1503Z" fill="#164646"/>
<path d="M56.453 9.61868C56.4467 9.73957 56.3414 9.8329 56.218 9.82579C55.7911 9.80801 55.3615 9.79912 54.9301 9.79912C38.288 9.79912 24.7961 23.1156 24.7961 39.5413C24.7961 51.9831 32.535 62.6409 43.5223 67.0791C43.6051 67.1147 43.661 67.1973 43.6547 67.2907C43.6483 67.4116 43.543 67.5049 43.4196 67.4978C43.4124 67.4978 43.4052 67.4969 43.398 67.496C43.398 67.496 43.398 67.496 43.3971 67.496C43.3854 67.4933 43.3737 67.4907 43.362 67.488C43.3602 67.4871 43.3575 67.4862 43.3547 67.4853C30.1898 64.3004 20.4229 52.576 20.4229 38.6C20.4229 22.1742 33.9147 8.85779 50.5568 8.85779C52.5075 8.85779 54.4159 9.04179 56.263 9.39112C56.3711 9.40623 56.453 9.51023 56.453 9.61868Z" fill="#A36514"/>
<path d="M50.2317 75.4009C49.3311 75.4009 48.4845 74.8516 48.1585 73.968C47.7415 72.8383 48.3323 71.5885 49.477 71.1778L59.7069 67.5031C60.8515 67.0916 62.1178 67.6747 62.5338 68.8045C62.9508 69.9343 62.36 71.184 61.2154 71.5947L50.9855 75.2694C50.7369 75.3591 50.482 75.4009 50.2317 75.4009Z" fill="#164646"/>
<path d="M55.5344 87.1431C54.6338 87.1431 53.7873 86.5938 53.4612 85.7102C53.0443 84.5804 53.6351 83.3307 54.7797 82.92L65.0096 79.2453C66.1543 78.8338 67.4205 79.4169 67.8366 80.5467C68.2535 81.6764 67.6628 82.9262 66.5181 83.3369L56.2882 87.0116C56.0397 87.1004 55.7848 87.1431 55.5344 87.1431Z" fill="#164646"/>
<path d="M51.3691 81.8071C50.4685 81.8071 49.622 81.2578 49.296 80.3742C48.879 79.2445 49.4698 77.9947 50.6144 77.584L66.1713 71.9956C67.316 71.584 68.5822 72.1671 68.9983 73.2969C69.4153 74.4267 68.8245 75.6765 67.6798 76.0871L52.1229 81.6756C51.8744 81.7645 51.6195 81.8071 51.3691 81.8071Z" fill="#A36514"/>
<path d="M83.3481 21.5769C83.3481 19.1967 84.0963 17.1853 85.5927 15.5437C87.0084 13.9837 88.8006 13.0808 90.9691 12.835C91.328 12.7995 91.6881 12.7818 92.0482 12.7818C94.2062 12.7818 96.0907 13.485 97.7028 14.8925C97.9226 15.0804 98.1319 15.279 98.3294 15.4905C98.7585 15.9479 98.8742 16.4821 98.6778 17.0907C98.5504 17.4665 98.3294 17.7596 98.0161 17.97H97.9986C97.476 18.3103 96.943 18.334 96.3982 18.0409C96.2123 17.9357 96.0557 17.8116 95.9282 17.671C94.9193 16.5104 93.6252 15.929 92.0482 15.929C90.3893 15.929 89.0262 16.5033 87.9589 17.6533C86.9722 18.7323 86.48 20.0393 86.48 21.5757C86.48 23.183 87.0189 24.5255 88.098 25.6033C89.1653 26.6469 90.4583 27.1693 91.978 27.1693C93.7176 27.1693 95.1099 26.4779 96.1539 25.094C96.5244 24.613 97.0119 24.4144 97.6152 24.496C97.8127 24.5196 97.9974 24.5787 98.1716 24.6721C98.2991 24.7312 98.4124 24.8103 98.5106 24.9096C98.6088 25.0089 98.693 25.1153 98.7632 25.2263C98.8333 25.3374 98.8906 25.458 98.9374 25.5868C98.9841 25.7156 99.0098 25.848 99.0157 25.9827C99.0215 26.1174 99.0157 26.2498 98.9981 26.3786C98.9806 26.5074 98.9432 26.6363 98.8847 26.7651C98.8263 26.8939 98.7515 27.0168 98.6579 27.135C97.3124 28.8002 95.636 29.826 93.6287 30.2136C93.1062 30.3188 92.5789 30.372 92.0458 30.372C89.5862 30.372 87.545 29.5802 85.9212 27.9977C84.4248 26.5204 83.5784 24.6673 83.3809 22.4396C83.3587 22.1465 83.3481 21.8593 83.3481 21.5769Z" fill="#A36514"/>
<path d="M103.289 12.7995C103.845 12.7995 104.264 13.0394 104.542 13.5204C104.681 13.7662 104.751 14.0191 104.751 14.2768V28.8947C104.751 29.4572 104.514 29.8803 104.038 30.1616C103.805 30.3022 103.556 30.3731 103.29 30.3731C102.744 30.3731 102.326 30.1332 102.037 29.6522C101.909 29.417 101.845 29.1653 101.845 28.8959V14.2768C101.845 13.7142 102.082 13.2923 102.558 13.0099C102.789 12.8822 103.034 12.8113 103.289 12.7995Z" fill="#A36514"/>
<path d="M117.365 30.0742C117.11 30.0742 116.948 29.9572 116.877 29.722C116.854 29.6629 116.842 29.605 116.842 29.5459V29.0011C116.842 28.8841 116.784 28.825 116.668 28.825C116.61 28.8132 116.558 28.8309 116.512 28.8782C115.583 29.8638 114.371 30.3614 112.875 30.3732C110.81 30.3732 109.318 29.5932 108.403 28.0332C107.835 27.0475 107.551 25.8338 107.551 24.392V17.7076C107.551 17.1096 107.806 16.6523 108.317 16.3355C108.571 16.1831 108.85 16.1015 109.151 16.0897H109.186C109.79 16.0897 110.248 16.3474 110.561 16.8638C110.712 17.1333 110.788 17.4157 110.788 17.7076V24.0575C110.788 25.9922 111.478 27.1303 112.858 27.4706C113.137 27.5415 113.432 27.5758 113.746 27.5758C114.917 27.5758 115.775 27.0653 116.321 26.0454C116.658 25.4237 116.826 24.6674 116.826 23.7763V17.7076C116.826 17.1096 117.075 16.6523 117.574 16.3355C117.841 16.1831 118.119 16.1015 118.409 16.0897C119.012 16.0897 119.47 16.3474 119.784 16.8638C119.935 17.1333 120.009 17.4157 120.009 17.7076V27.3997C120.009 28.279 119.667 28.9881 118.983 29.5282C118.497 29.8922 117.957 30.0742 117.365 30.0742Z" fill="#A36514"/>
<path d="M126.049 28.8604C126.049 29.3414 125.839 29.6983 125.422 29.9335C125.236 30.0269 125.039 30.08 124.831 30.0919H124.169C123.681 30.0919 123.327 29.8744 123.107 29.4407C123.003 29.2528 122.951 29.059 122.951 28.8604V14.3654C122.951 13.7792 123.2 13.3337 123.699 13.0288C123.954 12.8763 124.226 12.7948 124.517 12.783C125.097 12.783 125.538 13.0347 125.839 13.5393C125.99 13.797 126.066 14.0735 126.066 14.3666V17.6036C126.066 17.7324 126.129 17.8033 126.258 17.8151C126.328 17.8033 126.379 17.7797 126.415 17.7442C127.4 16.7361 128.653 16.202 130.173 16.1441C130.265 16.1322 130.359 16.1263 130.451 16.1263C132.145 16.1263 133.612 16.6889 134.854 17.8151C136.315 19.2463 137.063 21.064 137.098 23.2681C137.098 25.4261 136.385 27.1846 134.958 28.5449C133.775 29.6711 132.388 30.2751 130.8 30.3566C130.696 30.3684 130.59 30.3743 130.486 30.3743C128.804 30.3625 127.441 29.8118 126.397 28.721C126.293 28.6158 126.194 28.6158 126.101 28.721C126.065 28.7659 126.049 28.8131 126.049 28.8604ZM134.018 23.2137C134.018 21.9243 133.56 20.8631 132.643 20.0299C131.866 19.3267 130.938 18.9863 129.859 19.01C128.675 19.0336 127.689 19.5205 126.901 20.4695C126.263 21.2672 125.938 22.1701 125.926 23.1782C125.926 24.4912 126.372 25.5702 127.266 26.4152C128.02 27.1066 128.919 27.4588 129.963 27.4706C131.099 27.4706 132.06 27.0605 132.842 26.2391C133.626 25.4178 134.018 24.4097 134.018 23.2137Z" fill="#A36514"/>
<path d="M83.9396 52.641L84.2354 52.3951C84.7112 52.0205 85.2209 51.9555 85.7668 52.2013C85.9644 52.2841 86.1327 52.3951 86.2719 52.5358C87.0832 53.3453 88.0465 53.7495 89.1606 53.7495C90.2279 53.7495 90.9819 53.3678 91.4227 52.6055C91.6319 52.2533 91.736 51.8728 91.736 51.4615C91.736 50.7229 91.2251 50.1308 90.2045 49.6852C89.8561 49.5328 89.1898 49.3047 88.2031 48.9998C86.7184 48.507 85.6686 48.0319 85.0537 47.5745C83.963 46.7543 83.4124 45.6044 83.4007 44.1271C83.4007 42.7078 83.9513 41.5295 85.0537 40.5911C86.1327 39.6764 87.4549 39.2191 89.0215 39.2191C90.6102 39.2309 91.9791 39.6126 93.1283 40.3619C93.6158 40.6786 93.8414 41.136 93.8063 41.734C93.7596 42.2031 93.5573 42.5778 93.1973 42.8602C92.7215 43.2242 92.2106 43.2821 91.6658 43.0363C91.5384 42.9654 91.4285 42.8957 91.335 42.8248C90.7084 42.3201 89.9427 42.0625 89.0378 42.0507C87.9237 42.0507 87.1931 42.4324 86.8459 43.1947C86.7418 43.4405 86.6834 43.7111 86.6717 44.0042C86.6717 44.6731 87.1066 45.2121 87.9763 45.6221C88.2546 45.7628 88.9735 46.0263 90.1344 46.414C91.7699 46.9541 92.9354 47.5343 93.6322 48.156C94.5604 49.0128 95.0245 50.1202 95.0245 51.4804C95.0245 52.8998 94.5253 54.1135 93.5281 55.1216C92.414 56.2361 90.9644 56.7986 89.1781 56.8104C87.1709 56.7986 85.4255 56.2124 83.9408 55.0519C83.4767 54.6761 83.2908 54.1962 83.3843 53.6101C83.4521 53.2106 83.6368 52.888 83.9396 52.641Z" fill="#A36514"/>
<path d="M98.3996 48.4373C98.6778 46.7024 99.502 45.2712 100.871 44.1449C102.228 43.0423 103.766 42.5034 105.482 42.527C107.442 42.5624 109.078 43.2597 110.388 44.62C110.539 44.7724 110.678 44.9308 110.805 45.0951C111.188 45.5643 111.264 46.0807 111.031 46.6433C110.869 47.0191 110.608 47.2826 110.248 47.4351L110.195 47.4705C109.65 47.7057 109.14 47.623 108.664 47.2247C108.57 47.1432 108.49 47.0604 108.421 46.9789C107.643 46.0051 106.629 45.5194 105.375 45.5194C104.216 45.5075 103.235 45.9413 102.435 46.8205C101.901 47.4185 101.565 48.1052 101.426 48.8793C101.194 50.1923 101.473 51.3422 102.261 52.3266C103.096 53.3004 104.14 53.798 105.393 53.8216C106.668 53.8216 107.69 53.317 108.456 52.3089C108.826 51.8279 109.296 51.6234 109.866 51.6932C110.005 51.7168 110.138 51.7523 110.265 51.7984L110.318 51.8338C110.841 52.0572 111.136 52.4495 111.205 53.0121C111.264 53.4222 111.17 53.7921 110.927 54.1206C109.721 55.7149 108.097 56.6013 106.055 56.7774C105.811 56.801 105.573 56.8128 105.341 56.8128C103.451 56.8128 101.832 56.1675 100.486 54.8782C99.1875 53.6349 98.4616 52.1044 98.3108 50.2868C98.2663 49.6746 98.2944 49.0589 98.3996 48.4373Z" fill="#A36514"/>
<path d="M115.469 44.0043C116.025 44.0043 116.444 44.2442 116.722 44.7252C116.861 44.971 116.931 45.2239 116.931 45.4815V55.332C116.931 55.8945 116.694 56.3176 116.218 56.5989C115.986 56.7395 115.737 56.8104 115.47 56.8104C114.925 56.8104 114.507 56.5705 114.217 56.0895C114.089 55.8544 114.025 55.6026 114.025 55.3332V45.4827C114.025 44.9202 114.262 44.4971 114.738 44.2158C114.97 44.0858 115.214 44.0161 115.469 44.0043ZM114.076 40.6798C114.076 40.1291 114.308 39.706 114.772 39.4129C115.015 39.2723 115.271 39.2014 115.538 39.2014C116.083 39.2014 116.501 39.4365 116.791 39.9045C116.93 40.1504 117 40.4092 117 40.6786C117 41.2305 116.768 41.6524 116.305 41.9455C116.061 42.0862 115.805 42.1571 115.539 42.1571C114.993 42.1571 114.576 41.9231 114.286 41.4539C114.147 41.2069 114.076 40.9493 114.076 40.6798Z" fill="#A36514"/>
<path d="M119.749 49.4572C119.795 47.5462 120.468 45.9153 121.768 44.5668C123.031 43.2538 124.58 42.5376 126.413 42.4206C126.668 42.4088 126.923 42.4029 127.179 42.4029C129.151 42.4856 130.769 43.2065 132.034 44.5668C133.276 45.9153 133.896 47.5686 133.896 49.5269V49.6675C133.896 50.1131 133.699 50.4298 133.305 50.6177C133.154 50.6886 133.003 50.7229 132.852 50.7229H123.213C123.027 50.7229 122.917 50.8174 122.882 51.0042C122.87 51.0751 122.876 51.133 122.899 51.1803C123.317 52.4472 124.129 53.2969 125.336 53.7306C125.846 53.9067 126.391 53.9942 126.971 53.9942C128.305 53.9823 129.366 53.5073 130.155 52.5689C130.504 52.1352 130.962 51.9768 131.53 52.0938C131.704 52.1293 131.855 52.1884 131.983 52.2699C132.482 52.5512 132.725 52.979 132.713 53.5545C132.702 53.941 132.58 54.2754 132.347 54.5567C130.99 56.0458 129.198 56.7963 126.971 56.8081C125.545 56.8081 124.271 56.4795 123.152 55.8224C122.032 55.1654 121.177 54.2766 120.586 53.1574C119.993 52.0406 119.715 50.8056 119.749 49.4572ZM123.438 48.0496H130.224C130.422 48.0496 130.538 47.9563 130.573 47.7683C130.573 47.7093 130.567 47.6513 130.555 47.5923C130.044 46.1965 129.012 45.4165 127.459 45.2523C127.261 45.2286 127.065 45.2168 126.867 45.2168C125.51 45.2168 124.431 45.7273 123.63 46.7473C123.432 47.0049 123.264 47.2814 123.125 47.5745C123.033 47.7624 123.078 47.909 123.264 48.0142C123.322 48.039 123.38 48.0496 123.438 48.0496Z" fill="#A36514"/>
<path d="M138.907 42.826H139.22C139.534 42.826 139.743 42.9725 139.847 43.2656C139.87 43.3365 139.882 43.4063 139.882 43.4772V44.0929C139.882 44.2099 139.94 44.2631 140.056 44.2512C140.103 44.2394 140.137 44.2217 140.16 44.1981C141.169 43.0954 142.457 42.5388 144.023 42.527C146.261 42.527 147.834 43.3661 148.739 45.0419C149.248 45.9921 149.504 47.1467 149.504 48.507V55.1913C149.504 55.7893 149.255 56.2467 148.756 56.5634C148.49 56.7159 148.211 56.7974 147.921 56.8093H147.869C147.277 56.8093 146.825 56.5516 146.512 56.0352C146.349 55.7657 146.268 55.4844 146.268 55.1913V48.8414C146.268 47.0829 145.642 45.9802 144.39 45.5347C144.018 45.3941 143.607 45.3232 143.154 45.3232C141.983 45.3232 141.101 45.8042 140.51 46.7662C140.116 47.4114 139.912 48.1973 139.901 49.1239V55.1925C139.901 55.7905 139.65 56.2479 139.152 56.5646C138.886 56.7171 138.607 56.7986 138.318 56.8104C137.726 56.8104 137.274 56.5528 136.961 56.0363C136.798 55.7669 136.717 55.4856 136.717 55.1925V45.0431C136.717 44.269 137.031 43.6651 137.657 43.2313C138.037 42.9607 138.455 42.826 138.907 42.826Z" fill="#A36514"/>
<path d="M153.854 43.002H154.498C154.661 42.9548 154.753 42.8614 154.777 42.7208V41.507C154.788 41.097 154.957 40.7743 155.282 40.5391L157.021 39.3431C157.276 39.167 157.52 39.1848 157.752 39.3963C157.879 39.5251 157.949 39.6776 157.961 39.8537V42.7208C157.961 42.8732 158.031 42.9607 158.17 42.9843C158.194 42.9843 158.217 42.9902 158.239 43.002H159.318C159.863 43.002 160.276 43.2372 160.554 43.7052C160.67 43.9286 160.734 44.1685 160.746 44.4261C160.746 44.9662 160.507 45.3763 160.033 45.6576C159.812 45.7864 159.574 45.8514 159.32 45.8514H158.241C158.078 45.8869 157.986 45.9802 157.962 46.1327V51.023C157.962 52.1729 158.101 52.9116 158.38 53.2389C158.542 53.4387 158.768 53.5793 159.058 53.6609C159.765 53.8606 160.264 54.312 160.554 55.0152C160.67 55.3083 160.734 55.6132 160.746 55.93V56.8092H160.293C158.241 56.8092 156.819 56.4251 156.03 55.657C155.241 54.8888 154.823 53.4966 154.777 51.4792C154.777 51.3268 154.777 51.1802 154.777 51.0396V46.1315C154.742 45.979 154.649 45.8857 154.498 45.8502H153.854C153.32 45.8502 152.914 45.6162 152.636 45.147C152.509 44.913 152.444 44.672 152.444 44.4261C152.444 43.8754 152.676 43.4641 153.14 43.1947C153.373 43.0659 153.61 43.002 153.854 43.002Z" fill="#A36514"/>
<path d="M165.146 44.0043C165.703 44.0043 166.121 44.2442 166.399 44.7252C166.539 44.971 166.609 45.2239 166.609 45.4815V55.332C166.609 55.8945 166.371 56.3176 165.896 56.5989C165.663 56.7395 165.414 56.8104 165.147 56.8104C164.601 56.8104 164.184 56.5705 163.894 56.0895C163.767 55.8544 163.702 55.6026 163.702 55.3332V45.4827C163.702 44.9202 163.94 44.4971 164.416 44.2158C164.648 44.0858 164.891 44.0161 165.146 44.0043ZM163.755 40.6798C163.755 40.1291 163.986 39.706 164.451 39.4129C164.694 39.2723 164.95 39.2014 165.216 39.2014C165.761 39.2014 166.18 39.4365 166.47 39.9045C166.609 40.1504 166.679 40.4092 166.679 40.6786C166.679 41.2305 166.446 41.6524 165.983 41.9455C165.74 42.0862 165.484 42.1571 165.217 42.1571C164.672 42.1571 164.254 41.9231 163.964 41.4539C163.824 41.2069 163.755 40.9493 163.755 40.6798Z" fill="#A36514"/>
<path d="M169.41 45.218C169.41 44.7015 169.635 44.321 170.088 44.074C170.285 43.9806 170.488 43.9333 170.697 43.9333H171.515V43.8979C171.515 41.8226 172.048 40.4092 173.116 39.6587C173.927 39.0962 175.127 38.8149 176.717 38.8149H176.961V40.7495C176.961 41.1017 176.804 41.3416 176.491 41.4704C176.409 41.4941 176.328 41.5118 176.247 41.5236C175.389 41.5827 174.849 41.8522 174.629 42.3332C174.502 42.6262 174.432 43.0482 174.42 43.6001C174.42 43.788 174.507 43.8932 174.681 43.9168C174.704 43.9286 174.722 43.9345 174.733 43.9345H175.673C176.184 43.9345 176.561 44.1579 176.805 44.6034C176.909 44.8032 176.962 45.0076 176.962 45.2192C176.962 45.7356 176.736 46.1162 176.284 46.362C176.098 46.4672 175.894 46.5203 175.675 46.5203H174.735C174.549 46.5558 174.445 46.661 174.421 46.8371V55.3332C174.421 55.8957 174.184 56.3188 173.708 56.6001C173.465 56.7407 173.215 56.8116 172.96 56.8116C172.414 56.8116 171.997 56.5717 171.707 56.0907C171.579 55.8555 171.515 55.6038 171.515 55.3343V46.8382C171.48 46.6622 171.376 46.557 171.202 46.5215H170.697C170.186 46.5215 169.809 46.2922 169.565 45.8361C169.461 45.6458 169.41 45.4413 169.41 45.218Z" fill="#A36514"/>
<path d="M181.468 44.0043C182.025 44.0043 182.443 44.2442 182.722 44.7252C182.861 44.971 182.931 45.2239 182.931 45.4815V55.332C182.931 55.8945 182.694 56.3176 182.218 56.5989C181.985 56.7395 181.736 56.8104 181.47 56.8104C180.924 56.8104 180.506 56.5705 180.216 56.0895C180.089 55.8544 180.025 55.6026 180.025 55.3332V45.4827C180.025 44.9202 180.262 44.4971 180.738 44.2158C180.969 44.0858 181.212 44.0161 181.468 44.0043ZM180.076 40.6798C180.076 40.1291 180.308 39.706 180.772 39.4129C181.015 39.2723 181.271 39.2014 181.537 39.2014C182.082 39.2014 182.501 39.4365 182.791 39.9045C182.93 40.1504 183 40.4092 183 40.6786C183 41.2305 182.767 41.6524 182.304 41.9455C182.061 42.0862 181.805 42.1571 181.539 42.1571C180.993 42.1571 180.575 41.9231 180.285 41.4539C180.145 41.2069 180.076 40.9493 180.076 40.6798Z" fill="#A36514"/>
<path d="M196.798 44.0574C196.798 43.5764 197.007 43.2195 197.425 42.9844C197.622 42.891 197.819 42.8378 198.016 42.826H198.678C199.165 42.826 199.524 43.0434 199.757 43.4772C199.849 43.6651 199.896 43.8589 199.896 44.0574V59.4317C199.896 60.0179 199.646 60.4694 199.148 60.7861C198.893 60.9267 198.619 61.0035 198.329 61.0154C197.75 61.0154 197.309 60.7624 197.007 60.259C196.856 60.0014 196.782 59.7248 196.782 59.4317V55.3154C196.782 55.1866 196.717 55.1157 196.59 55.1039C196.52 55.1157 196.468 55.1394 196.433 55.1748C195.447 56.1829 194.195 56.7171 192.675 56.7762C192.582 56.788 192.495 56.7939 192.414 56.7939C190.708 56.7939 189.235 56.2314 187.994 55.1051C186.533 53.6857 185.784 51.8681 185.749 49.6522C185.749 47.4942 186.462 45.7356 187.89 44.3754C189.073 43.2491 190.459 42.6452 192.048 42.5636C192.152 42.5518 192.257 42.5459 192.361 42.5459C194.055 42.5577 195.419 43.1084 196.451 44.1993C196.555 44.3044 196.653 44.3044 196.747 44.1993C196.78 44.1508 196.798 44.1035 196.798 44.0574ZM188.829 49.703C188.829 51.0042 189.287 52.0666 190.203 52.8868C190.993 53.59 191.92 53.9304 192.987 53.9067C194.17 53.8831 195.156 53.3962 195.945 52.4472C196.583 51.6494 196.908 50.7465 196.92 49.7384C196.92 48.4254 196.473 47.3464 195.58 46.5014C194.826 45.8101 193.933 45.4579 192.9 45.4461C191.647 45.4461 190.621 45.9212 189.82 46.8714C189.158 47.6809 188.829 48.6252 188.829 49.703Z" fill="#A36514"/>
<path d="M212.719 56.5114C212.464 56.5114 212.302 56.3944 212.232 56.1593C212.208 56.1002 212.197 56.0423 212.197 55.9832V55.4383C212.197 55.3213 212.138 55.2623 212.023 55.2623C211.964 55.2504 211.913 55.2682 211.866 55.3154C210.938 56.3011 209.725 56.7986 208.229 56.8104C206.164 56.8104 204.673 56.0304 203.757 54.4704C203.189 53.4848 202.905 52.2711 202.905 50.8293V44.1449C202.905 43.5469 203.16 43.0895 203.671 42.7728C203.926 42.6203 204.204 42.5388 204.506 42.527H204.541C205.144 42.527 205.602 42.7846 205.915 43.3011C206.066 43.5705 206.141 43.853 206.141 44.1449V50.4948C206.141 52.4294 206.831 53.5675 208.211 53.9079C208.49 53.9776 208.785 54.0131 209.099 54.0131C210.27 54.0131 211.128 53.5025 211.674 52.4826C212.011 51.861 212.179 51.1046 212.179 50.2135V44.1449C212.179 43.5469 212.428 43.0895 212.927 42.7728C213.194 42.6203 213.472 42.5388 213.762 42.527C214.365 42.527 214.824 42.7846 215.137 43.3011C215.288 43.5705 215.362 43.853 215.362 44.1449V53.837C215.362 54.7162 215.02 55.4253 214.336 55.9654C213.85 56.3294 213.311 56.5114 212.719 56.5114Z" fill="#A36514"/>
<path d="M218.321 49.4572C218.368 47.5462 219.04 45.9153 220.34 44.5668C221.604 43.2538 223.153 42.5376 224.986 42.4206C225.241 42.4088 225.496 42.4029 225.752 42.4029C227.724 42.4856 229.342 43.2065 230.607 44.5668C231.848 45.9153 232.469 47.5686 232.469 49.5269V49.6675C232.469 50.1131 232.271 50.4298 231.877 50.6177C231.727 50.6886 231.576 50.7229 231.425 50.7229H221.785C221.599 50.7229 221.489 50.8174 221.454 51.0042C221.443 51.0751 221.448 51.133 221.472 51.1803C221.889 52.4472 222.702 53.2969 223.908 53.7306C224.419 53.9067 224.964 53.9942 225.544 53.9942C226.877 53.9823 227.939 53.5073 228.728 52.5689C229.076 52.1352 229.535 51.9768 230.103 52.0938C230.277 52.1293 230.428 52.1884 230.555 52.2699C231.054 52.5512 231.298 52.979 231.286 53.5545C231.274 53.941 231.153 54.2754 230.92 54.5567C229.563 56.0458 227.771 56.7963 225.544 56.8081C224.117 56.8081 222.843 56.4795 221.724 55.8224C220.604 55.1654 219.75 54.2766 219.158 53.1574C218.566 52.0406 218.287 50.8056 218.321 49.4572ZM222.011 48.0496H228.797C228.995 48.0496 229.11 47.9563 229.145 47.7683C229.145 47.7093 229.14 47.6513 229.128 47.5923C228.617 46.1965 227.585 45.4165 226.031 45.2523C225.834 45.2286 225.637 45.2168 225.44 45.2168C224.082 45.2168 223.003 45.7273 222.202 46.7473C222.005 47.0049 221.837 47.2814 221.697 47.5745C221.605 47.7624 221.651 47.909 221.837 48.0142C221.895 48.039 221.952 48.0496 222.011 48.0496Z" fill="#A36514"/>
<path d="M83.3481 76.1414C83.3481 73.9137 84.0788 72.1244 85.5401 70.776C86.8389 69.6272 88.3411 69.0411 90.0468 69.0174C91.6472 69.0292 92.9706 69.5339 94.0145 70.5302C94.1186 70.6353 94.2167 70.6294 94.3103 70.5124C94.3453 70.4652 94.3629 70.425 94.3629 70.3895V67.2589C94.3629 66.6727 94.6119 66.2272 95.1111 65.9222C95.3659 65.7698 95.6383 65.6942 95.9294 65.6942H95.9469C96.5268 65.6942 96.9734 65.94 97.2867 66.4328C97.4258 66.7022 97.5006 66.9776 97.5123 67.2601V81.3852C97.5123 81.9713 97.2633 82.4228 96.7641 82.7395C96.5092 82.892 96.2357 82.9676 95.9458 82.9676C95.3659 82.9676 94.9252 82.7147 94.6236 82.2112C94.4728 81.9536 94.3968 81.6771 94.3968 81.384C94.3968 81.3249 94.3676 81.3012 94.3103 81.3131C94.2869 81.3249 94.2694 81.3367 94.2577 81.3485C93.3528 82.4275 92.1522 83.0492 90.6558 83.2134C90.4349 83.2371 90.2151 83.2489 89.9942 83.2489C88.4043 83.2489 86.9897 82.7147 85.7482 81.6475C84.2869 80.3924 83.4919 78.7332 83.3645 76.6697C83.3528 76.4924 83.3481 76.3163 83.3481 76.1414ZM94.5534 76.2289C94.5885 74.9277 94.1641 73.8487 93.2827 72.9919C92.5053 72.2651 91.577 71.9011 90.498 71.9011C89.2448 71.9011 88.2184 72.3762 87.4176 73.3263C86.7559 74.1122 86.4262 75.0388 86.4262 76.106C86.4262 77.4072 86.8787 78.4743 87.7835 79.3075C88.5609 79.9989 89.4774 80.3452 90.5331 80.3452C91.7162 80.3452 92.7087 79.876 93.5083 78.9376C94.1712 78.1529 94.5184 77.2488 94.5534 76.2289Z" fill="#A36514"/>
<path d="M100.488 75.8944C100.534 73.9834 101.206 72.3525 102.506 71.0041C103.77 69.6911 105.319 68.9749 107.152 68.8579C107.407 68.8461 107.663 68.8401 107.918 68.8401C109.89 68.9229 111.508 69.6438 112.773 71.0041C114.015 72.3525 114.635 74.0059 114.635 75.9642V76.1048C114.635 76.5503 114.438 76.8671 114.044 77.055C113.893 77.1259 113.742 77.1602 113.591 77.1602H103.95C103.764 77.1602 103.654 77.2547 103.619 77.4414C103.608 77.5123 103.614 77.5702 103.637 77.6175C104.054 78.8844 104.867 79.7342 106.073 80.1679C106.584 80.344 107.129 80.4314 107.709 80.4314C109.043 80.4196 110.104 79.9445 110.893 79.0062C111.242 78.5724 111.7 78.4141 112.268 78.5311C112.442 78.5665 112.593 78.6256 112.72 78.7071C113.22 78.9884 113.463 79.4162 113.451 79.9918C113.439 80.3782 113.318 80.7127 113.085 80.994C111.728 82.4831 109.936 83.2335 107.709 83.2453C106.281 83.2453 105.008 82.9168 103.889 82.2597C102.769 81.6026 101.915 80.7139 101.323 79.5947C100.731 78.4779 100.452 77.2429 100.488 75.8944ZM104.176 74.4869H110.962C111.16 74.4869 111.275 74.3935 111.311 74.2056C111.311 74.1477 111.305 74.0886 111.293 74.0295C110.782 72.6338 109.75 71.855 108.196 71.6895C107.999 71.6659 107.802 71.6541 107.605 71.6541C106.247 71.6541 105.168 72.1646 104.369 73.1845C104.171 73.4422 104.003 73.7187 103.864 74.0118C103.77 74.1997 103.817 74.3462 104.003 74.4514C104.06 74.4762 104.117 74.4869 104.176 74.4869Z" fill="#A36514"/>
<path d="M124.394 65.6741C124.951 65.6741 125.369 65.914 125.648 66.395C125.787 66.6408 125.857 66.8937 125.857 67.1513V81.7693C125.857 82.3318 125.62 82.7549 125.144 83.0362C124.911 83.1768 124.662 83.2477 124.396 83.2477C123.851 83.2477 123.432 83.0078 123.142 82.5268C123.015 82.2916 122.951 82.0399 122.951 81.7704V67.1525C122.951 66.59 123.188 66.1669 123.664 65.8856C123.896 65.7568 124.14 65.6859 124.394 65.6741Z" fill="#A36514"/>
<path d="M129.006 70.1071C128.948 68.5128 128.902 67.2459 128.867 66.3075C128.856 65.862 129.03 65.6445 129.39 65.6563L130.538 65.6741C130.758 65.6977 130.955 65.8147 131.129 66.0263C131.292 66.2496 131.361 66.4895 131.339 66.7472L131.321 66.7649V66.7826V66.8003V66.8181V66.8358V66.8535V66.8713V66.889V66.9067L131.304 66.9244V66.9422V66.9587V66.9764V66.9942V67.0119V67.0296V67.0473V67.0651L131.286 67.0828V67.1005V67.1182V67.136V67.1537V67.1714V67.1892V67.2069V67.2246V67.2423L131.268 67.2601V67.2778V67.2955V67.3133V67.331V67.3487V67.3664V67.3842V67.4019L131.251 67.4196V67.4373V67.4551V67.4728V67.4905V67.5083V67.526V67.5437V67.5614L131.233 67.5792V67.5969V67.6146V67.6323V67.6501V67.6678V67.6855V67.7033V67.721L131.216 67.7387V67.7564V67.7742V67.7919V67.8096V67.8273V67.8451V67.8628V67.8805L131.198 67.8983V67.916V67.9337V67.9514V67.9692V67.9869V68.0046V68.0223V68.0401V68.0578L131.181 68.0755V68.0932V68.111V68.1287V68.1464V68.1642V68.1819V68.1996V68.2173L131.163 68.2351V68.2528C131.036 69.4133 130.954 70.1768 130.92 70.5396C130.885 70.8445 130.74 71.0147 130.485 71.0502C130.45 71.062 130.421 71.0679 130.399 71.0679L129.825 71.0502C129.615 71.0383 129.431 70.945 129.268 70.7689C129.116 70.5585 129.029 70.3423 129.006 70.1071Z" fill="#A36514"/>
<path d="M134.714 65.6563H142.718C143.298 65.6563 143.739 65.9021 144.04 66.3949C144.191 66.6526 144.267 66.9291 144.267 67.2222C144.267 67.8084 144.024 68.2539 143.536 68.5589C143.282 68.7113 143.008 68.7869 142.718 68.7869H137.881C137.567 68.7869 137.352 68.9335 137.236 69.2266C137.201 69.3211 137.184 69.4086 137.184 69.4901V72.1469C137.184 72.4636 137.335 72.681 137.636 72.798C137.717 72.8217 137.799 72.8335 137.879 72.8335H142.717C143.297 72.8335 143.737 73.0793 144.039 73.5721C144.19 73.8298 144.266 74.1063 144.266 74.3982C144.266 74.9844 144.023 75.43 143.535 75.7349C143.28 75.8873 143.007 75.9641 142.717 75.9641H137.879C137.566 75.9641 137.351 76.1166 137.235 76.4215C137.2 76.5042 137.183 76.5858 137.183 76.6673V79.4115C137.183 79.7282 137.333 79.9445 137.635 80.0627C137.716 80.0981 137.798 80.1159 137.878 80.1159H142.716C143.296 80.1159 143.736 80.3617 144.038 80.8545C144.189 81.1121 144.265 81.3875 144.265 81.6818C144.265 82.2561 144.022 82.7017 143.534 83.0184C143.279 83.159 143.006 83.2359 142.716 83.2477H134.711C134.375 83.2477 134.137 83.0893 133.998 82.7726C133.963 82.6674 133.946 82.567 133.946 82.4736V66.4304C133.946 66.09 134.102 65.8501 134.416 65.7095C134.51 65.674 134.608 65.6563 134.714 65.6563Z" fill="#A36514"/>
<path d="M147.746 79.0782L148.042 78.8324C148.518 78.4578 149.027 78.3928 149.573 78.6386C149.771 78.7213 149.939 78.8324 150.078 78.973C150.89 79.7826 151.853 80.1868 152.967 80.1868C154.034 80.1868 154.788 79.805 155.229 79.0428C155.438 78.6906 155.542 78.31 155.542 77.8988C155.542 77.1601 155.032 76.568 154.011 76.1225C153.663 75.97 152.996 75.742 152.01 75.437C150.525 74.9442 149.475 74.4691 148.86 74.0118C147.77 73.1916 147.219 72.0417 147.207 70.5644C147.207 69.145 147.758 67.9668 148.86 67.0284C149.939 66.1137 151.261 65.6563 152.828 65.6563C154.417 65.6681 155.786 66.0499 156.935 66.8003C157.422 67.117 157.648 67.5744 157.614 68.1724C157.567 68.6416 157.364 69.0162 157.005 69.2987C156.529 69.6627 156.018 69.7206 155.474 69.4748C155.346 69.405 155.235 69.3341 155.143 69.2632C154.516 68.7586 153.75 68.501 152.845 68.4891C151.731 68.4891 151.001 68.8709 150.654 69.6319C150.549 69.8778 150.491 70.1484 150.479 70.4415C150.479 71.1104 150.914 71.6493 151.784 72.0594C152.062 72.2 152.781 72.4636 153.942 72.8512C155.578 73.3913 156.743 73.9716 157.44 74.5932C158.368 75.4489 158.832 76.5574 158.832 77.9177C158.832 79.337 158.333 80.5508 157.336 81.5589C156.222 82.6733 154.772 83.2359 152.986 83.2477C150.979 83.2359 149.233 82.6497 147.748 81.4891C147.284 81.1133 147.098 80.6335 147.192 80.0473C147.259 79.6479 147.445 79.3252 147.746 79.0782Z" fill="#A36514"/>
<path d="M163.702 65.6563C164.306 65.6563 164.764 65.914 165.077 66.4304C165.24 66.6999 165.32 66.987 165.32 67.292V81.6109C165.32 82.2089 165.071 82.6721 164.572 83.0007C164.294 83.1531 164.004 83.2347 163.702 83.2465C163.111 83.2465 162.653 82.9889 162.328 82.4724C162.165 82.203 162.084 81.9158 162.084 81.6109V67.2931C162.084 66.6951 162.339 66.2319 162.85 65.9033C163.117 65.739 163.401 65.6563 163.702 65.6563Z" fill="#A36514"/>
</svg>
