<svg width="191" height="180" viewBox="0 0 191 180" fill="none" xmlns="http://www.w3.org/2000/svg">
<path d="M60.3438 72.5312C60.5625 72.4375 60.7812 72.4531 61 72.5781C61.2188 72.6719 61.4531 72.7188 61.7031 72.7188C62.0469 72.7188 62.3594 72.6719 62.6406 72.5781C62.9531 72.4531 63.2656 72.3594 63.5781 72.2969C63.9531 72.3594 64.1719 72.375 64.2344 72.3438C64.2969 72.2812 64.375 72.25 64.4688 72.25C64.625 72.25 64.75 72.2812 64.8438 72.3438C64.9375 72.4062 65.0781 72.4219 65.2656 72.3906C65.5156 72.1406 65.8281 71.9531 66.2031 71.8281C66.6094 71.6719 67.0156 71.5156 67.4219 71.3594C67.5156 71.3594 67.6094 71.3594 67.7031 71.3594C67.7969 71.3594 67.875 71.3906 67.9375 71.4531C67.9062 71.7344 67.9375 71.875 68.0312 71.875C68.1562 71.875 68.25 71.9062 68.3125 71.9688C68.6562 72.2188 68.9688 72.3125 69.25 72.25C69.5625 72.1875 69.7969 72.2188 69.9531 72.3438C70.3594 72.2188 70.8438 72.1562 71.4062 72.1562C71.8125 72.2188 72.0781 72.2344 72.2031 72.2031C72.3594 72.1719 72.5156 72.125 72.6719 72.0625C72.7656 72.0312 72.8281 71.9844 72.8594 71.9219C72.8906 71.8281 72.9844 71.7969 73.1406 71.8281C73.2344 71.8906 73.2656 72 73.2344 72.1562C73.2031 72.2812 73.2344 72.375 73.3281 72.4375C73.5781 72.4375 73.7812 72.3906 73.9375 72.2969C74.0938 72.2031 74.2969 72.1406 74.5469 72.1094C74.7656 72.2031 75.0156 72.2188 75.2969 72.1562C75.3906 72.1562 75.4688 72.125 75.5312 72.0625C75.625 71.9688 75.7031 71.9219 75.7656 71.9219C76.1719 72.0469 76.4062 72.0781 76.4688 72.0156C76.5312 71.9531 76.5938 71.8906 76.6562 71.8281C77.0938 71.6094 77.3906 71.4688 77.5469 71.4062C77.7344 71.3125 77.9375 71.2344 78.1562 71.1719C78.3125 71.0469 78.4375 70.9375 78.5312 70.8438C78.625 70.75 78.7656 70.6875 78.9531 70.6562C79.3281 70.8125 79.5469 70.8281 79.6094 70.7031C79.6719 70.5469 79.7656 70.4219 79.8906 70.3281C80.2969 70.3281 80.5156 70.3125 80.5469 70.2812C80.6094 70.2188 80.6875 70.1719 80.7812 70.1406C81.1562 69.7969 81.4062 69.5625 81.5312 69.4375C81.6562 69.2812 81.7969 69.125 81.9531 68.9688C82.2656 69.25 82.4531 69.3438 82.5156 69.25C82.5781 69.125 82.625 69.0156 82.6562 68.9219C82.7188 68.8281 82.7969 68.75 82.8906 68.6875C82.9844 68.5938 83.125 68.5625 83.3125 68.5938C83.5938 68.3438 83.75 68.2344 83.7812 68.2656C83.8125 68.2656 83.8594 68.25 83.9219 68.2188C84.0781 68.2188 84.1562 68.1719 84.1562 68.0781C84.1875 67.9844 84.2344 67.9062 84.2969 67.8438C84.4219 67.8125 84.5156 67.7656 84.5781 67.7031C84.6406 67.6406 84.7344 67.5938 84.8594 67.5625C84.9531 67.875 84.9375 68.0938 84.8125 68.2188C84.6875 68.3125 84.6094 68.4844 84.5781 68.7344C84.4844 68.8281 84.4375 69 84.4375 69.25C84.3125 69.4062 84.2344 69.5781 84.2031 69.7656C84.2031 69.9531 84.1719 70.1406 84.1094 70.3281L83.3594 71.0781C83.2969 71.2656 83.2188 71.4375 83.125 71.5938C83.0312 71.75 82.9688 71.9531 82.9375 72.2031L82.2344 73.6562C82.0781 73.8125 81.9062 73.9375 81.7188 74.0312C81.5312 74.125 81.3906 74.2812 81.2969 74.5C81.3281 74.7812 81.3594 75.0312 81.3906 75.25C81.4219 75.4688 81.3906 75.7031 81.2969 75.9531C81.4219 76.5781 81.3281 76.9531 81.0156 77.0781C80.8594 77.0156 80.7188 77.0156 80.5938 77.0781C80.5 77.1094 80.375 77.1406 80.2188 77.1719C80.0625 77.0469 79.8906 77.0156 79.7031 77.0781C79.5469 77.1094 79.3906 77.0938 79.2344 77.0312C79.0469 77.0938 78.8438 77.125 78.625 77.125C78.4062 77.125 78.2188 77.0469 78.0625 76.8906C77.8125 76.9219 77.6094 76.9844 77.4531 77.0781C77.2969 77.1719 77.0938 77.2031 76.8438 77.1719C76.4688 76.9219 76.1406 76.8438 75.8594 76.9375C75.8594 76.9062 75.7969 76.875 75.6719 76.8438C75.5781 76.7812 75.4531 76.75 75.2969 76.75C75.1719 76.7188 75.0469 76.6875 74.9219 76.6562C74.7969 76.625 74.7344 76.5938 74.7344 76.5625C74.5781 76.5 74.3906 76.4844 74.1719 76.5156C73.9844 76.5156 73.8125 76.5469 73.6562 76.6094C73.5312 76.6094 73.3906 76.6094 73.2344 76.6094C73.1094 76.5781 73.0156 76.5938 72.9531 76.6562C72.7344 76.5625 72.4844 76.5469 72.2031 76.6094C71.9531 76.6406 71.7188 76.6875 71.5 76.75C71.375 76.875 71.2656 76.9219 71.1719 76.8906C71.0781 76.8594 70.9844 76.8594 70.8906 76.8906C70.7031 76.7656 70.5469 76.6719 70.4219 76.6094C70.3281 76.5469 70.2031 76.5469 70.0469 76.6094C69.7969 76.7656 69.6094 76.9375 69.4844 77.125L69.625 77.9219C69.7188 77.9531 69.8594 77.9375 70.0469 77.875C70.2344 77.8125 70.3594 77.8594 70.4219 78.0156C70.3594 78.2344 70.25 78.4219 70.0938 78.5781C69.9375 78.7031 69.8438 78.9062 69.8125 79.1875C69.9688 79.625 70.0312 79.9219 70 80.0781C69.9688 80.2344 69.9531 80.4062 69.9531 80.5938L70.1406 81.1562C69.9844 81.4688 69.9062 81.7969 69.9062 82.1406C69.9375 82.4531 69.9375 82.8125 69.9062 83.2188C70 83.5625 70 83.7344 69.9062 83.7344C69.8438 83.7344 69.7812 83.75 69.7188 83.7812C69.7188 84.0312 69.7969 84.2031 69.9531 84.2969C70.1094 84.3906 70.2031 84.5469 70.2344 84.7656C70.2031 84.9219 70.1562 85.0469 70.0938 85.1406C70.0312 85.2031 69.9688 85.2969 69.9062 85.4219C70.1875 85.6406 70.3906 85.75 70.5156 85.75C70.6719 85.75 70.8125 85.7812 70.9375 85.8438C71.0625 85.875 71.1875 85.8438 71.3125 85.75C71.7188 85.75 72 85.7188 72.1562 85.6562C72.4375 85.75 72.6875 85.9219 72.9062 86.1719C73.3125 86.0781 73.5469 86.0469 73.6094 86.0781C73.7031 86.0781 73.7969 86.0938 73.8906 86.125C74.1406 86.0625 74.3281 85.9531 74.4531 85.7969C74.6094 85.6406 74.7812 85.5 74.9688 85.375C75.3125 85.375 75.6094 85.2812 75.8594 85.0938C76.2344 85 76.5 84.8438 76.6562 84.625C76.8438 84.375 77.0469 84.1406 77.2656 83.9219C77.3281 83.7031 77.3906 83.5938 77.4531 83.5938C77.5156 83.5625 77.5469 83.5156 77.5469 83.4531C77.5469 83.1094 77.6094 82.8594 77.7344 82.7031C77.8906 82.5156 78.0781 82.3438 78.2969 82.1875C78.3594 82.0938 78.4062 81.9844 78.4375 81.8594C78.4688 81.7344 78.5156 81.6406 78.5781 81.5781C78.8594 81.8594 78.9688 82.0312 78.9062 82.0938C78.9688 82.2188 79.0312 82.3125 79.0938 82.375C79.1875 82.4375 79.2188 82.5469 79.1875 82.7031C79.1562 82.8594 79.0781 82.9844 78.9531 83.0781C78.8281 83.1719 78.7344 83.25 78.6719 83.3125L78.25 84.0156C78.25 84.1406 78.2344 84.25 78.2031 84.3438C78.1719 84.4062 78.1562 84.5 78.1562 84.625C78.0312 84.9062 77.9219 85.2031 77.8281 85.5156C77.7656 85.8281 77.7188 86.1562 77.6875 86.5C77.625 86.6562 77.5781 86.8594 77.5469 87.1094C77.5156 87.3281 77.5 87.5312 77.5 87.7188C77.4062 87.9375 77.2812 88.125 77.125 88.2812C77.0625 88.4375 77 88.6094 76.9375 88.7969C76.9062 88.9531 76.8906 89.1406 76.8906 89.3594C76.7969 89.5156 76.7344 89.6875 76.7031 89.875C76.7656 90.1875 76.7188 90.375 76.5625 90.4375C76.2812 90.7188 76.125 90.8281 76.0938 90.7656C76.0625 90.6719 76.0156 90.5938 75.9531 90.5312C75.5469 90.7188 75.3125 90.7969 75.25 90.7656C75.1875 90.7031 75.125 90.6562 75.0625 90.625C74.5938 90.5625 74.25 90.5625 74.0312 90.625C73.8438 90.6562 73.6406 90.6875 73.4219 90.7188C72.9219 90.625 72.5625 90.625 72.3438 90.7188C72.125 90.7812 71.9219 90.7344 71.7344 90.5781C71.5469 90.6406 71.3438 90.7031 71.125 90.7656C70.9062 90.7969 70.7188 90.75 70.5625 90.625C70.3438 91.0312 70.1719 91.3281 70.0469 91.5156C69.9531 91.7031 69.9062 91.875 69.9062 92.0312C69.9375 92.1875 69.9844 92.3125 70.0469 92.4062C70.1406 92.4688 70.1562 92.5781 70.0938 92.7344C70.2812 93.1719 70.3438 93.4531 70.2812 93.5781C70.2188 93.6719 70.1562 93.7812 70.0938 93.9062C70.2812 94.2188 70.3438 94.4062 70.2812 94.4688C70.25 94.5312 70.2031 94.5938 70.1406 94.6562L69.8594 95.2656C69.8906 95.3906 69.8906 95.4844 69.8594 95.5469C69.8594 95.6094 69.8438 95.7031 69.8125 95.8281C69.875 95.9844 69.8906 96.1094 69.8594 96.2031C69.8594 96.2969 69.8438 96.4219 69.8125 96.5781C69.875 97.1094 69.9375 97.5469 70 97.8906C70.0625 98.2031 70.125 98.5 70.1875 98.7812C70.1875 99.0312 70.125 99.2344 70 99.3906C69.9062 99.5156 69.8594 99.7031 69.8594 99.9531C70.1719 100.172 70.2969 100.297 70.2344 100.328C70.1719 100.359 70.125 100.406 70.0938 100.469C70.0938 100.906 70.0156 101.281 69.8594 101.594C69.7031 101.906 69.6562 102.266 69.7188 102.672C69.8438 103.047 69.8906 103.312 69.8594 103.469C69.8594 103.625 69.8281 103.781 69.7656 103.938C69.7344 104.406 69.7031 104.797 69.6719 105.109C69.6719 105.391 69.7344 105.609 69.8594 105.766C70.0781 106.172 70.0781 106.391 69.8594 106.422C69.6719 106.453 69.5 106.516 69.3438 106.609C69.1875 106.547 69.0156 106.484 68.8281 106.422C68.6406 106.391 68.4531 106.406 68.2656 106.469C67.8594 106.406 67.5156 106.422 67.2344 106.516C66.9844 106.609 66.8438 106.484 66.8125 106.141C66.6562 106.203 66.5312 106.266 66.4375 106.328C66.375 106.391 66.2656 106.453 66.1094 106.516C65.6094 106.578 65.1875 106.609 64.8438 106.609C64.5312 106.609 64.3125 106.516 64.1875 106.328C64.0312 106.391 63.8906 106.422 63.7656 106.422C63.6406 106.453 63.5 106.5 63.3438 106.562C62.9688 106.594 62.75 106.562 62.6875 106.469C62.6562 106.375 62.6094 106.297 62.5469 106.234C62.3906 106.266 62.2344 106.281 62.0781 106.281C61.9531 106.312 61.8594 106.281 61.7969 106.188C61.7031 106.219 61.6094 106.25 61.5156 106.281C61.4531 106.344 61.3594 106.359 61.2344 106.328C60.9844 106.297 60.8438 106.312 60.8125 106.375C60.7812 106.438 60.7188 106.469 60.625 106.469C60.5 106.438 60.375 106.438 60.25 106.469C60.0938 106.5 59.9531 106.516 59.8281 106.516C59.7031 106.547 59.5938 106.547 59.5 106.516C59.4062 106.516 59.3438 106.438 59.3125 106.281C59.4062 106.125 59.5781 106.078 59.8281 106.141C59.9531 106.109 60.0625 106.062 60.1562 106C60.2188 105.969 60.2969 105.938 60.3906 105.906C60.4531 105.812 60.5156 105.719 60.5781 105.625C60.6406 105.5 60.7188 105.406 60.8125 105.344C61.0312 105.312 61.25 105.281 61.4688 105.25C61.6875 105.219 61.8906 105.203 62.0781 105.203C62.2031 105.078 62.2969 104.906 62.3594 104.688C62.5469 104.656 62.7344 104.547 62.9219 104.359C63.2031 104.141 63.3125 104.016 63.25 103.984C63.1875 103.953 63.1875 103.906 63.25 103.844L63.5312 103.281C63.5 103 63.5469 102.828 63.6719 102.766C63.7969 102.609 63.9219 102.484 64.0469 102.391C64.1719 102.266 64.2812 102.109 64.375 101.922C64.25 101.641 64.2031 101.484 64.2344 101.453C64.2656 101.391 64.2812 101.328 64.2812 101.266C64.1562 100.953 64.1719 100.688 64.3281 100.469C64.1719 100.062 64.1406 99.8125 64.2344 99.7188C64.3594 99.5938 64.4375 99.4219 64.4688 99.2031C64.4688 99.0469 64.4375 98.9062 64.375 98.7812C64.3125 98.6562 64.25 98.5312 64.1875 98.4062C64.1562 98.2812 64.125 98.1719 64.0938 98.0781C64.0938 97.9844 64.1406 97.875 64.2344 97.75C64.2969 97.2188 64.3281 96.7969 64.3281 96.4844C64.3594 96.1406 64.3906 95.7969 64.4219 95.4531C64.3906 95.1094 64.4219 94.8906 64.5156 94.7969C64.6094 94.6719 64.6875 94.5312 64.75 94.375C64.5625 94.3438 64.3438 94.3281 64.0938 94.3281C63.875 94.3281 63.75 94.25 63.7188 94.0938C63.75 93.9062 63.8125 93.7656 63.9062 93.6719C64.0312 93.5469 64.125 93.4062 64.1875 93.25C64.1875 93.0938 64.1719 92.9688 64.1406 92.875C64.1406 92.75 64.1406 92.6094 64.1406 92.4531C64.2031 92.1719 64.2969 91.9688 64.4219 91.8438C64.4219 91.6562 64.4531 91.4688 64.5156 91.2812C64.5781 91.0625 64.5781 90.8281 64.5156 90.5781C64.3906 90.1094 64.375 89.7969 64.4688 89.6406C64.5625 89.4844 64.6562 89.3281 64.75 89.1719L64.6094 88.5625C64.6094 88.3125 64.5625 88.1406 64.4688 88.0469C64.375 87.9219 64.3125 87.75 64.2812 87.5312C64.375 87.3125 64.375 87.0781 64.2812 86.8281C64.2188 86.5781 64.2031 86.3281 64.2344 86.0781C64.2344 85.9844 64.25 85.8906 64.2812 85.7969C64.3438 85.7031 64.3906 85.5938 64.4219 85.4688C64.4531 85.3125 64.4688 85.1406 64.4688 84.9531C64.4688 84.7344 64.4688 84.5469 64.4688 84.3906C64.4688 84.0156 64.4844 83.8125 64.5156 83.7812C64.5469 83.7188 64.5781 83.6406 64.6094 83.5469C64.6094 83.2344 64.5312 83.0156 64.375 82.8906C64.25 82.7344 64.1406 82.5469 64.0469 82.3281C64.1719 82.0469 64.2188 81.875 64.1875 81.8125C64.1875 81.75 64.1875 81.6719 64.1875 81.5781C64.25 81.3281 64.3125 81.0781 64.375 80.8281C64.4375 80.5781 64.5 80.3281 64.5625 80.0781C64.5938 79.8281 64.5312 79.625 64.375 79.4688C64.25 79.3125 64.25 79.1094 64.375 78.8594C64.25 78.5469 64.1875 78.3594 64.1875 78.2969C64.2188 78.2031 64.2344 78.1094 64.2344 78.0156C64.1406 77.4219 64.0469 76.875 63.9531 76.375C63.8906 76.2812 63.8125 76.2031 63.7188 76.1406C63.625 76.0469 63.5312 75.9688 63.4375 75.9062C63.25 75.6875 63.1406 75.4375 63.1094 75.1562C62.7656 75.0938 62.5625 75.0938 62.5 75.1562C62.4688 75.2188 62.4062 75.2656 62.3125 75.2969C62.125 75.2969 61.9844 75.2656 61.8906 75.2031C61.7969 75.1406 61.7031 75.0625 61.6094 74.9688C61.3594 74.8125 61.2188 74.75 61.1875 74.7812C61.1562 74.7812 61.1406 74.75 61.1406 74.6875C61.1406 74.5312 61.1719 74.4062 61.2344 74.3125C61.2969 74.2188 61.3125 74.0938 61.2812 73.9375C61.25 73.8125 61.2031 73.7188 61.1406 73.6562C61.0781 73.5938 61.0312 73.5 61 73.375C60.875 73.3125 60.7656 73.2812 60.6719 73.2812C60.5469 73.25 60.4531 73.2031 60.3906 73.1406L60.3438 72.5312ZM103 105.438C103.062 105.562 103.141 105.656 103.234 105.719C103.359 105.781 103.438 105.891 103.469 106.047C103.406 106.172 103.359 106.281 103.328 106.375C103.328 106.5 103.266 106.594 103.141 106.656C102.828 106.594 102.516 106.531 102.203 106.469C101.922 106.406 101.609 106.344 101.266 106.281C100.922 106.281 100.656 106.344 100.469 106.469C100.281 106.625 100.016 106.703 99.6719 106.703C99.4219 106.672 99.2344 106.578 99.1094 106.422C98.9531 106.453 98.7969 106.484 98.6406 106.516C98.5156 106.547 98.4062 106.5 98.3125 106.375C97.75 106.469 97.375 106.578 97.1875 106.703C97.0312 106.828 96.8281 106.906 96.5781 106.938C96.4531 106.844 96.3438 106.688 96.25 106.469C96.1562 106.469 96.0469 106.469 95.9219 106.469C95.8281 106.469 95.75 106.453 95.6875 106.422C95.5 106.516 95.2656 106.609 94.9844 106.703C94.7031 106.797 94.4375 106.75 94.1875 106.562C94 106.625 93.7656 106.656 93.4844 106.656C93.2344 106.688 93 106.734 92.7812 106.797C92.6875 106.859 92.5938 106.922 92.5 106.984C92.4375 107.047 92.3125 107.062 92.125 107.031C92.125 106.688 92.1875 106.531 92.3125 106.562C92.4688 106.625 92.5781 106.594 92.6406 106.469C92.7969 106.219 92.9375 106.078 93.0625 106.047C93.2188 106.047 93.375 106.031 93.5312 106C93.75 105.938 93.9375 105.844 94.0938 105.719C94.25 105.594 94.5 105.547 94.8438 105.578C95 105.484 95.1094 105.375 95.1719 105.25C95.2656 105.125 95.375 105.016 95.5 104.922C95.5 104.734 95.5469 104.594 95.6406 104.5C95.7344 104.406 95.7812 104.25 95.7812 104.031C95.9375 103.812 96 103.688 95.9688 103.656C95.9375 103.625 95.9219 103.578 95.9219 103.516C95.9531 103.203 95.9219 102.953 95.8281 102.766C95.7344 102.547 95.7344 102.297 95.8281 102.016C95.7344 101.766 95.7188 101.531 95.7812 101.312C95.625 100.938 95.5625 100.734 95.5938 100.703C95.6562 100.641 95.6719 100.578 95.6406 100.516C95.5781 100.234 95.4844 99.9688 95.3594 99.7188C95.2656 99.4688 95.2188 99.1719 95.2188 98.8281C95.0938 98.6406 95 98.4219 94.9375 98.1719C94.875 97.9219 94.8125 97.6719 94.75 97.4219C94.875 97.0156 94.875 96.7656 94.75 96.6719C94.6562 96.5781 94.5625 96.4844 94.4688 96.3906C94.1562 96.4844 93.9375 96.5469 93.8125 96.5781C93.7188 96.6094 93.6406 96.6406 93.5781 96.6719C93.3281 96.6719 93.0938 96.6562 92.875 96.625C92.6875 96.5625 92.4688 96.5312 92.2188 96.5312C92.0625 96.5938 91.875 96.6562 91.6562 96.7188C91.4688 96.75 91.2969 96.7031 91.1406 96.5781C90.7969 96.5469 90.5938 96.5156 90.5312 96.4844C90.5 96.4219 90.4531 96.3594 90.3906 96.2969C90.2031 96.3281 90.0312 96.3906 89.875 96.4844C89.75 96.5469 89.6094 96.5625 89.4531 96.5312C89.3906 96.4688 89.3281 96.4062 89.2656 96.3438C89.2344 96.25 89.1719 96.1875 89.0781 96.1562C88.8281 96.1562 88.5469 96.2344 88.2344 96.3906C88.1719 96.8594 88.1094 97.1562 88.0469 97.2812C88.0156 97.4062 87.9531 97.5312 87.8594 97.6562C87.7969 97.7812 87.7344 97.9062 87.6719 98.0312C87.6406 98.1562 87.6719 98.2969 87.7656 98.4531C87.7031 98.6406 87.625 98.8125 87.5312 98.9688C87.4688 99.0938 87.4062 99.2344 87.3438 99.3906C87.3438 99.4844 87.3438 99.5781 87.3438 99.6719C87.375 99.7344 87.375 99.8125 87.3438 99.9062C87.3125 100.125 87.2344 100.312 87.1094 100.469C87.0156 100.625 86.9844 100.859 87.0156 101.172C86.9219 101.328 86.8438 101.484 86.7812 101.641C86.75 101.797 86.6875 101.953 86.5938 102.109C86.6562 102.484 86.6562 102.703 86.5938 102.766C86.5625 102.828 86.5312 102.922 86.5 103.047C86.5 103.109 86.5 103.188 86.5 103.281C86.5312 103.375 86.5312 103.469 86.5 103.562C86.4375 103.781 86.3594 103.969 86.2656 104.125C86.2031 104.281 86.1562 104.484 86.125 104.734C86 105.141 85.8906 105.391 85.7969 105.484C85.7969 105.828 85.7812 106.094 85.75 106.281C85.7188 106.469 85.5781 106.562 85.3281 106.562C85.0156 106.812 84.8281 107 84.7656 107.125C84.7344 107.281 84.6406 107.375 84.4844 107.406C84.3281 107.719 84.1719 107.922 84.0156 108.016C83.8906 108.109 83.7031 108.172 83.4531 108.203C83.3281 108.266 83.2188 108.344 83.125 108.438C83.0312 108.531 82.8906 108.562 82.7031 108.531C82.6406 108.594 82.5625 108.672 82.4688 108.766C82.4062 108.859 82.2812 108.891 82.0938 108.859C81.7188 108.766 81.5469 108.766 81.5781 108.859C81.6094 108.953 81.5938 109.062 81.5312 109.188C81.4375 109.594 81.2812 109.812 81.0625 109.844C80.8438 109.875 80.625 109.875 80.4062 109.844C80.2188 109.969 80.0312 110.078 79.8438 110.172C79.6875 110.297 79.5625 110.438 79.4688 110.594C79.3125 110.594 79.2031 110.641 79.1406 110.734C79.0469 110.859 78.9219 110.938 78.7656 110.969C78.4844 111.25 78.2969 111.453 78.2031 111.578C78.1094 111.703 77.9844 111.797 77.8281 111.859C77.2969 112.109 76.875 112.422 76.5625 112.797C76.2188 113.172 75.875 113.516 75.5312 113.828C75.375 113.766 75.2344 113.656 75.1094 113.5C74.9531 113.375 74.9219 113.188 75.0156 112.938C75.1094 112.844 75.2188 112.75 75.3438 112.656C75.4688 112.594 75.5625 112.484 75.625 112.328C75.875 112.172 76.0625 112.031 76.1875 111.906C76.3125 111.812 76.375 111.656 76.375 111.438C76.7188 110.969 77.0469 110.422 77.3594 109.797C77.4844 109.734 77.5938 109.656 77.6875 109.562C77.75 109.469 77.8125 109.375 77.875 109.281C77.9062 109.062 77.9844 108.891 78.1094 108.766C78.2031 108.672 78.2812 108.531 78.3438 108.344C78.5 108.25 78.625 108.125 78.7188 107.969C78.7812 107.781 78.8125 107.594 78.8125 107.406C78.875 107.25 78.9531 107.078 79.0469 106.891C79.1094 106.734 79.1719 106.578 79.2344 106.422C79.6719 105.953 79.9375 105.484 80.0312 105.016C80.1562 104.547 80.3125 104.125 80.5 103.75C80.5625 103.438 80.625 103.281 80.6875 103.281C80.7812 103.281 80.8281 103.25 80.8281 103.188C80.7656 102.875 80.7344 102.688 80.7344 102.625C80.7656 102.562 80.8125 102.5 80.875 102.438C80.875 102.062 80.9219 101.766 81.0156 101.547C81.1406 101.297 81.2656 101.047 81.3906 100.797C81.3281 100.672 81.3125 100.578 81.3438 100.516C81.4062 100.453 81.4531 100.359 81.4844 100.234C81.4219 99.8594 81.4531 99.5312 81.5781 99.25C81.7031 98.9375 81.7969 98.625 81.8594 98.3125C81.9219 98.2188 81.9688 98.1406 82 98.0781C82.0625 97.9844 82.125 97.8906 82.1875 97.7969C82.2812 97.6094 82.3438 97.4062 82.375 97.1875C82.4062 96.9375 82.4688 96.7188 82.5625 96.5312C82.5625 96.375 82.5781 96.2344 82.6094 96.1094C82.6406 95.9844 82.6875 95.8594 82.75 95.7344C82.75 95.3281 82.7656 95.0781 82.7969 94.9844C82.8281 94.8906 82.8594 94.7969 82.8906 94.7031C82.9219 94.5469 82.9375 94.4219 82.9375 94.3281C82.9688 94.2031 82.9688 94.0625 82.9375 93.9062C83.0312 93.375 83.1406 92.8594 83.2656 92.3594C83.4219 91.8594 83.5625 91.3438 83.6875 90.8125C83.75 90.75 83.7969 90.6719 83.8281 90.5781C83.8594 90.4531 83.9062 90.3438 83.9688 90.25C84.0625 89.9062 84.1094 89.7188 84.1094 89.6875C84.1094 89.625 84.1406 89.5625 84.2031 89.5C84.2656 89.125 84.3125 88.7656 84.3438 88.4219C84.375 88.0781 84.4219 87.7344 84.4844 87.3906C84.5156 87.0781 84.5625 86.875 84.625 86.7812C84.6875 86.6875 84.75 86.5781 84.8125 86.4531C84.8438 86.1719 84.8281 85.9219 84.7656 85.7031C84.7031 85.4531 84.7031 85.1875 84.7656 84.9062C84.9844 84.6562 85.1562 84.3906 85.2812 84.1094C85.2188 83.7656 85.25 83.5312 85.375 83.4062C85.25 83 85.2188 82.75 85.2812 82.6562C85.375 82.5312 85.4531 82.4375 85.5156 82.375C85.7031 81.875 85.8281 81.4219 85.8906 81.0156C85.9531 80.5781 86.0938 80.2188 86.3125 79.9375C86.4688 79.5625 86.5312 79.2656 86.5 79.0469C86.5 78.8906 86.4375 78.7344 86.3125 78.5781C86.2188 78.4219 86.2188 78.2656 86.3125 78.1094C86.375 78.0156 86.4219 77.9219 86.4531 77.8281C86.4844 77.7031 86.5469 77.6094 86.6406 77.5469C86.6719 77.2969 86.6875 77.0469 86.6875 76.7969C86.6875 76.5156 86.7188 76.25 86.7812 76C86.625 75.5625 86.5938 75.2656 86.6875 75.1094C86.625 74.9844 86.5625 74.9062 86.5 74.875C86.4375 74.8438 86.3906 74.7812 86.3594 74.6875C86.4844 74.3438 86.4688 74.0469 86.3125 73.7969C86.25 73.7344 86.1719 73.6875 86.0781 73.6562C86.0156 73.5938 85.9531 73.5312 85.8906 73.4688C85.5469 73.3125 85.4531 73.1875 85.6094 73.0938C85.7969 72.9688 85.9219 72.8438 85.9844 72.7188C85.9219 72.625 85.8281 72.5781 85.7031 72.5781C85.6094 72.5469 85.5 72.5312 85.375 72.5312C85.25 72.5312 85.1406 72.5156 85.0469 72.4844C84.9531 72.4219 84.9062 72.3125 84.9062 72.1562C85.0625 72.0938 85.2344 72.0469 85.4219 72.0156C85.6094 71.9844 85.7812 71.9375 85.9375 71.875C86.5312 71.9062 86.9062 71.9688 87.0625 72.0625C87.3125 72 87.5312 71.9219 87.7188 71.8281C87.9062 71.7031 88.1562 71.6875 88.4688 71.7812C88.8438 71.875 89.0938 71.8281 89.2188 71.6406C89.375 71.4219 89.5469 71.2969 89.7344 71.2656C89.9531 71.2344 90.1094 71.3125 90.2031 71.5C90.2969 71.6875 90.2969 71.9062 90.2031 72.1562C90.4219 72.125 90.5781 72.0781 90.6719 72.0156C90.7969 71.9531 90.9375 71.8906 91.0938 71.8281C91.5312 72.0156 91.8125 72.0781 91.9375 72.0156C92.0938 71.9219 92.2812 71.8438 92.5 71.7812C92.875 71.9688 93.0938 72.0469 93.1562 72.0156C93.25 71.9531 93.3594 71.9375 93.4844 71.9688C93.6094 71.9062 93.7188 71.8438 93.8125 71.7812C93.9062 71.6875 94.0312 71.6562 94.1875 71.6875C94.3438 72 94.375 72.2031 94.2812 72.2969C94.2188 72.3906 94.1719 72.5156 94.1406 72.6719C94.3281 72.9844 94.4062 73.1719 94.375 73.2344C94.375 73.2969 94.3906 73.3594 94.4219 73.4219C94.3906 73.6094 94.3594 73.7969 94.3281 73.9844C94.3281 74.1719 94.3281 74.375 94.3281 74.5938C94.3594 74.6875 94.3906 74.7656 94.4219 74.8281C94.4531 74.8906 94.4688 75 94.4688 75.1562C94.7188 75.3438 94.8281 75.4844 94.7969 75.5781C94.7969 75.6719 94.7969 75.7656 94.7969 75.8594C94.8594 76.1719 94.875 76.4062 94.8438 76.5625C94.8125 76.6875 94.8281 76.8125 94.8906 76.9375C94.9219 77.0625 94.9531 77.1719 94.9844 77.2656C95.0469 77.3281 95.0781 77.3906 95.0781 77.4531C95.3594 77.7344 95.4688 77.8906 95.4062 77.9219C95.375 77.9531 95.3281 78.0156 95.2656 78.1094C95.5156 78.6094 95.6562 78.9844 95.6875 79.2344C95.7188 79.4531 95.7969 79.6406 95.9219 79.7969C95.9531 80.1719 96.0938 80.5 96.3438 80.7812C96.4062 81.25 96.4688 81.7031 96.5312 82.1406C96.5938 82.5469 96.6406 83 96.6719 83.5C96.7969 83.4688 96.875 83.4219 96.9062 83.3594C96.9688 83.2969 97.0625 83.2812 97.1875 83.3125C97.0938 83.625 97.0938 83.7812 97.1875 83.7812C97.2812 83.7812 97.3438 83.8125 97.375 83.875C97.375 84.0312 97.3281 84.1406 97.2344 84.2031C97.1406 84.2656 97.0781 84.3594 97.0469 84.4844C97.2656 85.0156 97.3906 85.4062 97.4219 85.6562C97.4531 85.9062 97.4844 86.1562 97.5156 86.4062C97.6719 86.6875 97.7656 86.8906 97.7969 87.0156C97.8281 87.1406 97.7969 87.25 97.7031 87.3438C97.7344 87.5938 97.7812 87.7812 97.8438 87.9062C97.9375 88.0312 98.0469 88.1719 98.1719 88.3281C98.1406 88.4844 98.1562 88.6094 98.2188 88.7031C98.2812 88.7969 98.3125 88.9219 98.3125 89.0781C98.3125 89.2344 98.2656 89.3438 98.1719 89.4062C98.1094 89.4688 98.0781 89.5625 98.0781 89.6875C98.2656 89.9375 98.4062 90.125 98.5 90.25C98.5938 90.375 98.6719 90.4688 98.7344 90.5312C98.8281 90.9062 98.8906 91.2031 98.9219 91.4219C98.9844 91.6094 99.0781 91.7656 99.2031 91.8906C99.1406 92.4844 99.2188 92.9219 99.4375 93.2031C99.5938 93.2969 99.75 93.3906 99.9062 93.4844C100.062 93.5469 100.219 93.625 100.375 93.7188C100.438 93.9375 100.359 94.125 100.141 94.2812C100.172 94.4062 100.203 94.5312 100.234 94.6562C100.297 94.75 100.297 94.875 100.234 95.0312C100.297 95.2188 100.344 95.4375 100.375 95.6875C100.438 95.9062 100.453 96.125 100.422 96.3438C100.453 96.4688 100.484 96.5938 100.516 96.7188C100.547 96.8438 100.562 96.9844 100.562 97.1406C100.625 97.2656 100.656 97.4062 100.656 97.5625C100.688 97.7188 100.703 97.8906 100.703 98.0781C100.766 98.1719 100.812 98.2656 100.844 98.3594C100.875 98.4219 100.906 98.5 100.938 98.5938C100.938 98.7812 100.969 98.9531 101.031 99.1094C101.094 99.2344 101.156 99.3594 101.219 99.4844C101.25 99.7969 101.297 100.078 101.359 100.328C101.453 100.578 101.5 100.875 101.5 101.219C101.719 101.75 101.922 102.094 102.109 102.25C102.328 102.375 102.516 102.531 102.672 102.719C102.703 103 102.688 103.234 102.625 103.422C102.562 103.578 102.5 103.75 102.438 103.938C102.594 104.156 102.703 104.406 102.766 104.688C102.828 104.938 102.906 105.188 103 105.438ZM92.6875 91.8906C92.8438 92.0781 93.0469 92.0938 93.2969 91.9375C93.2344 91.6875 93.1719 91.4531 93.1094 91.2344C93.0469 90.9844 92.9844 90.7344 92.9219 90.4844C93.0156 90.3594 93.0312 90.2031 92.9688 90.0156C92.9375 89.7969 92.9531 89.5938 93.0156 89.4062C92.9219 89.25 92.8438 89.0781 92.7812 88.8906C92.7188 88.7031 92.6094 88.5312 92.4531 88.375C92.4219 88.25 92.375 88.1562 92.3125 88.0938C92.25 88.0312 92.2031 87.9375 92.1719 87.8125C92.1719 87.625 92.1562 87.4219 92.125 87.2031C92.125 86.9844 92.1562 86.7812 92.2188 86.5938C92.0938 86.3438 91.9688 86.1094 91.8438 85.8906C91.7188 85.6719 91.5938 85.4375 91.4688 85.1875C91.375 84.75 91.3125 84.4062 91.2812 84.1562C91.2812 84 91.2969 83.8281 91.3281 83.6406C91.3906 83.4531 91.2969 83.3438 91.0469 83.3125C90.9844 83.75 90.9375 84.0625 90.9062 84.25C90.875 84.4062 90.8125 84.5469 90.7188 84.6719C90.6875 84.8906 90.6719 85.0938 90.6719 85.2812C90.6719 85.4375 90.6562 85.625 90.625 85.8438C90.4688 86 90.3906 86.1875 90.3906 86.4062C90.4219 86.5938 90.4375 86.8281 90.4375 87.1094C90.3438 87.2969 90.25 87.4844 90.1562 87.6719C90.0625 87.8281 89.9688 87.9844 89.875 88.1406C89.8438 88.2656 89.8281 88.375 89.8281 88.4688C89.8594 88.5625 89.8438 88.6562 89.7812 88.75C89.75 88.9062 89.7031 89.0312 89.6406 89.125C89.6094 89.1875 89.5781 89.2812 89.5469 89.4062C89.5469 89.4688 89.5469 89.5625 89.5469 89.6875C89.5781 89.7812 89.5938 89.875 89.5938 89.9688C89.5938 90.125 89.5781 90.2969 89.5469 90.4844C89.5156 90.6719 89.4844 90.8281 89.4531 90.9531C89.3906 91.1094 89.3125 91.2344 89.2188 91.3281C89.1562 91.4219 89.0938 91.5312 89.0312 91.6562C88.9688 92 89.0469 92.1094 89.2656 91.9844C89.5156 91.8594 89.7188 91.7969 89.875 91.7969C89.9688 91.8281 90.0469 91.875 90.1094 91.9375C90.1719 91.9688 90.2656 92 90.3906 92.0312C90.6406 92.0938 90.8594 92.0938 91.0469 92.0312C91.2656 91.9688 91.4688 92 91.6562 92.125C91.9688 91.9688 92.3125 91.8906 92.6875 91.8906ZM129.203 116.594C129.203 116.75 129.266 116.891 129.391 117.016C129.516 117.141 129.516 117.281 129.391 117.438C129.141 117.406 128.969 117.328 128.875 117.203C128.812 117.109 128.734 117.016 128.641 116.922C128.484 116.859 128.359 116.797 128.266 116.734C128.203 116.672 128.094 116.625 127.938 116.594C127.5 116.375 127.219 116.203 127.094 116.078C126.969 115.984 126.844 115.859 126.719 115.703C126.438 115.641 126.266 115.547 126.203 115.422C126.141 115.328 126.047 115.25 125.922 115.188C125.516 114.875 125.266 114.609 125.172 114.391C125.078 114.203 125.016 113.984 124.984 113.734C124.578 113.609 124.297 113.453 124.141 113.266C123.984 113.109 123.734 113.047 123.391 113.078C123.141 112.734 122.969 112.328 122.875 111.859C122.719 111.891 122.594 111.859 122.5 111.766C122.406 111.703 122.281 111.672 122.125 111.672C121.875 111.453 121.719 111.359 121.656 111.391C121.594 111.422 121.516 111.438 121.422 111.438C121.172 111.406 120.969 111.328 120.812 111.203C120.688 111.078 120.547 110.938 120.391 110.781C120.203 110.656 120.078 110.562 120.016 110.5C119.984 110.438 119.938 110.375 119.875 110.312C119.719 110.312 119.594 110.344 119.5 110.406C119.438 110.469 119.328 110.5 119.172 110.5C119.078 110.344 119.078 110.156 119.172 109.938C119.297 109.75 119.328 109.578 119.266 109.422C119.203 109.359 119.125 109.312 119.031 109.281C118.938 109.25 118.859 109.203 118.797 109.141C118.766 108.953 118.766 108.766 118.797 108.578C118.828 108.391 118.812 108.203 118.75 108.016C118.469 107.828 118.344 107.703 118.375 107.641C118.406 107.578 118.406 107.516 118.375 107.453C118.281 107.453 118.203 107.453 118.141 107.453C118.078 107.484 117.984 107.469 117.859 107.406C117.922 106.969 117.922 106.656 117.859 106.469C117.734 106.469 117.609 106.469 117.484 106.469C117.359 106.5 117.234 106.5 117.109 106.469C116.859 106.375 116.688 106.281 116.594 106.188C115.781 106.406 115.219 106.312 114.906 105.906C114.781 105.906 114.688 105.922 114.625 105.953C114.562 105.984 114.484 106.016 114.391 106.047C113.984 105.984 113.734 105.922 113.641 105.859C113.578 105.797 113.484 105.75 113.359 105.719C113.203 105.75 113.062 105.75 112.938 105.719C112.812 105.688 112.672 105.688 112.516 105.719C112.266 105.531 112.109 105.375 112.047 105.25C111.672 104.969 111.312 104.797 110.969 104.734C110.656 104.672 110.375 104.578 110.125 104.453C110.062 104.328 110 104.219 109.938 104.125C109.875 104 109.812 103.891 109.75 103.797C109.5 103.797 109.312 103.734 109.188 103.609C109.094 103.453 109.016 103.297 108.953 103.141C108.828 103.078 108.719 103.016 108.625 102.953C108.531 102.859 108.438 102.781 108.344 102.719C108.281 102.531 108.188 102.375 108.062 102.25C107.938 102.125 107.844 101.938 107.781 101.688C107.531 101.438 107.266 101.203 106.984 100.984C106.703 100.766 106.438 100.516 106.188 100.234C106.219 99.9844 106.203 99.7812 106.141 99.625C106.109 99.4688 106.125 99.3125 106.188 99.1562C106.125 99 106.062 98.8594 106 98.7344C105.938 98.6094 105.859 98.4844 105.766 98.3594C105.703 98.2656 105.641 98.1875 105.578 98.125C105.516 98.0625 105.469 97.9531 105.438 97.7969C105.469 97.3906 105.391 97.0938 105.203 96.9062C105.016 96.6875 104.953 96.3594 105.016 95.9219C104.922 95.7969 104.812 95.6562 104.688 95.5C104.594 95.3438 104.594 95.1406 104.688 94.8906C104.625 94.7344 104.562 94.5938 104.5 94.4688C104.469 94.3438 104.484 94.1875 104.547 94C104.484 93.75 104.391 93.5312 104.266 93.3438C104.141 93.125 104.125 92.8438 104.219 92.5C104.125 92.0625 104.094 91.7812 104.125 91.6562C104.156 91.5 104.188 91.3594 104.219 91.2344C104.188 91.0781 104.125 90.9531 104.031 90.8594C103.938 90.7656 103.906 90.6406 103.938 90.4844C104.156 90.0156 104.266 89.7344 104.266 89.6406C104.297 89.5156 104.344 89.375 104.406 89.2188C104.406 89 104.359 88.8438 104.266 88.75C104.203 88.6562 104.094 88.5781 103.938 88.5156C103.938 88.3906 103.969 88.2969 104.031 88.2344C104.094 88.1719 104.156 88.1094 104.219 88.0469C104.219 87.7344 104.188 87.5312 104.125 87.4375C104.219 87.0625 104.234 86.8438 104.172 86.7812C104.141 86.7188 104.125 86.6562 104.125 86.5938C104.125 86.4688 104.156 86.375 104.219 86.3125C104.281 86.25 104.344 86.1875 104.406 86.125C104.344 86.0312 104.297 85.9062 104.266 85.75C104.266 85.5938 104.328 85.4844 104.453 85.4219C104.484 85.2031 104.438 84.9688 104.312 84.7188C104.188 84.4062 104.172 84.2344 104.266 84.2031C104.359 84.1406 104.438 84.0625 104.5 83.9688C104.406 83.5 104.516 83.125 104.828 82.8438C104.797 82.5938 104.797 82.4531 104.828 82.4219C104.891 82.3594 104.938 82.2969 104.969 82.2344C104.906 81.8281 104.922 81.4531 105.016 81.1094C105.141 80.7656 105.328 80.5156 105.578 80.3594C105.703 80.0469 105.766 79.7969 105.766 79.6094C105.797 79.3906 105.922 79.25 106.141 79.1875C106.141 79.0312 106.141 78.875 106.141 78.7188C106.172 78.5625 106.219 78.4375 106.281 78.3438C106.531 78.2188 106.656 78.0781 106.656 77.9219C106.688 77.7656 106.719 77.6094 106.75 77.4531C106.969 77.0781 107.109 76.7969 107.172 76.6094C107.266 76.4219 107.438 76.3125 107.688 76.2812C107.812 76.125 107.922 75.9844 108.016 75.8594C108.109 75.7031 108.219 75.5469 108.344 75.3906C108.594 75.2344 108.703 75.1406 108.672 75.1094C108.672 75.0781 108.672 75.0312 108.672 74.9688C108.922 74.4375 109.188 74.125 109.469 74.0312C109.75 73.9375 109.984 73.7812 110.172 73.5625C110.297 73.625 110.406 73.6406 110.5 73.6094C110.594 73.5469 110.688 73.5 110.781 73.4688C110.938 73.1875 111.094 72.9375 111.25 72.7188C111.438 72.4688 111.703 72.2969 112.047 72.2031C112.328 72.2969 112.516 72.3438 112.609 72.3438C112.703 72.3125 112.781 72.2656 112.844 72.2031C113 72.1406 113.141 72.0469 113.266 71.9219C113.391 71.7656 113.562 71.6719 113.781 71.6406C114.219 71.6406 114.594 71.6406 114.906 71.6406C115.25 71.6094 115.547 71.6406 115.797 71.7344C115.953 71.6719 116.109 71.625 116.266 71.5938C116.453 71.5312 116.641 71.5312 116.828 71.5938C117.641 71.625 118.219 71.6875 118.562 71.7812C118.656 71.8438 118.734 71.9375 118.797 72.0625C118.891 72.1562 118.984 72.25 119.078 72.3438C119.422 72.2812 119.688 72.3438 119.875 72.5312C120.219 72.5 120.5 72.5938 120.719 72.8125C120.969 73 121.219 73.1562 121.469 73.2812C122.094 73.3125 122.516 73.4531 122.734 73.7031C122.953 73.9219 123.016 74.2812 122.922 74.7812C123.078 74.7188 123.25 74.6719 123.438 74.6406C123.656 74.6094 123.797 74.6875 123.859 74.875C123.797 75.0312 123.719 75.1406 123.625 75.2031C123.531 75.2656 123.453 75.3438 123.391 75.4375C123.422 75.5938 123.516 75.7031 123.672 75.7656C123.828 75.7969 123.922 75.9062 123.953 76.0938C124.266 76.3125 124.438 76.4688 124.469 76.5625C124.5 76.625 124.531 76.7031 124.562 76.7969C124.844 77.0156 125 77.1719 125.031 77.2656C125.094 77.3281 125.156 77.4062 125.219 77.5C125.281 77.7812 125.344 77.9531 125.406 78.0156C125.5 78.0781 125.578 78.1406 125.641 78.2031C125.922 78.4219 126.016 78.5625 125.922 78.625C125.859 78.6562 125.828 78.7344 125.828 78.8594C125.891 79.0469 126.016 79.1719 126.203 79.2344C126.422 79.2656 126.531 79.4062 126.531 79.6562C126.844 79.9688 126.953 80.1719 126.859 80.2656C126.766 80.3594 126.688 80.4688 126.625 80.5938C126.656 80.8438 126.719 81.0156 126.812 81.1094C126.938 81.1719 127.031 81.2812 127.094 81.4375C126.938 81.75 126.875 81.9375 126.906 82C126.969 82.0625 126.984 82.1719 126.953 82.3281C127.016 82.4844 127.094 82.625 127.188 82.75C127.281 82.875 127.312 83.0625 127.281 83.3125C127.562 83.625 127.672 83.9531 127.609 84.2969C127.578 84.6406 127.578 85 127.609 85.375C127.703 85.625 127.75 85.9375 127.75 86.3125C127.75 86.7812 127.812 87.0938 127.938 87.25C128.062 87.375 128.156 87.5469 128.219 87.7656C128.188 88.0469 128.172 88.3594 128.172 88.7031C128.203 89.0156 128.047 89.2031 127.703 89.2656C127.703 89.4531 127.734 89.6094 127.797 89.7344C127.891 89.8281 127.969 89.9531 128.031 90.1094C128 90.5156 127.984 90.8125 127.984 91C128.016 91.1562 128.047 91.3125 128.078 91.4688C127.828 91.8125 127.688 92.0781 127.656 92.2656C127.625 92.4219 127.578 92.5625 127.516 92.6875C127.516 92.8438 127.516 93 127.516 93.1562C127.547 93.3125 127.562 93.4688 127.562 93.625C127.406 93.7812 127.359 94.0156 127.422 94.3281C127.484 94.6406 127.469 94.9219 127.375 95.1719C127.188 95.4531 127.125 95.6406 127.188 95.7344C127.281 95.8281 127.328 95.9844 127.328 96.2031C127.016 96.4531 126.844 96.6719 126.812 96.8594C126.812 97.0469 126.766 97.1875 126.672 97.2812C126.641 97.625 126.594 97.8438 126.531 97.9375C126.5 98 126.484 98.1094 126.484 98.2656C126.297 98.5469 126.125 98.7188 125.969 98.7812L125.875 99.2969C125.906 99.4844 125.938 99.6562 125.969 99.8125C126 99.9688 125.906 100.078 125.688 100.141C125.562 100.328 125.453 100.484 125.359 100.609C125.266 100.734 125.188 100.891 125.125 101.078C125.125 101.484 125.047 101.688 124.891 101.688C124.891 101.781 124.844 101.859 124.75 101.922C124.688 101.953 124.625 102.016 124.562 102.109C124.5 102.203 124.453 102.312 124.422 102.438C124.391 102.531 124.344 102.609 124.281 102.672C124.188 102.734 124.016 102.766 123.766 102.766L123.484 103.234C123.484 103.703 123.453 104 123.391 104.125C123.359 104.25 123.312 104.375 123.25 104.5C123.281 104.656 123.344 104.781 123.438 104.875C123.562 104.938 123.656 105.047 123.719 105.203C123.75 105.297 123.766 105.406 123.766 105.531C123.766 105.625 123.766 105.703 123.766 105.766C123.953 106.016 124.094 106.297 124.188 106.609C124.25 106.672 124.312 106.719 124.375 106.75C124.469 106.812 124.547 106.906 124.609 107.031C124.547 107.219 124.516 107.375 124.516 107.5C124.516 107.656 124.578 107.797 124.703 107.922C125.078 107.922 125.281 108.094 125.312 108.438C125.344 108.812 125.375 109.188 125.406 109.562C125.656 109.938 125.781 110.266 125.781 110.547C125.844 110.703 125.922 110.812 126.016 110.875C126.109 110.969 126.188 111.094 126.25 111.25C126.5 111.594 126.641 111.859 126.672 112.047C126.734 112.234 126.781 112.438 126.812 112.656C126.875 112.844 126.969 113 127.094 113.125C127.219 113.25 127.344 113.375 127.469 113.5C127.438 113.875 127.484 114.078 127.609 114.109C127.734 114.172 127.859 114.234 127.984 114.297C128.109 114.391 128.203 114.484 128.266 114.578C128.328 114.672 128.328 114.828 128.266 115.047C128.453 115.391 128.578 115.625 128.641 115.75C128.734 115.875 128.797 116.016 128.828 116.172C129.016 116.359 129.141 116.5 129.203 116.594ZM122.266 92.2656C122.203 91.9844 122.203 91.7344 122.266 91.5156C122.359 91.2656 122.453 91.0469 122.547 90.8594C122.422 90.3594 122.344 90.0469 122.312 89.9219C122.281 89.7656 122.281 89.5781 122.312 89.3594C122.406 89.0156 122.422 88.7969 122.359 88.7031C122.328 88.6094 122.344 88.4844 122.406 88.3281C122.312 88.1719 122.266 87.9688 122.266 87.7188C122.266 87.4375 122.281 87.1719 122.312 86.9219C122.438 86.2656 122.391 85.6875 122.172 85.1875C122.172 84.9375 122.125 84.7188 122.031 84.5312C121.969 84.3125 121.906 84.0938 121.844 83.875C122 83.5625 122 83.2656 121.844 82.9844C121.688 82.6719 121.625 82.3438 121.656 82C121.344 81.7188 121.188 81.3125 121.188 80.7812C121.125 80.6562 121.031 80.5469 120.906 80.4531C120.812 80.3281 120.781 80.1875 120.812 80.0312C120.5 80.0938 120.328 80.0156 120.297 79.7969C120.297 79.5781 120.281 79.375 120.25 79.1875C120.156 79.0312 120.047 78.9219 119.922 78.8594C119.797 78.7656 119.734 78.625 119.734 78.4375C119.578 78.375 119.484 78.2812 119.453 78.1562C119.422 78.0312 119.375 77.9219 119.312 77.8281C119.156 77.8906 119.031 77.8906 118.938 77.8281C118.875 77.7656 118.812 77.6875 118.75 77.5938C118.719 77.5 118.688 77.4062 118.656 77.3125C118.625 77.1875 118.578 77.0938 118.516 77.0312C118.266 77.0312 118.078 76.9531 117.953 76.7969C117.859 76.6406 117.688 76.5938 117.438 76.6562C117.344 76.5938 117.266 76.5312 117.203 76.4688C117.172 76.4062 117.109 76.3438 117.016 76.2812C116.922 76.3125 116.844 76.3594 116.781 76.4219C116.75 76.4844 116.672 76.5156 116.547 76.5156C116.422 76.4844 116.344 76.4219 116.312 76.3281C116.281 76.2031 116.188 76.125 116.031 76.0938C115.688 76.2188 115.453 76.2969 115.328 76.3281C115.203 76.3594 115.062 76.3906 114.906 76.4219C114.75 76.5469 114.594 76.6875 114.438 76.8438C114.281 76.9688 114.078 77.0469 113.828 77.0781C113.484 77.0781 113.297 77.1562 113.266 77.3125C113.234 77.4375 113.172 77.5312 113.078 77.5938C112.984 77.8125 112.875 77.9844 112.75 78.1094C112.625 78.2031 112.516 78.3281 112.422 78.4844C112.078 78.7344 111.875 78.9688 111.812 79.1875C111.781 79.4062 111.734 79.5938 111.672 79.75C111.391 80.1562 111.25 80.4219 111.25 80.5469C111.094 80.6719 111.016 80.8594 111.016 81.1094C111.047 81.3281 111.062 81.5156 111.062 81.6719C110.906 81.9531 110.828 82.1094 110.828 82.1406C110.859 82.1719 110.875 82.2188 110.875 82.2812C110.812 82.375 110.734 82.4688 110.641 82.5625C110.547 82.6562 110.531 82.7812 110.594 82.9375C110.5 83.5312 110.375 83.9375 110.219 84.1562C110.094 84.375 109.953 84.6094 109.797 84.8594C109.828 85.0156 109.812 85.1406 109.75 85.2344C109.688 85.2969 109.625 85.3906 109.562 85.5156C109.75 85.7344 109.812 86.0156 109.75 86.3594C109.719 86.6719 109.688 86.9688 109.656 87.25C109.844 87.5 109.891 87.7344 109.797 87.9531C109.422 88.3281 109.281 88.6094 109.375 88.7969C109.469 88.9531 109.547 89.1406 109.609 89.3594C109.422 89.6094 109.344 89.7812 109.375 89.875C109.406 89.9375 109.422 90.0312 109.422 90.1562C109.547 90.8125 109.641 91.2812 109.703 91.5625C109.797 91.8438 109.875 92.1406 109.938 92.4531C109.906 92.5781 109.891 92.6719 109.891 92.7344C109.922 92.7969 109.938 92.875 109.938 92.9688C110.031 93.125 110.141 93.25 110.266 93.3438C110.391 93.4375 110.453 93.5625 110.453 93.7188C110.453 93.8438 110.422 93.9531 110.359 94.0469C110.297 94.1094 110.25 94.2031 110.219 94.3281C110.281 94.3906 110.344 94.4688 110.406 94.5625C110.469 94.625 110.484 94.7344 110.453 94.8906C110.359 95.2656 110.344 95.5 110.406 95.5938C110.5 95.6875 110.578 95.7812 110.641 95.875C110.703 96 110.766 96.125 110.828 96.25C110.891 96.3438 110.953 96.4531 111.016 96.5781C110.953 96.7344 110.953 96.8438 111.016 96.9062C111.109 96.9688 111.125 97.0781 111.062 97.2344C111.219 97.5156 111.266 97.6719 111.203 97.7031C111.172 97.7344 111.141 97.7812 111.109 97.8438C111.359 97.9062 111.531 97.9688 111.625 98.0312C111.656 98.125 111.688 98.2188 111.719 98.3125C111.781 98.4062 111.828 98.5156 111.859 98.6406C112.016 98.8906 112.188 99.1094 112.375 99.2969C112.562 99.4531 112.734 99.6562 112.891 99.9062C113.047 100.125 113.203 100.297 113.359 100.422C113.641 100.609 113.812 100.703 113.875 100.703C113.938 100.703 114 100.719 114.062 100.75C114.281 100.844 114.406 100.906 114.438 100.938C114.5 100.938 114.562 100.938 114.625 100.938C114.75 101 114.844 101.078 114.906 101.172C115 101.234 115.094 101.312 115.188 101.406C115.438 101.438 115.625 101.438 115.75 101.406C115.875 101.375 116.031 101.328 116.219 101.266C116.312 101.266 116.406 101.281 116.5 101.312C116.594 101.312 116.688 101.312 116.781 101.312C116.906 101.281 117.016 101.25 117.109 101.219C117.203 101.188 117.328 101.188 117.484 101.219C117.859 101.031 118.078 100.906 118.141 100.844C118.234 100.75 118.375 100.719 118.562 100.75C118.625 100.656 118.672 100.562 118.703 100.469C118.734 100.344 118.812 100.25 118.938 100.188C119.031 100.156 119.125 100.141 119.219 100.141C119.344 100.141 119.438 100.109 119.5 100.047C119.688 99.6719 119.859 99.4688 120.016 99.4375C120.203 99.375 120.328 99.2812 120.391 99.1562C120.266 98.6562 120.328 98.375 120.578 98.3125C120.828 98.2188 121 98.0938 121.094 97.9375C121.062 97.6875 121.078 97.4844 121.141 97.3281C121.234 97.1719 121.25 96.9688 121.188 96.7188C121.281 96.375 121.453 96.0469 121.703 95.7344C121.828 95.3906 121.891 95.1094 121.891 94.8906C121.891 94.6719 121.844 94.4531 121.75 94.2344C121.812 94.0781 121.859 93.9375 121.891 93.8125C121.922 93.6562 121.969 93.5 122.031 93.3438C121.938 93.125 121.938 92.9375 122.031 92.7812C122.125 92.5938 122.203 92.4219 122.266 92.2656Z" fill="#A36514"/>
<g opacity="0.5">
<path d="M80.83 3.8201C79.6101 5.07845 76.6189 7.46845 74.373 9.06393L70.1523 11.9899L60.3324 12.2704L50.4438 12.5515L48.4489 17.5603L46.454 22.5692L43.3596 22.3327C39.5773 22.0365 36.1671 23.9046 34.834 27.003L33.9001 29.1128L33.7985 26.6177C33.7587 23.5966 35.2222 19.9717 36.8586 19.0382C37.609 18.6377 37.8768 18.11 37.5978 17.7839C36.6944 17.0034 33.8562 20.5744 33.0718 23.6025C32.5474 25.5117 32.5656 26.8909 33.135 28.3968C33.5627 29.5754 33.7191 31.0191 33.52 31.5463C33.1861 32.2716 33.4652 32.5977 34.3573 32.5244C35.3172 32.3849 35.6675 32.9074 35.83 34.8108C36.0707 37.436 35.3908 37.9673 33.9267 36.3377C33.438 35.7507 32.4729 35.4962 31.5834 35.7664C30.4192 36.0391 29.8653 35.7154 29.2298 34.4071C28.0996 32.0521 29.9456 31.3796 31.6905 33.4666C32.5965 34.4442 33.1494 34.7022 33.4859 34.1739C33.7546 33.7118 33.6129 33.3846 33.1321 33.3887C32.6513 33.3928 32.507 32.8686 32.7018 32.013C33.0288 30.7623 32.8897 30.6321 30.9029 31.0431C28.3675 31.5244 25.2433 34.2439 24.7223 36.4159C24.5275 37.2714 24.6848 38.7808 25.0412 39.763C25.9619 41.857 25.8941 41.9233 22.7413 42.4756C19.7937 42.9604 16.3428 41.7418 15.7708 40.0389C15.2727 38.7294 14.0311 38.3459 14.0458 39.4624C14.0631 40.7759 17.4635 43.3743 19.1807 43.3597C20.6232 43.3474 20.2867 43.8758 16.2173 47.8513C6.17859 57.592 3.11819 70.3605 8.00755 81.682L9.92017 86.0665L8.49588 87.458C6.52901 89.3795 6.82714 91.1504 9.45465 92.4417C10.4928 93.024 10.1563 93.5523 6.62426 96.6038L2.54794 100.054L4.90935 102.004C6.22916 103.11 8.80789 105.912 10.6258 108.327L13.9114 112.634L13.8274 121.896L13.7434 131.158L17.1283 132.574C18.9246 133.347 21.6173 134.375 22.998 134.889C25.276 135.723 25.5551 136.05 25.0229 137.368C23.8298 140.662 26.2241 145.108 30.2306 146.782L32.3025 147.618L29.3497 147.709C26.1214 147.736 24.2572 147.03 21.8254 144.948C20.9229 144.234 20.2317 143.911 20.2369 144.305C20.2646 146.407 27.0386 149.568 29.9131 148.755C30.6661 148.551 31.8973 148.147 32.6503 147.943C33.7459 147.671 34.0232 147.866 34.0423 149.311C34.1011 153.777 38.8909 157.546 42.7193 156.134C45.5904 155.059 45.7991 155.254 45.8528 159.326C45.8978 162.741 45.7004 163.399 44.0674 164.596C43.1162 165.392 42.5084 166.185 42.7866 166.446C43.483 167.162 46.5316 163.918 46.9177 161.944L47.3056 160.102L49.5357 162.513C56.2955 169.812 64.1781 173.686 73.9458 174.654C78.8974 175.071 84.1057 174.108 88.6793 171.901C91.3408 170.565 91.9573 170.428 92.3111 171.213C92.5241 171.737 93.4962 172.517 94.5317 172.902C96.1211 173.611 96.4637 173.543 97.5454 172.22L98.7627 170.765L102.662 174.738L106.561 178.646L108.252 176.661C109.2 175.602 112.121 173.147 114.707 171.286L119.47 167.83L129.363 167.811L139.256 167.859L141.449 162.257C143.444 157.314 143.85 156.785 144.956 157.367C147.792 158.788 155.029 155.442 154.993 152.684C154.986 152.158 154.777 151.897 154.505 152.097C154.302 152.361 152.986 151.518 151.732 150.215C150.477 148.847 149.569 147.672 149.704 147.54C150.383 146.877 153.915 149.08 153.86 150.132C153.799 150.723 154.358 151.375 155.047 151.567C155.806 151.823 156.363 152.344 156.369 152.803C156.402 155.365 155.339 158.067 153.577 159.921C151.409 162.172 151.562 163.353 153.802 161.364C156.858 158.645 157.966 154.103 156.336 150.308C155.697 148.737 155.764 148.605 157.756 148.588C161.808 148.553 165.206 145.7 165.161 142.285C165.128 139.789 164.429 138.941 162.645 139.088C161.822 139.161 160.441 138.647 159.54 137.998L157.875 136.764L159.66 136.749C160.691 136.74 161.865 137.19 162.352 137.711C162.98 138.428 163.463 138.555 164.005 138.025C164.344 137.694 166.195 137.35 168.049 137.334C170.797 137.311 171.694 137.632 173.432 139.193C174.684 140.365 175.445 140.753 175.437 140.161C175.416 138.585 172.711 136.638 170.513 136.656L168.384 136.675L172.322 133.16C180.131 126.262 184.072 117.756 183.947 108.233C183.882 103.307 182.15 97.0165 180.127 94.6691C179.638 94.0821 179.837 93.555 180.858 92.8238C182.901 91.4271 182.858 88.209 180.859 87.6349C179.479 87.1868 179.749 86.8561 183.343 83.2787L187.277 79.4356L185.404 78.0722C184.363 77.2929 181.785 74.5561 179.689 71.8809L175.848 67.1187L175.724 57.7272L175.599 48.2699L173.389 47.3691C172.146 46.8543 169.73 45.9552 168.004 45.3131C164.967 44.2223 164.897 44.1572 165.069 41.5941C165.361 37.6507 162.208 32.9483 159.323 32.9728C158.017 32.9183 158.016 32.8526 159.038 32.2527C160.743 31.3187 165.5 32.5919 167.657 34.6097C169.882 36.6927 170.698 36.0289 168.54 33.8797C165.755 31.079 160.661 30.2685 156.562 32.0111C155.538 32.4796 155.399 32.3494 155.727 31.1643C156.387 29.1225 154.206 25.2658 151.718 24.1046C149.575 23.0719 143.878 23.4488 145.678 24.5501C146.301 24.8732 146.373 25.1353 145.828 25.4683C145.419 25.7346 145.219 26.196 145.43 26.5227C145.85 27.1759 144.374 29.8158 143.618 29.8222C142.657 29.8304 143.036 27.3312 144.052 26.2716C144.935 25.4759 144.997 24.95 144.295 23.8393C142.888 21.3553 143.856 16.6179 146.101 14.8911C147.46 13.763 147.729 13.3666 146.836 13.3742C145.325 13.387 142.893 16.4948 142.919 18.465C142.93 19.3188 142.663 19.9122 142.386 19.7175C142.109 19.5885 141.846 20.4446 141.863 21.7581C141.883 23.2687 141.417 24.3892 140.601 25.053C139.376 25.9173 139.238 25.8528 139.016 24.6067C138.869 23.8854 139.396 22.1732 140.202 20.787L141.681 18.3442L137.232 14.3754C132.158 9.88638 126.072 6.78535 120.286 5.65224C114.433 4.58539 106.817 5.30696 101.968 7.45002C97.9377 9.19203 97.9377 9.19203 96.9587 7.8867C95.7693 6.25475 92.9522 6.213 92.0105 7.73172C91.4061 8.78777 90.8523 8.46407 87.3737 5.14382C85.2862 3.1254 83.409 1.43361 83.3404 1.43419C83.2717 1.43478 82.1178 2.4955 80.83 3.8201ZM81.4402 8.41271C80.4898 9.27467 79.469 10.0059 79.2629 10.0076C78.5073 10.014 78.9656 8.30238 80.31 6.05774C81.7908 3.74626 81.7908 3.74626 82.4976 5.25096C83.1323 6.49354 82.9331 7.02068 81.4402 8.41271ZM85.4051 6.93399L86.537 9.4203L84.9528 9.10536C82.8165 8.59805 80.9071 9.66522 82.8382 10.2399C83.5972 10.4962 84.6963 10.4869 85.3119 10.2846C86.7465 9.68126 87.0325 10.5327 86.5272 13.8868C86.1532 16.78 86.0845 16.7806 85.5107 14.9464C85.1525 13.8328 85.2048 12.5844 85.6091 11.9898C86.2152 11.0651 86.0074 10.9355 84.0867 11.1489C80.8635 11.5704 80.2193 9.60537 83.2252 8.33186C84.386 7.79653 84.999 7.39722 84.586 7.33505C84.1052 7.33914 83.6827 6.55453 83.6697 5.5694C83.642 3.46779 83.9889 3.72757 85.4051 6.93399ZM111.436 6.51566C111.705 6.11928 112.25 5.78623 112.663 5.78272C113.075 5.77922 112.876 6.37205 112.199 7.10033C110.98 8.42434 109.407 8.96318 110.079 7.84086C110.281 7.51072 109.728 7.25269 108.766 7.26086C107.805 7.26903 107.259 7.53641 107.469 7.86304C107.679 8.18967 108.301 8.44711 108.851 8.44244C109.4 8.43777 109.747 8.69756 109.545 9.02768C109.344 9.3578 108.452 9.49675 107.558 9.37298C106.18 9.12196 106.181 9.18764 107.77 9.83097C108.806 10.2819 109.155 10.6731 108.677 10.8742C108.197 11.0096 106.889 10.758 105.713 10.1769C104.539 9.66138 103.781 9.53645 103.992 9.86309C104.481 10.5157 103.59 10.6547 102.002 10.077C100.208 9.43546 100.744 8.44566 102.809 8.69085C103.91 8.87854 105.211 8.53906 106.026 7.80962C107.656 6.41642 109.915 5.80608 110.544 6.6546C110.824 6.98065 111.166 6.91205 111.436 6.51566ZM116.999 6.4027C117.209 6.72932 117.145 7.05829 116.801 7.06121C116.458 7.06413 115.984 7.59361 115.855 8.25153C115.658 8.91004 114.296 9.84117 112.654 10.3806C111.149 10.8532 109.852 11.4553 109.855 11.6524C109.857 11.8494 110.49 12.9606 111.261 14.1363C112.103 15.4429 112.609 17.3433 112.564 19.1172C112.6 21.8755 112.533 22.0075 110.944 21.2985C110.045 20.912 108.932 19.8049 108.506 18.7576C107.728 17.0564 107.105 16.7333 105.322 16.9455C104.842 17.0153 104.424 16.6247 104.418 16.0993C104.41 15.5082 103.574 14.6615 102.538 14.2105L100.74 13.3062L102.796 12.9603C106.293 12.4708 107.678 13.3129 108.615 16.6548C109.049 18.2932 109.687 19.7984 110.033 19.9926C110.31 20.1216 110.232 19.3997 109.873 18.2862C109.447 17.1732 109.221 15.7301 109.418 15.0059C109.613 14.1504 109.471 13.8232 108.995 14.1556C108.517 14.4224 108.445 14.1603 108.71 13.4355C108.976 12.7764 108.903 12.4486 108.495 12.7148C108.154 12.9148 107.259 12.791 106.636 12.4022C105.528 11.7548 105.597 11.7542 106.906 12.0715C108.285 12.4539 109.441 11.5245 109.49 10.0791C109.485 9.68502 110.032 9.48332 110.719 9.47748C111.338 9.53791 111.679 9.33795 111.469 9.01133C111.258 8.68471 112.14 7.82334 113.367 7.0904C115.957 5.55768 116.368 5.48849 116.999 6.4027ZM122.163 7.34404C122.915 7.07491 123.535 7.20101 123.541 7.59506C123.552 8.44884 120.471 9.26321 119.502 8.68031C119.087 8.48679 118.735 7.83295 118.727 7.24188C118.717 6.45377 118.922 6.38635 119.755 7.0361C120.31 7.42547 121.342 7.61375 122.163 7.34404ZM96.3725 10.3219C95.9777 11.639 95.8412 11.7058 94.8674 10.7945C94.0328 10.0134 93.6885 9.95067 93.285 10.6109C92.4102 11.9977 91.9147 10.8853 92.5791 9.1719C92.9112 8.3152 93.2495 7.91823 93.2555 8.37795C93.3303 8.83711 93.8137 9.03004 94.3606 8.82835C94.9067 8.56097 95.1754 8.09891 94.9633 7.64093C94.6833 7.24922 94.9598 7.37822 95.5849 7.89837C96.2796 8.48361 96.5673 9.46641 96.3725 10.3219ZM118.768 10.3286C118.776 10.9854 118.376 11.8427 117.831 12.2414C117.288 12.7058 116.893 14.0228 116.909 15.2049C116.954 18.6857 116.167 21.5168 115.137 21.5256C114.107 21.5343 114.05 17.2654 114.991 15.681C115.395 15.0208 115.324 14.89 114.848 15.2225C114.371 15.4893 114.027 15.4922 114.023 15.1638C114.019 14.9011 113.801 13.9834 113.584 13.1314C113.227 12.1491 113.427 11.6877 114.114 11.6818C115.419 11.6707 117.519 9.41967 116.892 8.76818C116.614 8.50781 116.889 8.50548 117.579 8.76234C118.2 8.95411 118.759 9.67186 118.768 10.3286ZM129.435 11.8143C130.531 11.5423 131.151 11.6684 131.157 12.1281C131.162 12.5222 131.926 13.1725 132.892 13.4927C133.858 13.8129 134.622 14.3976 134.627 14.7916C134.631 15.12 135.254 15.4431 136.078 15.4361C136.834 15.4297 137.386 15.622 137.252 15.8859C135.646 19.118 135.039 19.977 133.741 20.5792C132.582 21.1802 132.515 21.3121 133.545 21.3034C134.782 21.3586 135.139 22.3408 134.116 22.9406C133.775 23.1405 133.154 22.8831 132.666 22.3618C132.178 21.8405 131.073 21.3901 130.18 21.3977C129.356 21.4047 127.697 20.6306 126.654 19.7199C125.474 18.7447 125.191 18.156 125.881 18.4128C129.605 19.4321 132.842 20.1271 133.113 19.7964C133.316 19.5976 131.66 19.0205 129.454 18.4481C123.802 16.9855 123.733 16.986 126.274 16.8988C127.509 16.8226 129.576 17.2648 130.957 17.7785C132.269 18.2928 133.163 18.4166 132.953 18.09C132.673 17.6983 133.216 17.1682 134.104 16.8322C135.335 16.362 134.853 16.3004 132.105 16.3237C128.603 16.4192 125.7 15.0645 125.677 13.357C125.672 12.9629 126.363 13.2855 127.267 14.066C128.17 14.8465 129.621 15.491 130.582 15.4171C132.024 15.3392 131.954 15.2741 130.024 14.765C128.783 14.4472 127.329 13.54 126.7 12.7571C125.999 11.7122 125.654 11.5837 125.594 12.2411C125.603 12.8978 125.395 12.7682 125.04 11.9174C124.756 11.1973 124.604 10.082 124.801 9.42346C125.063 8.436 125.339 8.56501 126.392 10.2638C127.513 11.8963 127.997 12.155 129.435 11.8143ZM121.887 12.404C120.95 14.3167 120.027 17.2803 119.844 18.9896C119.592 20.7652 119.336 22.1467 119.267 22.1473C117.55 22.1619 117.056 21.1808 117.298 18.6828C117.484 17.1705 118.012 15.524 118.417 14.9951C118.822 14.4662 119.086 13.6101 119.009 13.0196C118.714 11.4457 120.275 10.0531 123.354 9.04167C123.421 8.9754 122.755 10.5575 121.887 12.404ZM91.6442 11.216C93.0379 12.7149 95.4447 12.8915 96.7333 11.6325C97.4115 10.9699 97.688 11.099 98.3201 12.1445C100.85 16.4581 112.355 24.1108 120.012 26.5417C123.669 27.7586 133.496 28.0035 137.193 27.0525L139.247 26.5095L137.003 28.302C134.896 29.962 132.806 33.0012 132.826 34.5117C132.845 35.9566 133.932 35.0278 134.93 32.589C135.93 30.2816 140.819 25.905 142.399 25.8916C142.673 25.8893 142.755 26.8738 142.565 28.0577C141.999 32.0692 147.757 36.2896 152.139 35.2014C153.44 34.862 153.579 34.9921 153.18 36.0465C151.916 39.1443 152.023 42.0334 153.578 45.37C154.428 47.2676 155.409 48.77 155.753 48.767C156.646 48.7595 156.504 48.4322 155.029 46.0145C152.994 42.7477 152.398 39.2059 153.755 37.9464C154.366 37.35 154.835 36.4922 154.828 35.9668C154.816 35.0473 156.248 34.2469 158.579 33.8987C159.538 33.6935 159.135 34.3538 157.098 36.2102C155.468 37.6034 154.182 39.0593 154.187 39.4534C154.209 41.0953 157.333 43.5647 160.158 44.1975C162.501 44.7687 163.124 45.1575 162.929 46.013C162.731 46.6059 162.28 48.8429 161.964 50.9475L161.26 54.8944L167.935 60.9462C175.792 68.1045 175.719 67.7767 170.828 77.1452L167.882 82.9503L172.303 84.8175C174.79 85.8473 177.068 86.6818 177.48 86.6783C177.892 86.6748 178.101 86.9358 177.831 87.2665C177.629 87.5966 178.047 88.0528 178.668 88.2446C179.426 88.4352 179.221 88.5026 178.19 88.4457C176.883 88.3255 176.407 88.6579 176.285 89.8413C176.159 90.6962 176.448 91.8104 177.006 92.3968C177.773 93.3098 177.776 93.5068 176.886 93.7771C174.696 94.3869 168.269 101.864 165.248 107.21C161.355 114.205 159.655 120.722 160.486 126.429C160.79 128.66 161.099 131.219 161.18 132.138C161.261 133.057 161.691 134.433 162.182 135.217C162.955 136.524 162.887 136.59 160.273 136.284C158.14 136.039 157.181 136.244 156.094 137.173C153.989 139.03 152.787 141.668 152.822 144.36C152.85 146.462 152.715 146.66 151.539 146.013C149.326 144.916 144.798 145.348 141.521 146.887C139.814 147.689 138.452 148.62 138.456 148.883C138.465 149.606 138.328 149.607 142.15 147.735C143.993 146.8 146.593 146.055 147.968 146.109L150.442 146.154L148.187 147.093C145.592 148.231 143.3 151.535 143.335 154.228C143.353 155.607 143.084 156.003 142.324 155.681C141.772 155.489 139.223 154.985 136.677 154.613L132.064 153.864L125.761 160.354C119.998 166.183 119.25 166.715 117.527 166.336C116.08 166.02 108.965 162.993 103.365 160.348C102.951 160.154 100.739 164.377 99.2811 168.396C98.8854 169.647 98.8167 169.647 97.7682 168.277C96.5093 166.58 94.9277 166.462 93.366 167.855C92.2791 168.783 92.0713 168.654 90.322 166.238C87.872 162.778 81.3555 158.301 73.9607 154.949L68.0867 152.306L59.1562 152.316C52.2177 152.309 49.9536 152.526 48.7267 153.258C47.8416 153.857 46.9521 154.127 46.6738 153.867C46.4652 153.672 45.8487 153.808 45.3053 154.273C44.8296 154.671 44.2132 154.808 43.9349 154.547C43.7263 154.352 43.8611 154.154 44.4106 154.149C45.0288 154.144 45.0253 153.881 44.5367 153.294C44.0489 152.773 44.1768 152.049 45.1237 150.925L46.4089 149.403L46.4331 151.242C46.5235 152.883 46.593 152.948 47.1982 151.958C48.7435 149.317 44.4971 145.084 39.6124 144.534C36.9292 144.229 36.7901 144.099 37.2493 142.453C38.0354 139.556 37.5079 136.014 35.8221 133.204C33.7851 129.805 33.2494 130.861 35.1517 134.457C35.995 135.895 36.6435 138.188 36.593 139.568L36.5572 142.065L35.567 139.905C34.4359 137.485 30.9025 135.216 28.2923 135.238L26.5063 135.253L27.3491 131.436C27.8718 129.396 28.2527 127.028 28.2432 126.306C28.2311 125.386 25.8593 122.648 21.6164 118.677L15.0087 112.493L16.0653 109.266C16.661 107.553 18.1949 104.059 19.5367 101.617C20.8767 99.0442 21.6045 96.9362 21.2568 96.6108C20.1456 95.7006 13.2429 93.1977 12.9047 93.5947C12.7012 93.7934 13.8785 94.5059 15.5365 95.2144C18.6449 96.5016 18.1005 96.9003 14.2444 96.2106C12.4542 95.8974 12.1047 95.4406 11.877 93.8004C11.7197 92.2911 11.2302 91.6384 9.92075 91.3211L8.19746 90.876L10.1199 90.794C11.1494 90.7195 11.9771 90.9752 11.9823 91.3693C11.9979 92.5514 13.296 92.0149 13.6909 90.6979C13.9552 89.9075 13.664 88.662 13.0337 87.7478C12.4729 86.8987 12.1878 86.1129 12.5295 85.9786C12.8025 85.845 12.7191 84.7291 12.3592 83.4842C11.7811 81.3215 11.6429 81.257 10.7664 82.5125C9.82117 83.7685 9.82117 83.7685 9.73516 82.4555C9.65782 81.7994 9.64656 80.9456 9.71092 80.6166C9.77528 80.2877 9.62837 79.5664 9.34583 78.9777C9.06327 78.3889 8.76947 76.9464 8.68606 75.8305C8.59486 74.1235 8.7279 73.794 9.49128 74.3786C9.97816 74.8343 10.2659 75.8171 10.0737 76.8696C9.81626 78.1855 9.88668 78.3162 10.2858 77.3276C10.6867 76.4703 11.0276 76.2704 11.3779 76.7929C11.6579 77.1846 11.5335 78.1709 11.1309 78.8968C10.6622 79.8203 10.6674 80.2144 11.1482 80.2103C12.2472 80.201 13.3708 76.8416 12.4666 75.9954C12.1188 75.67 11.7745 75.6072 11.7779 75.8699C11.7823 76.1983 10.8085 75.287 9.55391 73.9183C8.36714 72.4834 7.60377 71.8987 7.81763 72.4881C8.10104 73.1425 8.03928 73.6685 7.69584 73.6714C7.35239 73.6743 7.06032 72.3631 7.03953 70.7869C6.93361 67.9635 6.93274 67.8978 8.59167 68.6719C9.55852 69.0578 10.321 69.5767 10.3236 69.7738C10.3271 70.0365 10.8244 71.2802 11.3921 72.6547L12.5223 75.0097L14.8404 73.6763C16.3403 72.8097 18.3262 72.333 20.1817 72.383C23.0666 72.3584 23.2049 72.4229 22.4692 73.9399C22.0683 74.7972 20.9145 75.8579 19.8893 76.2607C18.5911 76.7972 17.9825 77.5249 17.9963 78.5757C18.0076 79.4295 17.4685 80.2223 16.7163 80.4914C16.032 80.6943 15.1495 81.49 14.7486 82.3472C14.1469 83.6003 14.0069 83.4045 13.9722 80.7774C13.8577 77.2972 14.4663 76.5696 18.0991 75.9475C19.5381 75.6726 20.8371 75.2017 21.0388 74.8716C21.2414 74.6072 20.2798 74.6153 18.979 74.9548C17.6791 75.36 16.0332 75.571 15.4133 75.4449C14.7246 75.3194 14.1786 75.5868 14.1847 76.0465C14.1898 76.4405 13.9916 77.0334 13.6516 77.299C12.9742 78.0273 13.1408 85.448 13.8963 85.4416C15.6136 85.427 22.436 76.6332 25.65 70.3003L29.1317 63.4397L29.0313 55.8214L28.93 48.1374L31.2253 50.2854C32.4773 51.457 33.7954 52.4311 34.1388 52.4281C34.4136 52.4258 35.1717 52.6164 35.7925 52.8082C36.4133 52.9999 36.8924 52.8645 36.8881 52.5361C36.8829 52.1421 36.1891 51.6225 35.2935 51.4331C33.3624 50.8583 29.47 47.4103 28.1346 45.1227C26.7974 42.7038 26.8644 42.5719 28.8676 43.4087C31.6308 44.5675 34.6315 42.8999 36.1654 39.4057C36.9002 37.8231 37.3542 35.7831 37.136 34.8654C36.8448 33.6199 37.0474 33.3554 37.9455 33.7419C41.2591 34.9617 44.6909 34.7355 48.2394 32.9319C50.2192 31.9955 51.6487 30.9981 51.4401 30.8028C51.2305 30.5419 49.8628 31.0133 48.4299 31.748C44.8145 33.6835 41.1809 34.2398 40.0654 33.0013C39.5776 32.48 38.816 32.0267 38.3352 32.0308C37.8543 32.0349 37.024 31.5822 36.5354 30.9952C35.559 29.8869 34.9088 27.4622 35.5957 27.4563C36.2139 27.4511 39.0691 30.3825 39.9811 31.8198C40.5427 32.7346 40.8871 32.7973 42.3896 32.1277C44.4381 31.1907 46.865 27.6889 46.8364 25.5216C46.8261 24.7335 46.8861 24.0762 47.0235 24.075C47.0922 24.0745 49.5023 24.5137 52.3255 25.0152L57.4893 25.8909L63.8647 19.6625C67.3915 16.217 70.5827 13.3655 71.0635 13.3614C72.7807 13.3468 79.4773 15.8515 83.0751 17.7914C85.0827 18.9567 86.8112 19.7959 86.9468 19.6633C87.5555 18.9357 90.6182 11.5532 90.6104 10.9621C90.5366 10.5686 89.794 11.5602 88.9227 13.2096C87.3131 16.179 86.8958 15.7885 87.6011 11.9729C88.1195 9.60391 89.7637 9.26151 91.6442 11.216ZM80.654 11.3094C80.8644 11.6361 81.693 11.9574 82.3799 11.9516C83.2728 11.944 83.9006 12.6612 84.4039 14.3646C85.4819 17.968 85.4149 18.1 83.1274 16.543C81.3259 15.3761 78.948 12.1778 78.9324 10.9957C78.9246 10.4046 80.1636 10.5911 80.654 11.3094ZM74.9014 12.672C75.3136 12.6685 75.4475 12.4046 75.2371 12.078C74.6067 11.1638 77.4343 11.9936 78.2715 12.9718C78.6897 13.428 78.7653 13.9528 78.4932 14.1522C77.6063 14.6195 73.4598 12.7499 73.5164 11.8299C73.5086 11.2388 73.646 11.2376 73.9285 11.8264C74.072 12.2849 74.558 12.6749 74.9014 12.672ZM104.36 11.7647C102.998 12.6302 99.5634 12.6594 99.5522 11.8056C99.547 11.4116 100.849 11.1378 102.497 11.1238C104.626 11.1057 105.11 11.2986 104.36 11.7647ZM53.2739 13.5783C53.5556 14.1014 53.8981 14.0328 54.3025 13.4382C54.7738 12.7117 54.9112 12.7106 54.9224 13.5643C54.9302 14.1554 55.8526 16.3808 57.048 18.4725C58.1748 20.5647 58.8181 22.4641 58.4755 22.5327C58.0651 22.6675 58.0016 23.0622 58.2129 23.4545C58.4928 23.8462 58.2893 24.0449 57.7372 23.8526C56.22 23.4057 52.0077 16.5448 53.0338 16.2077C53.5128 16.0723 53.9963 16.2652 54.1388 16.6581C54.2823 17.1166 54.6987 17.4415 55.0422 17.4386C55.3169 17.4363 55.4483 16.9754 55.2353 16.4517C54.9536 15.9287 54.1232 15.4759 53.299 15.4829C52.2686 15.4917 51.7818 15.036 51.7018 14.1829C51.5454 12.7392 52.5027 12.4026 53.2739 13.5783ZM59.7976 13.3915C59.0481 13.8577 59.0498 13.989 59.8097 14.311C60.5696 14.6329 60.5044 14.8962 59.621 15.6262C58.601 16.4231 58.5367 16.7521 59.3739 17.7302C60.2129 18.8397 60.2807 18.7734 60.1939 17.3948C60.1009 15.5565 61.4661 14.8881 62.1059 16.5247C62.3206 17.1797 62.7449 18.0956 62.9579 18.6193C63.2404 19.208 63.1048 19.3405 62.6205 19.0819C62.2049 18.8227 61.6589 19.0901 61.4606 19.6829C60.7284 21.4626 58.2888 18.7903 57.0004 14.8603C56.4988 13.2882 56.6344 13.1557 58.6247 13.0074C59.9967 12.8644 60.4106 12.9922 59.7976 13.3915ZM65.9161 13.7336C62.772 14.9426 62.0164 14.949 61.52 13.771C61.2349 12.9852 61.7818 12.7835 64.7363 12.8241L68.309 12.8594L65.9161 13.7336ZM125.139 14.2154L126.333 16.1758L124.341 16.1927C122.143 16.2114 122.072 16.0806 122.659 13.711C123.184 11.8018 123.734 11.8628 125.139 14.2154ZM66.4238 15.7655C65.4743 16.6931 64.3144 17.2941 63.8988 17.0349C62.7911 16.3875 63.0563 15.6627 64.7631 14.86C67.4943 13.5888 68.255 13.9765 66.4238 15.7655ZM53.1483 19.6879C53.5022 20.4731 53.3743 21.1967 52.8291 21.5297C52.2153 21.8634 52.3552 22.0592 53.3169 22.0511C54.0725 22.0446 55.1106 22.627 55.6009 23.3453C56.373 24.5867 56.3043 24.5873 53.1394 24.2201C51.3509 24.0383 49.4224 23.6605 48.8685 23.3368C48.3156 23.0788 49.2077 23.0055 50.9266 23.1223C53.1968 23.3657 53.7455 23.2954 52.983 22.7764C52.4283 22.387 51.0501 22.0703 50.0198 22.0791L48.0965 22.0954L49.38 20.4424C50.3269 19.3178 50.6539 18.067 50.4288 16.6239L50.1263 14.5247L51.3887 16.4844C52.0903 17.5951 52.9336 19.0329 53.1483 19.6879ZM124.517 19.1469L127.158 21.4234L125.313 22.1616C124.219 22.565 122.923 23.2985 122.312 23.8291C121.293 24.6917 121.155 24.6272 120.794 23.3166C120.509 22.5308 120.633 21.5445 120.904 21.2138C121.242 20.8168 121.433 19.6986 121.351 18.6484C121.269 17.6638 121.327 16.8751 121.465 16.874C121.671 16.8722 122.99 17.9119 124.517 19.1469ZM138.986 17.1848C139.264 17.3795 139.069 18.235 138.529 18.9621C138.058 19.7543 137.396 21.5991 137.142 23.1776C136.7 26.1371 135.33 26.4115 135.634 23.4532C135.879 21.2179 137.538 16.7373 138.087 16.7327C138.362 16.7303 138.777 16.9239 138.986 17.1848ZM45.0358 24.4203C45.5253 25.073 45.8139 26.1215 45.6843 26.7137C45.4217 27.6355 44.9383 27.4426 42.9916 25.6857C41.67 24.449 40.625 23.3412 40.6233 23.2099C40.612 22.3561 44.1977 23.3765 45.0358 24.4203ZM118.11 22.9453C118.597 23.4009 118.95 24.1861 118.957 24.7115C118.901 25.6316 118.763 25.5671 117.994 24.5884C117.505 24.0014 116.537 23.4841 115.919 23.4894C115.232 23.4952 114.953 23.1692 115.154 22.8391C115.692 21.9149 117.066 21.9689 118.11 22.9453ZM131.919 23.025C133.025 23.541 133.99 23.7956 134.194 23.6624C134.33 23.5299 134.544 24.1193 134.624 24.9724C134.784 26.7445 134.171 27.0781 132.849 25.8414C132.154 25.1905 131.673 25.1946 130.719 25.7938C129.765 26.3931 129.284 26.3972 128.658 25.8114C128.102 25.2906 127.551 25.2296 126.666 25.8283C125.711 26.3619 125.092 26.3014 124.191 25.6523C123.013 24.8741 123.012 24.8084 124.723 24.3341C125.682 24.1289 126.363 23.6633 126.153 23.4024C125.803 22.8799 130.967 23.7556 132.281 24.4669C132.766 24.7255 132.833 24.5936 132.346 24.1379C131.997 23.7468 130.547 23.168 129.237 22.8507C127.445 22.3405 127.237 22.2109 128.404 22.1353C129.296 22.062 130.882 22.5083 131.919 23.025ZM40.5205 25.8381C42.5994 27.1997 43.8035 29.9482 42.7861 30.9421C42.2435 31.4721 41.8297 31.3443 41.3384 30.5603C40.9872 29.9721 39.7326 28.6034 38.6197 27.562C35.8375 24.9583 37.2635 23.6982 40.5205 25.8381ZM151.799 25.0892C153.184 25.8656 149.571 27.9982 147.778 27.4879C146.467 27.0393 146.397 26.9742 147.549 25.7821C148.768 24.4581 150.345 24.182 151.799 25.0892ZM154.52 28.2188C154.948 29.3975 152.01 30.6704 151.037 29.7591C150.48 29.2384 150.612 28.7775 151.632 28.0463C153.062 27.0489 154.162 27.1053 154.52 28.2188ZM149.106 29.2501C149.595 29.8371 149.399 30.6269 148.318 31.9498C146.966 33.6033 146.692 33.6713 145.855 32.7589C145.088 31.9115 145.082 31.4518 145.821 30.1319C146.828 28.3499 147.991 28.0116 149.106 29.2501ZM154.51 32.6853C154.185 34.0674 153.707 34.3342 151.716 34.3512C149.105 34.3734 148.825 33.9816 150.243 32.0648C150.984 31.0076 151.396 30.9384 152.229 31.5881C153.062 32.2379 153.335 32.1699 153.668 31.3132C154.333 29.6654 154.965 30.711 154.51 32.6853ZM28.6367 36.3169C29.547 37.6229 29.6218 38.082 28.8792 39.0736C28.0688 40.1314 27.9314 40.1325 26.742 38.5006C25.5518 36.8029 25.6623 34.7659 26.9674 34.7548C27.3109 34.7518 28.076 35.4678 28.6367 36.3169ZM161.989 37.2195C161.793 37.9437 160.574 39.2677 159.28 40.1326C157.373 41.3968 156.757 41.5991 156.062 40.9482C155.435 40.2967 155.703 39.7689 157.539 38.374C158.831 37.3778 160.19 36.2496 160.596 35.7864C161.614 34.7925 162.449 35.6392 161.989 37.2195ZM33.8101 37.915C34.7134 38.6956 35.2055 39.5452 34.9394 40.2043C34.4081 41.5882 33.1021 41.5336 31.1589 40.0394C29.7713 39.0003 29.6982 38.6725 30.4417 37.7466C31.5921 36.4232 31.8669 36.4209 33.8101 37.915ZM164.16 40.3539C164.18 41.8644 162.757 43.3872 161.316 43.4651C160.011 43.4762 160.206 42.6207 161.764 40.9654C162.509 40.1708 163.114 39.1805 163.109 38.7864C163.103 38.3267 163.307 38.1936 163.585 38.4539C163.864 38.7143 164.15 39.5658 164.16 40.3539ZM27.114 40.665C27.1184 40.9933 27.5322 41.1212 28.0105 40.9201C28.5574 40.7184 29.7311 41.1682 30.6345 41.9487L32.3004 43.2482L30.304 42.9367C28.2399 42.6915 24.6326 40.0292 26.2811 40.0152C26.7619 40.0111 27.1088 40.2709 27.114 40.665ZM26.6295 45.5953C28.0266 47.3568 26.4494 47.5673 22.036 46.2912C21.0708 46.0366 21.1413 46.1674 22.3872 46.8793C23.3558 47.3965 23.774 47.8528 23.3627 47.9219C23.0192 47.9249 22.1211 47.5384 21.3594 47.0851C20.1805 46.2412 20.1787 46.1099 21.603 44.7184C22.8239 43.5258 23.2351 43.4566 24.6176 44.1017C25.4479 44.5544 26.3495 45.2036 26.6295 45.5953ZM24.7486 48.8297C26.6762 49.1418 27.7804 49.5265 27.3031 49.7932C25.2589 51.0586 18.297 49.2787 18.2736 47.5054C18.2615 46.586 18.4676 46.5842 19.8526 47.4263C20.6838 47.9447 22.8905 48.5828 24.7486 48.8297ZM164.066 48.8277C163.766 52.1801 164.653 51.7128 165.227 48.2924L165.607 45.9246L167.55 47.3531C168.591 48.1324 169.427 49.0449 169.431 49.3733C169.445 50.4241 167.448 50.047 166.745 48.805C166.325 48.2174 165.979 48.0233 165.983 48.3517C165.988 48.7457 166.34 49.3996 166.827 49.8552C167.244 50.2457 167.39 50.8356 167.118 51.1007C166.847 51.3657 166.364 51.1728 166.013 50.6503C165.384 49.8018 165.315 49.8024 165.326 50.6561C165.333 51.1815 164.726 52.0406 163.977 52.5067C162.682 53.3059 162.613 53.2408 162.989 50.5446C163.609 45.4818 164.418 44.2926 164.066 48.8277ZM17.557 50.4672C17.6127 49.4815 17.8866 49.4135 19.3377 50.058C20.3046 50.4439 21.0706 51.2256 21.0766 51.6853C21.0835 52.2107 20.8123 52.4757 20.4653 52.216C20.1193 52.0218 19.5724 52.2235 19.3028 52.6199C19.035 53.1477 18.6907 53.0849 18.2708 52.4973C17.8508 51.9098 17.6517 52.4369 17.6725 54.0131C17.6958 55.7864 17.1637 57.1045 15.8089 58.5611C14.0481 60.4808 13.7064 60.6151 11.364 60.1096L8.81476 59.5401L10.2313 57.5576L11.6477 55.575L11.3277 57.3512C11.0111 59.39 12.3266 60.1671 14.3056 59.165C15.5333 58.4977 17.0699 55.2005 16.9074 53.2971C16.8996 52.706 16.5639 53.3 16.1682 54.5514C15.5795 56.7896 13.8934 59.1685 12.9318 59.1767C12.1075 59.1837 12.4599 54.6486 13.3485 54.3126C13.8267 54.1115 14.2285 53.3199 14.219 52.5975C14.2094 51.875 14.6825 51.2799 15.232 51.2752C15.8502 51.2699 16.2537 50.6097 16.3111 49.7553C16.3616 48.3756 16.3616 48.3756 16.9319 49.9471C17.2892 50.995 17.4979 51.1903 17.557 50.4672ZM174.458 50.2501C174.259 50.7773 173.784 51.2411 173.303 51.2452C172.891 51.2487 173.033 51.5759 173.586 51.8996C174.486 52.4174 174.488 52.5487 173.526 52.5569C172.908 52.5622 170.72 53.369 168.674 54.4373C165.738 55.8416 164.711 56.113 164.084 55.4615C163.666 55.0053 163.317 54.5485 163.314 54.3515C163.312 54.2201 165.153 53.1536 167.405 52.0178C169.657 50.8821 171.501 50.0782 171.505 50.3409C171.508 50.5379 171.984 50.2055 172.595 49.6748C173.815 48.4164 175.058 48.8657 174.458 50.2501ZM24.385 52.511C23.9128 53.1719 23.2998 53.5712 23.0233 53.4422C22.7459 53.2475 22.4824 54.1036 22.498 55.2858C22.4467 56.5998 21.8492 58.1813 20.7667 59.4385C18.9398 61.5559 18.9415 61.6872 20.513 55.8281C21.4957 52.2072 21.9678 51.5464 23.752 51.3998C24.9189 51.3242 25.058 51.4544 24.385 52.511ZM27.8872 52.4156C27.2803 53.2746 27.2915 54.1284 27.8618 55.6999C28.4313 57.2058 28.4373 57.6655 27.8835 57.3418C27.3983 57.0175 27.2662 57.4128 27.5548 58.4612C27.7721 59.3133 27.5825 60.5628 27.0416 61.2243C26.2321 62.3478 26.0938 62.2832 25.6574 60.4478C25.368 59.3337 24.9454 58.5491 24.6046 58.749C23.5821 59.3489 23.1353 56.7254 23.8649 54.7487C24.8614 52.1786 25.8101 51.1853 27.3213 51.1724C28.4203 51.1631 28.4916 51.3595 27.8872 52.4156ZM19.0921 57.4822C17.9025 61.0392 17.8355 61.1712 18.0104 58.8051C18.2471 55.913 19.7046 51.8283 20.1306 52.8756C20.2723 53.2028 19.8192 55.3085 19.0921 57.4822ZM172.257 55.2607C169.389 56.5987 169.253 56.7313 170.772 57.2438C171.669 57.5646 172.157 58.1516 171.888 58.548C171.62 59.0757 171.276 59.013 170.856 58.4254C170.435 57.7721 170.228 57.7082 170.236 58.2993C170.242 58.759 169.766 59.1572 169.148 59.1624C168.393 59.1688 168.182 58.8422 168.447 58.1174C168.847 57.1288 168.709 57.13 167.758 57.9263C166.738 58.7231 166.601 58.7243 166.933 57.8676C167.262 56.8139 172.582 53.8786 174.231 53.8646C174.849 53.8593 173.964 54.5237 172.257 55.2607ZM174.883 56.4863C175.096 56.9443 174.892 57.1431 174.476 56.8839C174.062 56.6904 173.652 56.8909 173.451 57.2867C173.185 57.9458 172.979 57.9476 172.215 57.2972C171.381 56.5818 171.379 56.3848 172.265 55.8518C173.491 55.0532 174.456 55.3077 174.883 56.4863ZM23.2377 59.2861C23.2438 59.7458 24.0176 61.1186 24.9278 62.4245L26.6067 64.7091L24.4739 64.4645C23.2357 64.3437 21.242 64.2293 20.0734 64.1735C18.8362 64.1184 17.8041 63.9958 17.8024 63.8644C17.7954 63.339 22.1979 58.5724 22.7465 58.5021C23.0204 58.4341 23.2317 58.8264 23.2377 59.2861ZM17.0782 61.0462C17.099 62.6224 16.8964 62.8869 15.314 62.7033C13.3194 62.5232 12.21 61.7444 13.3725 61.3405C13.7829 61.2056 14.7376 60.672 15.4176 60.1408C17.1183 58.8784 17.0497 58.8789 17.0782 61.0462ZM175.019 61.5428L175.06 64.6952L173.652 62.0798C172.383 59.5947 172.189 60.5159 173.394 63.3957C173.891 64.5738 173.753 64.5093 172.155 63.1435C169.792 61.1274 169.787 60.7334 172.176 59.5308C174.904 58.0626 175.043 58.1927 175.019 61.5428ZM11.3274 62.5401C12.715 63.5793 20.0247 65.6847 22.0853 65.6671C23.8026 65.6525 23.9417 65.7827 23.4069 66.9039C22.8017 67.8943 22.2539 68.0303 20.1193 67.6543C18.6743 67.4696 16.8119 66.8943 16.0511 66.5066C15.2216 66.1196 14.3947 65.9296 14.1913 66.1283C13.4461 66.9229 10.956 65.6304 10.9404 64.4482C10.9317 63.7915 10.5779 63.0063 10.0936 62.7477C9.53975 62.424 9.47366 62.6216 9.75794 63.3417C10.4665 64.9777 9.59257 66.4302 8.01272 66.4436C6.91369 66.4529 6.77372 66.2571 7.38413 65.6607C7.85889 65.1969 8.18934 64.2089 8.17982 63.4864C8.1599 61.9759 9.87107 61.5016 11.3274 62.5401ZM17.7213 68.1345C21.0218 68.3692 23.645 69.3321 23.1067 70.1906C22.7024 70.7851 18.0985 70.6929 17.4029 70.042C16.7074 69.3911 15.6796 69.5969 16.17 70.3152C16.3804 70.6418 16.316 70.9708 15.9039 70.9743C15.5604 70.9772 15.0066 70.6535 14.7962 70.3269C14.5849 69.9346 13.8259 69.6783 13.0703 69.6847C12.3834 69.6906 11.6905 69.2367 11.4088 68.7136C11.1958 68.19 10.5741 67.9325 10.0272 68.1342C9.4803 68.3359 8.86037 68.2098 8.58042 67.8181C8.36829 67.3601 8.57349 67.2927 9.19429 67.4845C9.95333 67.7407 10.2933 67.4751 10.2847 66.8184C10.2717 65.8332 10.4777 65.8315 12.5523 66.8648C13.7278 67.4459 16.1397 68.0166 17.7213 68.1345ZM25.884 67.2112C25.204 67.7425 24.871 68.5335 25.1544 69.1879C25.3683 69.7772 25.3056 70.2376 24.8935 70.2411C23.7945 70.2504 23.2868 68.2186 24.0981 67.2264C24.5033 66.6975 25.3911 66.2959 26.0093 66.2906C26.9718 66.3481 26.9726 66.4138 25.884 67.2112ZM176.651 70.7245C177.488 71.7026 177.489 71.7683 176.385 71.3836C175.419 71.0634 175.284 71.2616 175.645 72.5721C175.935 73.752 175.737 74.3448 174.985 74.6139C174.37 74.8819 173.683 74.8877 173.475 74.6924C173.197 74.4321 175.194 69.6203 175.606 69.6168C175.675 69.6162 176.163 70.1375 176.651 70.7245ZM177.335 75.7105C177.337 75.8419 176.869 76.8311 176.334 77.9523C175.665 79.2716 174.508 80.1353 172.798 80.6753C171.429 81.081 170.128 81.3548 169.989 81.2247C169.432 80.7039 172.137 77.4625 173.842 76.5284C175.48 75.6606 177.329 75.2508 177.335 75.7105ZM182.021 76.7873C184.652 78.3413 184.722 78.4721 182.598 78.8843C181.365 79.1575 180.536 78.7704 179.417 77.3349C177.671 75.1166 178.699 74.9108 182.021 76.7873ZM177.693 82.013C177.859 84.1792 177.883 86.0181 177.746 86.0192C177.608 86.0204 176.365 85.5055 174.983 84.8604L172.427 83.7656L174.758 83.4173C177.02 83.0697 177.088 83.0034 176.775 80.116C176.685 78.4748 176.739 77.3577 177.016 77.5524C177.225 77.8133 177.526 79.7813 177.693 82.013ZM180.144 80.3501C180.149 80.7442 180.492 80.6756 180.967 80.2118C181.442 79.748 182.536 79.4103 183.567 79.4015L185.285 79.4526L183.511 80.3872C182.556 80.9208 181.326 81.391 180.778 81.527C180.23 81.6631 179.548 81.9973 179.278 82.3937C178.94 82.7906 178.865 82.3315 179.06 81.476C179.255 80.6204 179.03 79.243 178.677 78.5235C177.973 77.2158 177.972 77.1502 179.019 78.3892C179.647 79.1064 180.139 79.9561 180.144 80.3501ZM176.316 81.762C176.601 82.5478 176.123 82.7489 173.856 82.7682C170.215 82.7991 171.23 81.6082 175.411 80.8502C175.685 80.8478 176.034 81.239 176.316 81.762ZM182.105 83.1578C181.087 84.1517 179.995 84.6865 179.717 84.4261C179.439 84.1657 179.909 83.3735 180.862 82.7086C183.379 80.7824 184.207 81.1038 182.105 83.1578ZM11.5234 87.8263C12.4894 88.1465 12.4911 88.2779 11.5424 89.2712C10.6607 90.1325 10.386 90.1349 9.82609 89.3515C8.63499 87.5881 9.2454 86.9918 11.5234 87.8263ZM181.38 90.7175C181.651 90.4525 181.586 90.7158 181.113 91.3109C180.168 92.5669 177.829 92.3241 177.261 90.9496C177.047 90.3602 177.251 90.1615 177.941 90.4183C178.493 90.6107 178.902 90.3445 178.896 89.8848C178.956 89.2274 179.163 89.2913 179.86 90.0736C180.35 90.7263 181.04 90.9831 181.38 90.7175ZM8.55795 97.3755C5.97287 99.3023 5.4173 98.8472 7.58677 96.6613C8.80672 95.4029 9.69362 94.9356 9.90575 95.3936C10.0492 95.8521 9.44224 96.7112 8.55795 97.3755ZM177.769 98.1704C177.791 99.8779 177.538 101.522 177.199 101.853C176.86 102.185 176.643 101.398 176.693 99.9529L176.867 97.5212L176.417 99.8239C175.967 102.192 174.877 102.924 170.157 104.409C167.967 105.019 167.898 105.02 169.054 104.156C169.939 103.492 170.072 103.162 169.454 103.167C168.835 103.172 168.899 102.778 169.78 101.851C171.202 100.328 172.167 100.583 170.814 102.17C170.341 102.766 170.278 103.16 170.69 103.157C171.033 103.154 171.708 102.229 172.106 101.174C172.435 100.055 173.042 99.1958 173.454 99.1923C173.798 99.1894 174.339 98.5936 174.536 97.8694C174.801 97.1447 175.207 96.6814 175.553 96.8755C175.831 97.0702 176.236 96.5413 176.432 95.7515C177.02 93.5132 177.724 94.7552 177.769 98.1704ZM18.8656 97.6163C18.9352 97.6814 17.9092 98.0185 16.5389 98.2929C14.6886 98.6371 13.7939 98.5133 13.3731 97.8601C13.0219 97.2719 12.961 97.8636 13.1861 99.3067C13.4808 100.815 13.3572 101.867 12.8121 102.2C12.2669 102.533 12.0565 102.206 12.1113 101.155C12.2836 98.5918 12.1358 97.8049 11.3176 98.2716C10.909 98.5378 10.7854 99.5898 11.0758 100.77C11.44 102.343 11.3748 102.606 10.8157 101.888C9.97676 100.779 9.72133 97.0372 10.5525 97.5556C10.829 97.6846 11.515 97.6131 11.9915 97.2807C12.8097 96.8139 18.171 97.0311 18.8656 97.6163ZM180.247 98.5434C180.261 99.6599 180.9 101.165 181.527 101.882C182.431 102.729 182.865 104.367 182.974 107.387C183.073 109.685 183.029 111.591 182.892 111.592C181.655 111.602 179.163 110.113 179.153 109.39C179.134 107.945 177.585 105.069 176.829 105.075C176.486 105.078 175.395 105.678 174.373 106.344C172.195 107.873 165.329 108.194 166.89 106.736C168.111 105.543 175.567 103.115 176.741 103.565C177.707 103.885 178.981 101.576 178.888 99.7372C178.725 97.7681 178.983 96.518 179.533 96.5133C179.876 96.5104 180.163 97.4275 180.247 98.5434ZM18.9724 100.505C17.2846 102.753 14.3535 104.486 12.0181 104.506C11.1251 104.513 9.33056 103.872 8.01594 103.16L5.59278 101.736L7.23265 101.065C8.59778 100.397 9.01251 100.59 10.2001 102.091C12.0164 104.374 12.7024 104.303 13.8346 101.6C14.7677 99.4246 15.3129 99.0915 19.4968 98.5962C20.115 98.5909 19.9168 99.1838 18.9724 100.505ZM15.9654 106.902C15.5767 108.679 15.508 108.68 14.5299 107.44C13.6213 106.265 13.6187 106.068 14.6395 105.337C16.2047 104.207 16.5542 104.664 15.9654 106.902ZM177.087 109.014C177.105 110.327 179.396 112.147 180.489 111.744C181.378 111.408 181.312 111.605 180.295 112.599C179.142 113.725 178.936 113.727 176.862 112.76C175.686 112.178 172.93 111.545 170.797 111.3C167.496 111 166.805 110.678 166.791 109.627C166.778 108.642 166.982 108.509 168.089 109.09C169.886 109.929 171.673 109.979 170.218 109.072C169.665 108.748 169.523 108.421 169.935 108.418C170.278 108.415 171.246 108.866 172.009 109.385C172.702 109.905 173.669 110.291 174.014 110.354C174.426 110.35 174.215 110.023 173.661 109.7C172.761 109.116 172.76 109.051 173.722 109.042C174.271 109.038 175.169 109.424 175.655 109.814C176.42 110.53 176.487 110.398 176.058 109.088C175.701 108.04 175.765 107.711 176.318 107.969C176.733 108.229 177.083 108.685 177.087 109.014ZM166.121 110.946C166.14 112.391 164.853 113.716 163.479 113.727C162.516 113.67 162.583 113.538 163.604 112.807C164.216 112.342 164.754 111.418 164.746 110.826C164.738 110.235 165.075 109.773 165.419 109.77C165.831 109.766 166.113 110.289 166.121 110.946ZM173.362 113.052C173.71 113.378 174.812 113.631 175.843 113.622C177.697 113.606 178.669 114.321 179.521 116.481C179.878 117.463 179.742 117.596 178.775 117.21C176.565 116.309 170.013 114.329 168.085 114.017C166.777 113.765 166.291 113.375 166.557 112.716C166.891 111.991 167.645 111.853 169.846 112.097C171.361 112.347 172.946 112.727 173.362 113.052ZM182.642 113.499C182.647 113.893 182.31 114.355 181.901 114.622C181.492 114.822 181.367 115.743 181.654 116.726C182.017 118.167 181.95 118.299 181.047 117.585C179.728 116.545 179.568 114.838 180.721 113.712C181.671 112.784 182.631 112.645 182.642 113.499ZM19.4914 119.024C18.8183 120.08 17.8498 119.563 16.7909 117.404C15.8041 115.508 15.8162 116.427 16.8873 119.505C17.1028 120.226 16.9046 120.819 16.2211 121.088C15.3325 121.423 15.1204 120.966 15.0901 118.667C15.0702 117.156 15.2563 115.644 15.5285 115.445C16.1389 114.848 19.9627 118.297 19.4914 119.024ZM169.759 115.907C169.557 116.237 169.902 116.366 170.517 116.098C172.294 115.426 171.896 116.48 169.657 118.601C167.418 120.722 166.823 122.5 168.996 120.577C170.626 119.118 170.632 119.578 169.382 123.792C168.856 125.57 168.533 127.149 168.673 127.345C168.881 127.475 169.48 126.025 170.005 124.115C171.913 117.728 172.519 116.869 174.653 117.179C177.406 117.55 177.688 118.073 175.774 118.812C173.246 119.884 171.752 121.21 171.769 122.458C171.777 123.049 171.314 124.433 170.778 125.488C169.907 127.138 169.91 127.4 170.73 127.065C171.345 126.797 171.832 127.253 172.051 128.236C172.2 129.089 172.395 128.233 172.439 126.394C172.416 124.62 172.937 122.514 173.477 121.787C174.018 121.126 174.496 120.859 174.502 121.318C174.507 121.712 174.24 122.306 173.83 122.506C173.49 122.706 173.232 124.022 173.249 125.336L173.35 127.765L173.866 125.199C174.122 123.752 175.061 122.036 175.876 121.372C177.712 119.912 179.084 119.769 177.934 121.158C177.46 121.687 177.267 122.674 177.413 123.33C177.63 124.116 177.297 124.907 176.479 125.374C175.729 125.84 175.257 126.501 175.469 126.959C175.612 127.352 174.938 128.343 173.987 129.139C172.56 130.333 171.943 130.47 170.699 129.89C169.801 129.503 169.107 128.984 169.103 128.655C169.098 128.327 168.342 128.267 167.452 128.538C166.083 128.878 165.806 128.683 165.999 127.696C166.386 125.788 166.386 125.788 166.953 127.163C167.308 128.014 167.434 127.159 167.335 124.861C167.149 121.184 166.365 119.023 164.548 116.674C163.501 115.435 163.638 115.368 166.797 115.341C168.652 115.325 170.029 115.576 169.759 115.907ZM164.557 122.585C164.609 126.526 164.886 126.655 165.663 123.101L166.18 120.601L165.94 123.23C165.453 127.964 165.32 128.359 163.4 128.572C161.41 128.786 161.06 128.264 162.349 127.005C163.027 126.342 163.021 125.882 162.25 124.772C161.55 123.727 161.544 123.268 162.091 123.066C162.501 122.931 162.837 122.337 162.829 121.746C162.816 120.761 162.678 120.762 162.14 121.621C161.265 122.942 161.325 122.284 162.184 119.715C163.243 116.685 164.499 118.185 164.557 122.585ZM21.471 123.276C19.2285 125.134 16.4896 125.814 15.7879 124.704C14.7386 123.268 15.069 122.28 16.4463 122.531C17.341 122.654 17.6818 122.454 17.4688 121.931C17.3262 121.538 18.0045 120.875 19.0296 120.473C20.466 120.001 21.2225 120.06 22.0571 120.841C23.0996 121.752 23.1022 121.949 21.471 123.276ZM179.805 122.39C179.338 123.379 178.725 123.778 178.377 123.453C177.542 122.672 178.342 120.826 179.579 120.816C180.334 120.809 180.407 121.137 179.805 122.39ZM25.4722 124.556C25.4679 124.227 25.8114 124.224 26.1574 124.419C27.126 124.936 25.9721 125.997 21.8124 128.331C18.6074 130.131 18.4709 130.198 18.8648 128.816C19.0596 127.96 18.8466 127.436 18.2971 127.441C17.7476 127.446 17.5476 127.907 17.7641 128.694C17.9805 129.48 17.644 130.008 16.6858 130.279C15.5216 130.552 15.3129 130.357 15.3651 129.108C15.4861 127.859 16.3025 127.261 19.4475 126.118C21.5674 125.377 23.5464 124.375 23.8168 124.044C24.0846 123.517 24.4289 123.579 24.8488 124.167C25.1992 124.689 25.4757 124.818 25.4722 124.556ZM27.1041 128.483C26.4074 132.955 25.603 134.473 25.9649 130.66C26.2137 128.687 26.4642 126.846 26.6659 126.516C27.2703 125.46 27.4172 126.181 27.1041 128.483ZM24.3008 129.492C24.9109 134.085 24.7083 134.349 21.8617 132.074C20.4724 130.904 20.0602 130.907 19.4559 131.963C19.1855 132.294 18.6368 132.364 18.0838 132.106C17.3918 131.718 17.7978 131.255 19.436 130.453C21.6202 129.383 21.7576 129.382 23.013 130.817C24.2685 132.251 24.2685 132.251 23.5634 130.878C22.5784 129.112 22.5732 128.718 23.4661 128.711C23.8783 128.707 24.2269 129.098 24.3008 129.492ZM170.645 131.007C171.546 131.59 171.758 132.048 171.213 132.381C170.804 132.647 170.047 132.522 169.491 132.067C168.59 131.418 166.385 130.911 163.43 130.871C162.742 130.811 162.394 130.486 162.595 130.09C163.202 129.231 168.843 129.84 170.645 131.007ZM168.747 132.928C169.856 133.706 169.858 133.838 168.568 134.965C167.345 136.027 167.002 136.095 165.137 135.323C162.513 134.228 162.359 132.982 164.895 132.566C165.924 132.426 166.951 132.22 167.157 132.153C167.363 132.151 168.054 132.474 168.747 132.928ZM29.2929 138.185C28.6172 139.045 27.666 139.841 27.1852 139.845C26.7043 139.849 26.5017 140.114 26.713 140.506C26.9234 140.833 26.859 141.162 26.4469 141.165C25.6913 141.172 25.7949 138.609 26.6027 137.354C26.8714 136.892 27.8288 136.556 28.7904 136.547C30.5076 136.533 30.5076 136.533 29.2929 138.185ZM34.321 139.193C34.6019 139.651 34.2662 140.245 33.5845 140.645C32.9019 140.979 31.4751 142.173 30.4586 143.233C28.1526 145.486 27.81 145.554 27.7832 143.518C27.7702 142.533 28.578 141.278 29.8692 140.217C32.1117 138.358 33.5499 138.018 34.321 139.193ZM158.807 139.712C160.054 140.555 160.197 140.948 159.524 142.004C158.85 142.995 158.925 143.455 159.9 144.497C160.527 145.149 161.088 145.998 161.093 146.392C161.109 147.64 159.463 147.785 158.555 146.676C157.508 145.437 157.358 144.453 158.326 144.97C159.572 145.682 159.01 144.702 156.85 142.421C153.924 139.293 155.273 137.443 158.807 139.712ZM163.294 141.381C164.273 142.687 164.169 145.249 163.139 145.258C162.177 145.266 160.349 142.063 160.748 141.074C161.278 139.625 162.104 139.749 163.294 141.381ZM35.1286 143.128C35.0763 144.376 33.3086 145.77 31.4583 146.114C29.9506 146.39 30.4854 145.269 32.6601 143.477C35.1748 141.419 35.2426 141.353 35.1286 143.128ZM156.248 143.674C156.946 144.457 156.951 144.851 156.275 145.71C155.53 146.505 155.533 146.702 156.286 146.498C156.765 146.363 157.318 146.687 157.461 147.08C157.888 148.193 155.484 148.213 154.371 147.172C153.188 146.065 153.282 142.714 154.449 142.704C154.93 142.7 155.761 143.153 156.248 143.674ZM39.9689 145.517C40.6609 145.905 40.5983 146.365 39.7888 147.489C38.8444 148.81 36.9229 148.958 37.7307 147.703C37.9333 147.439 37.6551 147.178 37.1056 147.183C36.556 147.188 36.2169 147.519 36.2899 147.847C36.363 148.175 36.0256 148.637 35.6152 148.772C35.137 148.973 34.7214 148.714 34.7144 148.189C34.7528 145.889 37.8917 144.286 39.9689 145.517ZM44.1101 146.992C44.7361 147.578 44.6761 148.235 43.9387 149.621C42.8674 151.732 42.1839 152 40.998 150.631C40.3008 149.849 40.3625 149.323 41.2382 148.002C42.5181 146.086 42.9972 145.951 44.1101 146.992ZM38.8086 151.307C37.8617 152.431 35.4593 152.583 35.4455 151.532C35.4394 151.073 35.9794 150.345 36.5915 149.88C38.2262 148.816 39.9582 149.918 38.8086 151.307ZM151.001 152.126C153.021 154.211 153.037 155.393 151.036 154.753C147.931 153.729 145.619 150.333 146.904 148.746C147.581 148.017 147.788 148.081 148.418 148.996C148.77 149.649 149.956 151.019 151.001 152.126ZM43.0273 153.438C43.0394 154.358 40.17 155.564 38.8597 155.181C37.066 154.606 37.1965 154.079 39.3772 152.747C41.1501 151.747 43.0091 152.059 43.0273 153.438ZM63.1592 153.727C64.187 153.521 65.1504 153.644 65.639 154.231C66.684 155.339 65.3859 155.876 61.4036 156.041L58.5204 156.197L61.274 156.633L64.0277 157.069L61.4192 157.223C58.3291 157.315 56.4641 156.543 55.4086 154.647C54.6366 153.405 54.7731 153.338 56.9763 153.714C58.5605 154.029 59.5204 153.889 59.857 153.361C60.2613 152.766 60.4674 152.765 60.8873 153.352C61.2377 153.875 62.1324 153.998 63.1592 153.727ZM53.866 157.484C53.6146 159.26 53.0215 161.17 52.4103 161.7C50.8503 163.224 50.3582 162.375 51.6391 160.525C52.2452 159.6 52.7696 157.691 52.8184 156.179C52.8671 154.668 53.128 153.615 53.5436 153.874C53.8897 154.068 54.0478 155.644 53.866 157.484ZM147.799 154.124C148.069 153.793 148.14 153.924 147.871 154.386C147.67 154.782 148.022 155.436 148.646 155.825C149.684 156.407 149.547 156.474 147.694 156.555C145.427 156.574 143.896 155.077 144.492 153.43C144.758 152.771 145.102 152.768 146.005 153.548C146.7 154.133 147.459 154.39 147.799 154.124ZM51.0437 157.048C51.0645 158.625 50.6062 160.336 50.0627 160.801C49.3167 161.529 49.2471 161.464 49.9175 160.211C50.9219 158.232 50.8437 157.51 49.6959 159.03C48.8185 160.22 48.7498 160.221 48.116 159.044C47.6248 158.26 47.6814 157.34 48.351 156.02C49.824 153.118 51.1352 153.566 51.0437 157.048ZM69.4411 156.038C69.3837 156.892 69.0602 158.406 68.5923 159.395C67.661 161.702 67.6653 162.03 68.5513 161.497C68.9609 161.297 69.033 161.559 68.8348 162.152C68.5017 162.943 67.9496 162.75 65.7977 161.061C62.9512 158.786 62.4591 157.937 63.9015 157.924C64.3824 157.92 65.8153 157.186 67.1083 156.255C68.4013 155.324 69.4221 154.593 69.4908 154.593C69.4908 154.593 69.4994 155.249 69.4411 156.038ZM72.1835 155.621C72.466 156.209 73.0886 156.533 73.6346 156.265C74.1815 156.064 74.6641 156.191 74.6676 156.453C74.6831 157.636 72.692 157.718 71.647 156.611C70.3932 155.308 70.2463 154.586 71.1393 154.579C71.4827 154.576 71.9696 155.031 72.1835 155.621ZM57.1022 158.048C56.9005 158.378 57.8656 158.632 59.1707 158.621C60.7505 158.608 62.1999 159.121 63.5197 160.226L65.4647 161.852L61.6729 160.833C56.1587 159.435 54.9128 158.723 55.2372 157.275C55.499 156.288 55.772 156.154 56.5354 156.739C57.0901 157.128 57.3039 157.718 57.1022 158.048ZM135.868 160.991C135.883 162.173 137.754 163.405 138.292 162.547C138.494 162.216 138.352 161.889 138.009 161.892C136.704 161.903 137.161 160.126 138.794 158.93C140.223 157.867 140.223 157.867 138.45 158.867C136.677 159.867 136.54 159.868 135.837 158.692C134.852 156.927 134.917 156.664 136.359 156.586C136.976 156.515 136.629 156.255 135.458 156.002L133.391 155.495L135.451 155.477C136.619 155.467 138.477 155.714 139.58 155.967C141.509 156.411 141.51 156.476 139.931 156.556C138.97 156.629 137.738 156.968 137.194 157.367C136.445 157.899 136.721 157.962 138.366 157.685C141.176 157.202 141.877 158.247 140.115 160.101C139.031 161.227 138.901 161.819 139.463 162.734C139.956 163.649 139.963 164.174 139.351 164.705C138.672 165.302 138.534 165.238 138.866 164.381C139.131 163.59 138.991 163.395 138.307 163.663C137.555 163.932 137.492 164.327 138.053 165.242C138.617 166.353 138.482 166.486 136.627 166.502C135.047 166.515 134.562 166.191 134.55 165.271C134.541 164.615 133.761 162.716 132.777 161.017C131.37 158.533 131.153 157.681 131.756 156.559C132.426 155.306 132.565 155.37 134.176 157.721C135.088 159.158 135.862 160.597 135.868 160.991ZM72.2597 161.4C72.0735 162.912 71.5448 164.493 71.2066 164.89C70.8005 165.354 70.6735 166.143 70.8865 166.666C71.3829 167.845 70.0986 169.432 68.1822 169.974L66.7458 170.446L68.3441 166.622C69.2094 164.513 70.0634 161.55 70.3173 159.972C70.6296 157.604 70.9 157.274 71.733 157.923C72.4277 158.509 72.5772 159.427 72.2597 161.4ZM79.9572 161.663C80.1754 162.581 80.6753 164.022 81.03 164.872C81.3847 165.723 81.4663 166.708 81.2655 167.104C80.9281 167.566 81.135 167.63 81.7498 167.362C82.2958 167.095 82.0932 167.359 81.4132 167.891C80.122 168.953 80.122 168.953 81.6332 168.94C82.4574 168.933 83.7669 169.25 84.5963 169.637C85.9101 170.283 85.9109 170.348 84.6858 171.213C84.005 171.678 82.566 171.953 81.533 171.765C79.9488 171.45 79.7402 171.255 80.4845 170.394C80.9575 169.799 80.3428 170.067 79.1863 170.931C77.9612 171.795 76.9404 172.526 76.9412 172.592C76.9421 172.658 78.1776 172.582 79.6871 172.437C81.1965 172.293 82.4346 172.414 82.4398 172.808C82.4442 173.136 80.3183 173.417 77.6385 173.374C74.1354 173.404 72.7581 173.153 72.4739 172.433C72.2609 171.909 72.2531 171.318 72.4565 171.12C72.66 170.921 72.8 171.117 72.8052 171.511C72.8112 171.97 73.426 171.702 74.1042 171.04C74.7824 170.377 76.3519 169.576 77.5161 169.303C79.9133 168.757 80.1742 167.704 78.4241 165.223C77.6547 164.179 77.1461 162.081 77.0523 160.177L76.9412 156.96L78.2662 158.459C78.9635 159.241 79.7381 160.68 79.9572 161.663ZM76.0716 158.74C76.0786 159.266 75.8125 159.925 75.4029 160.125C75.0621 160.325 74.7264 160.919 74.7316 161.313C74.7377 161.773 75.0116 161.705 75.4159 161.111C76.4255 159.526 76.1732 161.236 75.1019 163.346C74.4976 164.403 74.2358 165.39 74.4445 165.585C74.6531 165.781 74.7879 165.582 74.7827 165.188C74.7767 164.729 75.0471 164.398 75.4592 164.394C76.2148 164.388 75.0869 167.419 73.6661 169.073C73.1931 169.668 72.9948 170.261 73.2043 170.522C73.413 170.717 73.1391 170.785 72.52 170.725C70.7306 170.477 70.4472 169.823 71.5255 168.237C72.0637 167.379 72.7186 164.943 73.0335 162.773C73.2796 160.603 73.5971 158.63 73.7988 158.3C74.3371 157.442 76.0587 157.755 76.0716 158.74ZM81.2545 161.061C82.0283 162.434 82.8603 163.018 84.028 163.008C85.0584 162.999 85.7505 163.387 85.7583 163.978C85.7652 164.504 86.6007 165.351 87.7067 165.867L89.5743 166.836L86.4154 166.929C82.7749 166.959 82.2889 166.57 80.7884 162.182C79.5052 158.646 79.7061 158.25 81.2545 161.061ZM60.9947 161.496C64.2361 162.454 65.4811 163.1 64.3821 163.109C63.3526 163.184 61.2859 162.741 59.6991 162.229C58.1123 161.717 57.0116 161.595 57.2211 161.856C57.4315 162.183 57.1628 162.645 56.7524 162.78C56.2742 162.981 56.9637 163.172 58.3374 163.161C60.8111 163.205 64.4794 165.276 64.4967 166.589C64.5027 167.049 63.742 166.661 62.8386 165.881C61.7961 164.97 60.0703 164.328 58.1444 164.147L55.1881 163.976L58.2869 164.54C60.1467 164.919 62.0135 165.822 62.9186 166.734C63.8949 167.842 64.5166 168.1 64.7157 167.573C64.9157 167.111 65.127 167.504 65.1391 168.423C65.1512 169.343 64.8921 170.527 64.5556 171.055C64.0164 171.848 63.8782 171.784 63.8635 170.667C63.8392 168.828 62.1742 167.594 60.5318 168.068C59.6423 168.338 59.0215 168.147 58.738 167.492C58.525 166.969 57.7634 166.515 57.0078 166.522C56.3209 166.528 55.5593 166.074 55.2776 165.551C55.0646 165.028 54.4404 164.573 53.8221 164.578C52.5857 164.589 52.5075 163.867 53.5771 161.625C54.5119 159.581 54.5806 159.58 60.9947 161.496ZM131.137 161.688C131.769 162.733 132.545 164.303 132.763 165.221C132.981 166.139 132.987 166.533 132.775 166.075C132.493 165.552 131.874 165.491 130.78 165.895C129.412 166.366 129.274 166.301 129.534 165.183C129.73 164.393 130.274 163.994 130.826 164.186C131.93 164.571 132.123 163.519 131.016 162.937C130.6 162.678 129.849 163.012 129.377 163.673C128.837 164.4 128.36 164.733 128.287 164.405C128.215 164.143 128.071 163.619 127.998 163.291C127.924 162.897 127.779 162.308 127.705 161.914C127.7 161.586 127.218 161.458 126.809 161.725C126.332 161.991 126.533 161.596 127.278 160.801C128.973 159.079 129.662 159.27 131.137 161.688ZM107.323 163.532C109.196 164.896 111.439 168.292 110.828 168.823C110.693 169.021 109.521 168.703 108.208 168.123C106.549 167.349 105.713 166.436 105.208 164.601C104.347 161.85 104.757 161.649 107.323 163.532ZM126.624 163.303C126.834 163.629 126.02 164.359 124.791 164.96C123.152 165.697 123.017 165.895 124.249 165.556C127.263 164.874 127.882 164.934 128.166 165.654C128.31 166.113 127.353 166.515 125.707 166.726C122.414 167.017 121.854 166.233 123.749 164.115C125.24 162.526 125.993 162.323 126.624 163.303ZM67.4313 165.119C67.6468 165.84 67.5155 166.301 67.2382 166.106C66.8921 165.912 66.5539 166.309 66.4243 166.901C66.2304 167.823 65.8834 167.563 65.0375 165.928C63.9108 163.836 63.9108 163.836 65.4906 163.822C66.4523 163.814 67.2139 164.267 67.4313 165.119ZM104.224 168.156C102.929 168.956 102.785 168.431 103.298 165.668L103.815 163.168L104.462 165.396C104.965 167.034 104.906 167.757 104.224 168.156ZM102.42 166.792C102.241 168.83 101.905 169.424 100.875 169.433C99.5697 169.444 99.5688 169.378 100.909 166.805C101.645 165.354 102.385 164.165 102.454 164.165C102.523 164.164 102.538 165.346 102.42 166.792ZM115.544 167.009C116.722 167.788 116.723 167.853 115.353 168.193C114.463 168.398 114.118 168.269 114.455 167.807C114.724 167.345 114.448 167.281 113.628 167.617C112.466 168.021 111.287 167.177 111.201 165.864C111.192 165.207 113.812 165.907 115.544 167.009ZM88.5638 168.355C86.1684 169.032 86.1684 169.032 87.8273 169.807C89.4184 170.647 89.4184 170.647 88.049 170.987C87.0908 171.258 86.3996 170.935 85.8353 169.824C85.3432 168.974 84.4399 168.193 83.82 168.067C83.1992 167.875 84.5712 167.732 86.838 167.713C90.6845 167.68 90.8219 167.679 88.5638 168.355ZM95.2414 169.415C95.9422 170.46 95.8769 170.723 94.7127 170.996C93.6858 171.267 93.4076 171.007 93.3911 169.759C93.366 167.855 94.1199 167.717 95.2414 169.415ZM107.804 168.717C108.635 169.236 108.637 169.367 107.469 169.377C106.713 169.383 105.342 169.592 104.383 169.797C102.739 170.14 102.739 170.14 103.962 169.144C105.527 167.948 106.349 167.81 107.804 168.717ZM114.081 170.7C112.381 172.028 111.556 171.969 112.155 170.519C112.286 169.993 113.174 169.591 114.066 169.518L115.712 169.372L114.081 170.7ZM71.0236 171.854C71.4435 172.442 71.453 173.164 71.1817 173.429C70.8418 173.695 70.4279 173.567 70.2845 173.108C70.0732 172.716 69.1064 172.33 68.1447 172.338C66.3579 172.288 66.3579 172.288 67.6509 171.357C69.1465 170.162 69.9725 170.287 71.0236 171.854ZM108.173 170.685C107.971 171.015 107.358 171.348 106.808 171.353C106.121 171.359 105.992 172.017 106.222 173.788L106.598 176.281L105.475 174.451C104.844 173.472 104.554 172.357 104.756 172.027C104.957 171.631 104.746 171.305 104.266 171.309C103.784 171.247 104.33 170.98 105.426 170.708C108.37 169.96 108.644 169.958 108.173 170.685ZM109.915 172.575C108.242 175.939 107.22 176.538 107.19 174.305C107.177 173.255 107.847 172.001 108.73 171.271C111.042 169.412 111.389 169.738 109.915 172.575Z" fill="black"/>
<path d="M152.963 127.479C153.174 127.805 153.865 128.128 154.415 128.123C154.896 128.119 156.627 129.156 158.156 130.457C159.685 131.759 160.932 132.536 160.929 132.274C160.847 131.289 158.964 129.202 156.955 127.97C154.878 126.739 152.262 126.367 152.963 127.479Z" fill="black"/>
<path d="M55.2684 146.282C54.872 147.467 53.7283 149.249 52.7115 150.243C51.6947 151.236 51.2254 152.094 51.6373 152.09C52.9417 152.079 56.5883 147.452 56.5667 145.811C56.5373 143.579 56.1279 143.78 55.2684 146.282Z" fill="black"/>
<path d="M178.859 102.764C178.46 103.686 178.881 104.405 182.221 107.855C182.5 108.181 182.427 107.854 182.005 107.069C181.583 106.285 181.505 105.564 181.778 105.43C182.119 105.296 182.109 104.508 181.822 103.592C181.321 102.021 181.321 102.021 181.277 103.925C181.233 105.763 181.165 105.829 180.051 104.657C179.148 103.812 179.005 103.353 179.688 103.15C180.645 102.814 180.835 101.631 179.874 101.639C179.531 101.642 179.057 102.106 178.859 102.764Z" fill="black"/>
</g>
</svg>
