<svg width="186" height="77" viewBox="0 0 186 77" fill="none" xmlns="http://www.w3.org/2000/svg">
<path d="M59.4698 35.412C59.4475 35.8405 59.3521 36.2476 59.1961 36.6205L59.102 36.828L58.8603 37.3627L58.6423 37.8454L54.8468 46.2334L54.8238 46.2833L54.8196 46.2933C54.7722 46.4109 54.743 46.5378 54.736 46.6719C54.7346 46.6925 54.7346 46.7125 54.7346 46.7332V51.4815H54.7339C54.7339 51.53 54.7332 51.5792 54.7304 51.6284C54.7228 51.7724 54.7047 51.9136 54.6761 52.0505C54.495 52.926 53.9057 53.6389 53.1298 53.9897C52.7522 54.1601 52.3294 54.245 51.8892 54.2207C51.5346 54.2015 51.1996 54.1131 50.8959 53.9698C50.2182 53.6503 49.6971 53.055 49.4631 52.3342C49.3879 52.1011 49.3426 51.8544 49.3321 51.5991V46.5207C49.3321 46.3574 49.3363 46.1935 49.3447 46.0281C49.3607 45.7193 49.3913 45.4156 49.4366 45.1162C49.5571 44.3141 49.7793 43.5484 50.0886 42.8318L50.2126 42.5595L52.1372 38.306L52.1358 38.3052C52.1887 38.1926 52.2207 38.0671 52.2277 37.9345C52.2549 37.419 51.8899 36.9741 51.3974 36.8979L51.3487 36.8914H51.348L51.0471 36.8522L32.4212 34.4189L28.604 33.9205L28.5602 33.9148C26.8125 33.6781 25.4661 32.2429 25.2961 30.4855C25.2453 29.9351 25.2195 29.3775 25.2195 28.815C25.2195 19.0118 32.984 11.0651 42.5616 11.0651C50.5546 11.0651 57.2847 16.5998 59.2922 24.1294C59.334 24.2863 59.3737 24.4438 59.4113 24.6021C59.4378 24.7597 59.4517 24.9222 59.4517 25.0883C59.4517 26.6775 58.193 27.9666 56.6397 27.9666C55.3364 27.9666 54.2394 27.0575 53.921 25.8255C53.9134 25.792 53.905 25.7585 53.8967 25.7257C52.6248 20.5567 48.0519 16.7303 42.6076 16.7303C36.7677 16.7303 31.9315 21.1321 31.0949 26.8722C31.0894 26.9064 31.0845 26.9406 31.0796 26.9755C31.0768 26.9984 31.0733 27.0212 31.0705 27.0447C31.0685 27.0668 31.0671 27.0889 31.0657 27.111C31.0322 27.7548 31.453 28.3159 32.0436 28.4756L32.3891 28.5205L32.5131 28.5369L53.9517 31.3375L56.3722 31.6533L56.4029 31.6576C57.6783 31.8294 58.7259 32.685 59.2002 33.8328C59.4001 34.3169 59.4984 34.8531 59.4698 35.412Z" fill="#164646"/>
<path d="M43.663 7.71491C43.6581 7.81187 43.5766 7.88673 43.4812 7.88103C43.151 7.86677 42.8188 7.85964 42.4851 7.85964C29.6135 7.85964 19.1784 18.5405 19.1784 31.7154C19.1784 41.6947 25.1639 50.2431 33.6618 53.803C33.7259 53.8315 33.7691 53.8978 33.7642 53.9727C33.7594 54.0696 33.6779 54.1445 33.5824 54.1388C33.5769 54.1388 33.5713 54.1381 33.5657 54.1374C33.5657 54.1374 33.5657 54.1374 33.565 54.1374C33.556 54.1352 33.5469 54.1331 33.5379 54.1309C33.5365 54.1302 33.5344 54.1295 33.5323 54.1288C23.35 51.5742 15.7959 42.1703 15.7959 30.9604C15.7959 17.7855 26.231 7.10461 39.1026 7.10461C40.6114 7.10461 42.0874 7.2522 43.516 7.53239C43.5996 7.54451 43.663 7.62793 43.663 7.71491Z" fill="#A36514"/>
<path d="M38.8512 60.4778C38.1546 60.4778 37.4999 60.0372 37.2477 59.3285C36.9252 58.4223 37.3822 57.4199 38.2675 57.0905L46.1796 54.1431C47.065 53.813 48.0443 54.2807 48.3661 55.1869C48.6886 56.0931 48.2317 57.0955 47.3464 57.4249L39.4342 60.3723C39.242 60.4443 39.0448 60.4778 38.8512 60.4778Z" fill="#164646"/>
<path d="M42.9525 69.896C42.256 69.896 41.6012 69.4554 41.349 68.7467C41.0265 67.8405 41.4835 66.8381 42.3688 66.5087L50.281 63.5613C51.1663 63.2312 52.1456 63.6989 52.4674 64.6051C52.79 65.5113 52.333 66.5137 51.4477 66.8431L43.5355 69.7905C43.3433 69.8618 43.1461 69.896 42.9525 69.896Z" fill="#164646"/>
<path d="M39.7308 65.6161C39.0343 65.6161 38.3795 65.1754 38.1274 64.4668C37.8048 63.5606 38.2618 62.5582 39.1471 62.2288L51.1794 57.7464C52.0647 57.4163 53.0441 57.884 53.3659 58.7901C53.6884 59.6963 53.2315 60.6987 52.3461 61.0281L40.3138 65.5105C40.1216 65.5818 39.9245 65.6161 39.7308 65.6161Z" fill="#A36514"/>
<path d="M64.4646 17.3065C64.4646 15.3974 65.0433 13.784 66.2006 12.4674C67.2956 11.2161 68.6817 10.4919 70.359 10.2947C70.6365 10.2663 70.915 10.2521 71.1935 10.2521C72.8626 10.2521 74.3202 10.8161 75.5671 11.9451C75.737 12.0958 75.8989 12.255 76.0517 12.4247C76.3835 12.7915 76.473 13.22 76.3211 13.7082C76.2226 14.0096 76.0517 14.2447 75.8094 14.4134H75.7958C75.3916 14.6864 74.9793 14.7054 74.558 14.4703C74.4142 14.3859 74.2931 14.2864 74.1945 14.1736C73.4142 13.2428 72.4133 12.7764 71.1935 12.7764C69.9105 12.7764 68.8562 13.2371 68.0307 14.1594C67.2676 15.0248 66.8869 16.0732 66.8869 17.3055C66.8869 18.5947 67.3037 19.6715 68.1383 20.536C68.9638 21.373 69.9638 21.792 71.1393 21.792C72.4847 21.792 73.5616 21.2375 74.369 20.1275C74.6556 19.7417 75.0327 19.5824 75.4992 19.6478C75.6521 19.6668 75.7949 19.7142 75.9296 19.7891C76.0282 19.8365 76.1159 19.9 76.1918 19.9796C76.2678 20.0592 76.3329 20.1445 76.3872 20.2336C76.4414 20.3227 76.4857 20.4194 76.5219 20.5228C76.558 20.6261 76.5779 20.7322 76.5825 20.8403C76.587 20.9484 76.5825 21.0545 76.5689 21.1579C76.5553 21.2612 76.5264 21.3645 76.4812 21.4678C76.436 21.5711 76.3781 21.6697 76.3058 21.7645C75.2651 23.1001 73.9685 23.9229 72.416 24.2338C72.0118 24.3182 71.604 24.3609 71.1917 24.3609C69.2893 24.3609 67.7106 23.7258 66.4547 22.4565C65.2974 21.2716 64.6427 19.7853 64.4899 17.9984C64.4727 17.7634 64.4646 17.533 64.4646 17.3065Z" fill="#A36514"/>
<path d="M79.8872 10.2662C80.3176 10.2662 80.6413 10.4587 80.8565 10.8445C80.9641 11.0416 81.0183 11.2445 81.0183 11.4511V23.1759C81.0183 23.6271 80.8348 23.9665 80.4668 24.1921C80.2868 24.3049 80.0942 24.3618 79.8881 24.3618C79.4658 24.3618 79.143 24.1693 78.9188 23.7835C78.8202 23.5949 78.7705 23.393 78.7705 23.1769V11.4511C78.7705 10.9999 78.9541 10.6615 79.3221 10.435C79.5011 10.3326 79.6901 10.2757 79.8872 10.2662Z" fill="#A36514"/>
<path d="M90.7744 24.122C90.5773 24.122 90.4517 24.0281 90.3974 23.8395C90.3793 23.7921 90.3703 23.7456 90.3703 23.6983V23.2613C90.3703 23.1674 90.3251 23.12 90.2356 23.12C90.1903 23.1105 90.1506 23.1248 90.1144 23.1627C89.3965 23.9532 88.4588 24.3523 87.3015 24.3618C85.7047 24.3618 84.551 23.7362 83.843 22.4849C83.4036 21.6944 83.1838 20.7208 83.1838 19.5644V14.203C83.1838 13.7233 83.3809 13.3565 83.7761 13.1024C83.9732 12.9802 84.1884 12.9148 84.4217 12.9053H84.4488C84.9153 12.9053 85.2698 13.1119 85.5121 13.5262C85.6287 13.7423 85.6875 13.9688 85.6875 14.203V19.2961C85.6875 20.8479 86.221 21.7607 87.2888 22.0337C87.504 22.0906 87.7328 22.1181 87.9751 22.1181C88.8811 22.1181 89.5448 21.7086 89.967 20.8905C90.2274 20.3919 90.3576 19.7853 90.3576 19.0705V14.203C90.3576 13.7233 90.5502 13.3565 90.9363 13.1024C91.1424 12.9802 91.3576 12.9148 91.5819 12.9053C92.0484 12.9053 92.4029 13.1119 92.6452 13.5262C92.7618 13.7423 92.8197 13.9688 92.8197 14.203V21.9768C92.8197 22.6821 92.5548 23.2508 92.0258 23.684C91.6497 23.976 91.232 24.122 90.7744 24.122Z" fill="#A36514"/>
<path d="M97.4908 23.1485C97.4908 23.5343 97.329 23.8206 97.0062 24.0092C96.8624 24.0841 96.7096 24.1268 96.5487 24.1362H96.0369C95.6598 24.1362 95.3859 23.9618 95.2159 23.6139C95.1354 23.4632 95.0947 23.3078 95.0947 23.1485V11.5223C95.0947 11.0521 95.2873 10.6948 95.6734 10.4502C95.8705 10.3279 96.0812 10.2625 96.3063 10.2531C96.7548 10.2531 97.0957 10.455 97.329 10.8597C97.4456 11.0664 97.5044 11.2882 97.5044 11.5233V14.1196C97.5044 14.2229 97.5532 14.2798 97.6527 14.2893C97.7069 14.2798 97.7467 14.2608 97.7738 14.2324C98.536 13.4238 99.5053 12.9954 100.681 12.9489C100.752 12.9394 100.825 12.9347 100.896 12.9347C102.206 12.9347 103.341 13.3859 104.301 14.2893C105.431 15.4372 106.01 16.8951 106.037 18.663C106.037 20.3939 105.486 21.8044 104.382 22.8954C103.467 23.7988 102.394 24.2832 101.165 24.3486C101.085 24.3581 101.004 24.3628 100.923 24.3628C99.622 24.3533 98.5677 23.9116 97.7603 23.0367C97.6798 22.9523 97.6029 22.9523 97.5315 23.0367C97.5035 23.0727 97.4908 23.1106 97.4908 23.1485ZM103.655 18.6194C103.655 17.5852 103.3 16.734 102.591 16.0657C101.99 15.5017 101.272 15.2287 100.438 15.2476C99.5225 15.2666 98.7594 15.6571 98.15 16.4183C97.6563 17.0581 97.4049 17.7824 97.3959 18.5909C97.3959 19.6441 97.7413 20.5095 98.4321 21.1873C99.0153 21.7418 99.7106 22.0243 100.518 22.0338C101.397 22.0338 102.14 21.7048 102.745 21.046C103.352 20.3872 103.655 19.5787 103.655 18.6194Z" fill="#A36514"/>
<path d="M64.922 42.2224L65.1508 42.0252C65.5188 41.7247 65.913 41.6726 66.3352 41.8698C66.4881 41.9361 66.6183 42.0252 66.7259 42.138C67.3534 42.7874 68.0984 43.1115 68.9601 43.1115C69.7856 43.1115 70.3688 42.8054 70.7097 42.194C70.8715 41.9115 70.952 41.6063 70.952 41.2764C70.952 40.6839 70.5569 40.209 69.7675 39.8517C69.4981 39.7294 68.9827 39.5464 68.2196 39.3019C67.0713 38.9066 66.2593 38.5255 65.7837 38.1587C64.9401 37.5008 64.5142 36.5785 64.5052 35.3936C64.5052 34.2552 64.9311 33.3101 65.7837 32.5574C66.6183 31.8238 67.6409 31.4569 68.8525 31.4569C70.0813 31.4664 71.1401 31.7726 72.0289 32.3735C72.4059 32.6276 72.5804 32.9944 72.5533 33.4741C72.5171 33.8504 72.3607 34.1509 72.0822 34.3774C71.7142 34.6694 71.3191 34.7158 70.8978 34.5187C70.7992 34.4618 70.7142 34.4059 70.6419 34.349C70.1572 33.9442 69.565 33.7376 68.8652 33.7281C68.0035 33.7281 67.4384 34.0343 67.1698 34.6457C67.0893 34.8429 67.0441 35.0599 67.0351 35.295C67.0351 35.8315 67.3714 36.2638 68.0442 36.5927C68.2593 36.7055 68.8154 36.9169 69.7133 37.2278C70.9782 37.661 71.8797 38.1265 72.4186 38.6251C73.1365 39.3123 73.4955 40.2005 73.4955 41.2915C73.4955 42.43 73.1094 43.4035 72.3381 44.2121C71.4764 45.106 70.3552 45.5572 68.9737 45.5667C67.4212 45.5572 66.0712 45.087 64.9229 44.1561C64.564 43.8547 64.4202 43.4699 64.4925 42.9997C64.545 42.6793 64.6878 42.4205 64.922 42.2224Z" fill="#A36514"/>
<path d="M76.1059 38.8508C76.3211 37.4592 76.9585 36.3113 78.0173 35.4079C79.0671 34.5235 80.2561 34.0913 81.5834 34.1102C83.0997 34.1387 84.3647 34.6979 85.3783 35.789C85.4949 35.9113 85.6025 36.0383 85.7011 36.17C85.9967 36.5464 86.0555 36.9606 85.8756 37.4118C85.7499 37.7132 85.5483 37.9246 85.2698 38.0469L85.2291 38.0754C84.8077 38.264 84.4126 38.1976 84.0446 37.8782C83.9723 37.8128 83.9099 37.7464 83.8565 37.681C83.2553 36.8999 82.4704 36.5103 81.5011 36.5103C80.6042 36.5009 79.8456 36.8487 79.2271 37.554C78.8139 38.0336 78.5544 38.5844 78.4468 39.2053C78.2669 40.2584 78.483 41.1807 79.0924 41.9703C79.738 42.7514 80.5454 43.1505 81.5147 43.1695C82.5012 43.1695 83.2914 42.7647 83.8837 41.9561C84.1703 41.5703 84.5338 41.4063 84.9741 41.4623C85.0817 41.4812 85.1848 41.5097 85.2833 41.5466L85.324 41.5751C85.7282 41.7542 85.957 42.0689 86.0103 42.5201C86.0555 42.8491 85.9832 43.1458 85.7951 43.4093C84.862 44.688 83.6061 45.399 82.0265 45.5402C81.8384 45.5592 81.654 45.5686 81.4749 45.5686C80.0129 45.5686 78.7606 45.0511 77.7199 44.0169C76.7153 43.0197 76.1538 41.7921 76.0372 40.3342C76.0028 39.8432 76.0245 39.3494 76.1059 38.8508Z" fill="#A36514"/>
<path d="M89.3078 35.2951C89.7382 35.2951 90.0619 35.4875 90.2771 35.8733C90.3847 36.0705 90.439 36.2733 90.439 36.48V44.3809C90.439 44.8321 90.2554 45.1714 89.8874 45.397C89.7075 45.5098 89.5149 45.5667 89.3087 45.5667C88.8874 45.5667 88.5637 45.3743 88.3394 44.9885C88.2409 44.7998 88.1912 44.5979 88.1912 44.3818V36.4809C88.1912 36.0297 88.3747 35.6904 88.7427 35.4648C88.9217 35.3605 89.1107 35.3046 89.3078 35.2951ZM88.2309 32.6286C88.2309 32.1869 88.41 31.8475 88.7689 31.6124C88.957 31.4996 89.155 31.4427 89.3612 31.4427C89.7825 31.4427 90.1062 31.6314 90.3305 32.0068C90.4381 32.2039 90.4923 32.4115 90.4923 32.6276C90.4923 33.0703 90.3124 33.4087 89.9543 33.6438C89.7662 33.7566 89.5682 33.8135 89.3621 33.8135C88.9398 33.8135 88.617 33.6258 88.3928 33.2495C88.2852 33.0514 88.2309 32.8447 88.2309 32.6286Z" fill="#A36514"/>
<path d="M92.6181 39.6687C92.6543 38.136 93.1742 36.8278 94.1796 35.7463C95.157 34.6931 96.3551 34.1187 97.7728 34.0248C97.97 34.0154 98.1671 34.0106 98.3651 34.0106C99.8904 34.077 101.142 34.6552 102.12 35.7463C103.08 36.8278 103.561 38.154 103.561 39.7247V39.8375C103.561 40.1948 103.408 40.4489 103.103 40.5996C102.986 40.6565 102.87 40.684 102.753 40.684H95.2972C95.1534 40.684 95.0684 40.7598 95.0413 40.9096C95.0323 40.9664 95.0368 41.0129 95.0549 41.0508C95.3777 42.067 96.0061 42.7485 96.9392 43.0964C97.3343 43.2376 97.7557 43.3078 98.2041 43.3078C99.2358 43.2983 100.057 42.9172 100.667 42.1646C100.937 41.8167 101.291 41.6897 101.73 41.7835C101.865 41.812 101.982 41.8594 102.08 41.9248C102.466 42.1504 102.655 42.4935 102.645 42.9552C102.636 43.2651 102.542 43.5334 102.362 43.759C101.313 44.9534 99.9266 45.5553 98.2041 45.5648C97.101 45.5648 96.1155 45.3013 95.2502 44.7742C94.384 44.2472 93.723 43.5343 93.2655 42.6367C92.8071 41.7409 92.5919 40.7503 92.6181 39.6687ZM95.4717 38.5398H100.72C100.873 38.5398 100.963 38.4649 100.99 38.3142C100.99 38.2668 100.985 38.2203 100.976 38.1729C100.581 37.0534 99.7828 36.4278 98.5812 36.296C98.4284 36.2771 98.2765 36.2676 98.1237 36.2676C97.0739 36.2676 96.2393 36.6771 95.62 37.4952C95.4672 37.7018 95.337 37.9236 95.2294 38.1587C95.1579 38.3094 95.1932 38.427 95.337 38.5113C95.3822 38.5312 95.4265 38.5398 95.4717 38.5398Z" fill="#A36514"/>
<path d="M107.436 34.3501H107.678C107.921 34.3501 108.082 34.4676 108.163 34.7027C108.181 34.7596 108.19 34.8155 108.19 34.8724V35.3662C108.19 35.4601 108.235 35.5027 108.325 35.4932C108.361 35.4838 108.387 35.4695 108.405 35.4506C109.186 34.5662 110.182 34.1197 111.393 34.1102C113.124 34.1102 114.34 34.7833 115.04 36.1274C115.434 36.8895 115.632 37.8156 115.632 38.9067V44.2681C115.632 44.7478 115.44 45.1146 115.054 45.3686C114.848 45.4909 114.632 45.5563 114.408 45.5658H114.367C113.91 45.5658 113.56 45.3592 113.318 44.9449C113.192 44.7288 113.13 44.5032 113.13 44.2681V39.175C113.13 37.7645 112.645 36.88 111.677 36.5227C111.389 36.4099 111.071 36.353 110.721 36.353C109.815 36.353 109.133 36.7388 108.676 37.5104C108.371 38.028 108.214 38.6583 108.205 39.4015V44.2691C108.205 44.7487 108.011 45.1155 107.626 45.3696C107.42 45.4919 107.204 45.5573 106.98 45.5668C106.523 45.5668 106.173 45.3601 105.93 44.9459C105.805 44.7297 105.742 44.5041 105.742 44.2691V36.1283C105.742 35.5075 105.985 35.0231 106.469 34.6752C106.763 34.4581 107.086 34.3501 107.436 34.3501Z" fill="#A36514"/>
<path d="M118.997 34.4912H119.495C119.621 34.4533 119.692 34.3784 119.71 34.2656V33.2921C119.719 32.9632 119.849 32.7044 120.101 32.5157L121.446 31.5564C121.643 31.4152 121.832 31.4294 122.011 31.5991C122.11 31.7024 122.164 31.8247 122.173 31.9659V34.2656C122.173 34.3879 122.227 34.458 122.335 34.477C122.353 34.477 122.371 34.4817 122.388 34.4912H123.223C123.644 34.4912 123.963 34.6798 124.179 35.0552C124.268 35.2344 124.318 35.4268 124.327 35.6334C124.327 36.0666 124.142 36.3956 123.775 36.6212C123.604 36.7245 123.421 36.7766 123.224 36.7766H122.389C122.263 36.8051 122.192 36.8799 122.174 37.0022V40.9247C122.174 41.847 122.282 42.4395 122.497 42.702C122.622 42.8622 122.797 42.975 123.021 43.0405C123.568 43.2007 123.954 43.5628 124.179 44.1268C124.268 44.3619 124.318 44.6064 124.327 44.8605V45.5657H123.977C122.389 45.5657 121.29 45.2576 120.679 44.6415C120.069 44.0253 119.746 42.9087 119.71 41.2906C119.71 41.1683 119.71 41.0508 119.71 40.938V37.0013C119.683 36.879 119.612 36.8041 119.495 36.7757H118.997C118.583 36.7757 118.27 36.588 118.055 36.2117C117.956 36.024 117.906 35.8306 117.906 35.6334C117.906 35.1917 118.085 34.8618 118.444 34.6457C118.624 34.5424 118.808 34.4912 118.997 34.4912Z" fill="#A36514"/>
<path d="M127.73 35.2951C128.161 35.2951 128.484 35.4875 128.699 35.8733C128.807 36.0705 128.861 36.2733 128.861 36.48V44.3809C128.861 44.8321 128.678 45.1714 128.31 45.397C128.13 45.5098 127.937 45.5667 127.731 45.5667C127.309 45.5667 126.986 45.3743 126.762 44.9885C126.663 44.7998 126.614 44.5979 126.614 44.3818V36.4809C126.614 36.0297 126.797 35.6904 127.165 35.4648C127.345 35.3605 127.533 35.3046 127.73 35.2951ZM126.654 32.6286C126.654 32.1869 126.833 31.8475 127.192 31.6124C127.38 31.4996 127.578 31.4427 127.784 31.4427C128.206 31.4427 128.529 31.6314 128.754 32.0068C128.861 32.2039 128.916 32.4115 128.916 32.6276C128.916 33.0703 128.736 33.4087 128.378 33.6438C128.19 33.7566 127.992 33.8135 127.785 33.8135C127.363 33.8135 127.04 33.6258 126.816 33.2495C126.708 33.0514 126.654 32.8447 126.654 32.6286Z" fill="#A36514"/>
<path d="M131.028 36.2686C131.028 35.8544 131.202 35.5492 131.552 35.351C131.705 35.2762 131.861 35.2382 132.023 35.2382H132.656V35.2098C132.656 33.5453 133.069 32.4116 133.894 31.8096C134.522 31.3584 135.45 31.1328 136.68 31.1328H136.868V32.6846C136.868 32.967 136.747 33.1595 136.504 33.2628C136.441 33.2817 136.379 33.296 136.316 33.3054C135.653 33.3528 135.235 33.569 135.065 33.9548C134.966 34.1898 134.912 34.5283 134.903 34.9709C134.903 35.1216 134.97 35.206 135.105 35.225C135.123 35.2344 135.136 35.2392 135.145 35.2392H135.872C136.268 35.2392 136.559 35.4183 136.748 35.7757C136.828 35.9359 136.869 36.0999 136.869 36.2696C136.869 36.6838 136.694 36.989 136.344 37.1862C136.201 37.2706 136.043 37.3132 135.873 37.3132H135.146C135.003 37.3417 134.922 37.426 134.904 37.5673V44.3818C134.904 44.8331 134.721 45.1724 134.353 45.398C134.164 45.5108 133.971 45.5677 133.774 45.5677C133.352 45.5677 133.029 45.3753 132.805 44.9895C132.706 44.8008 132.656 44.5989 132.656 44.3828V37.5682C132.629 37.427 132.549 37.3426 132.414 37.3142H132.023C131.628 37.3142 131.337 37.1303 131.148 36.7644C131.068 36.6118 131.028 36.4478 131.028 36.2686Z" fill="#A36514"/>
<path d="M140.354 35.2951C140.785 35.2951 141.109 35.4875 141.324 35.8733C141.431 36.0705 141.486 36.2733 141.486 36.48V44.3809C141.486 44.8321 141.302 45.1714 140.934 45.397C140.754 45.5098 140.562 45.5667 140.355 45.5667C139.933 45.5667 139.61 45.3743 139.386 44.9885C139.288 44.7998 139.238 44.5979 139.238 44.3818V36.4809C139.238 36.0297 139.421 35.6904 139.789 35.4648C139.968 35.3605 140.156 35.3046 140.354 35.2951ZM139.278 32.6286C139.278 32.1869 139.457 31.8475 139.816 31.6124C140.004 31.4996 140.202 31.4427 140.408 31.4427C140.829 31.4427 141.153 31.6314 141.377 32.0068C141.485 32.2039 141.539 32.4115 141.539 32.6276C141.539 33.0703 141.359 33.4087 141.001 33.6438C140.813 33.7566 140.615 33.8135 140.409 33.8135C139.986 33.8135 139.664 33.6258 139.439 33.2495C139.331 33.0514 139.278 32.8447 139.278 32.6286Z" fill="#A36514"/>
<path d="M152.211 35.3378C152.211 34.952 152.373 34.6657 152.696 34.477C152.848 34.4022 153 34.3595 153.153 34.35H153.665C154.042 34.35 154.32 34.5244 154.499 34.8723C154.571 35.023 154.607 35.1785 154.607 35.3378V47.6692C154.607 48.1394 154.414 48.5015 154.028 48.7555C153.831 48.8683 153.62 48.9299 153.395 48.9394C152.947 48.9394 152.606 48.7366 152.373 48.3327C152.256 48.1261 152.198 47.9043 152.198 47.6692V44.3676C152.198 44.2643 152.149 44.2074 152.05 44.1979C151.996 44.2074 151.956 44.2264 151.929 44.2548C151.166 45.0634 150.197 45.4918 149.022 45.5392C148.95 45.5487 148.883 45.5534 148.82 45.5534C147.501 45.5534 146.362 45.1022 145.402 44.1989C144.271 43.0604 143.693 41.6025 143.666 39.8252C143.666 38.0943 144.217 36.6838 145.321 35.5927C146.236 34.6894 147.308 34.205 148.537 34.1396C148.618 34.1301 148.699 34.1254 148.78 34.1254C150.09 34.1348 151.144 34.5766 151.942 35.4515C152.023 35.5359 152.099 35.5359 152.171 35.4515C152.197 35.4126 152.211 35.3747 152.211 35.3378ZM146.047 39.8659C146.047 40.9096 146.402 41.7618 147.11 42.4196C147.721 42.9836 148.438 43.2566 149.263 43.2377C150.178 43.2187 150.941 42.8282 151.551 42.067C152.045 41.4272 152.296 40.703 152.305 39.8944C152.305 38.8412 151.96 37.9758 151.269 37.298C150.686 36.7435 149.995 36.461 149.196 36.4516C148.227 36.4516 147.433 36.8326 146.814 37.5947C146.302 38.2441 146.047 39.0014 146.047 39.8659Z" fill="#A36514"/>
<path d="M164.525 45.3269C164.328 45.3269 164.202 45.2331 164.148 45.0444C164.13 44.9971 164.121 44.9506 164.121 44.9032V44.4662C164.121 44.3724 164.076 44.325 163.986 44.325C163.941 44.3155 163.901 44.3297 163.865 44.3676C163.147 45.1582 162.209 45.5573 161.052 45.5668C159.455 45.5668 158.301 44.9411 157.593 43.6899C157.154 42.8993 156.934 41.9258 156.934 40.7693V35.4079C156.934 34.9283 157.131 34.5614 157.527 34.3074C157.724 34.1851 157.939 34.1197 158.172 34.1102H158.199C158.666 34.1102 159.02 34.3169 159.263 34.7311C159.379 34.9472 159.437 35.1738 159.437 35.4079V40.5011C159.437 42.0528 159.971 42.9657 161.038 43.2387C161.254 43.2946 161.482 43.323 161.725 43.323C162.631 43.323 163.294 42.9135 163.717 42.0955C163.977 41.5969 164.107 40.9902 164.107 40.2755V35.4079C164.107 34.9283 164.3 34.5614 164.686 34.3074C164.892 34.1851 165.107 34.1197 165.331 34.1102C165.798 34.1102 166.152 34.3169 166.395 34.7311C166.511 34.9472 166.569 35.1738 166.569 35.4079V43.1818C166.569 43.887 166.304 44.4558 165.775 44.889C165.399 45.1809 164.982 45.3269 164.525 45.3269Z" fill="#A36514"/>
<path d="M168.858 39.6687C168.894 38.136 169.414 36.8278 170.419 35.7463C171.397 34.6931 172.595 34.1187 174.013 34.0248C174.21 34.0154 174.407 34.0106 174.605 34.0106C176.13 34.077 177.382 34.6552 178.36 35.7463C179.32 36.8278 179.8 38.154 179.8 39.7247V39.8375C179.8 40.1948 179.647 40.4489 179.343 40.5996C179.226 40.6565 179.109 40.684 178.993 40.684H171.537C171.393 40.684 171.308 40.7598 171.281 40.9096C171.272 40.9664 171.277 41.0129 171.295 41.0508C171.617 42.067 172.246 42.7485 173.179 43.0964C173.574 43.2376 173.995 43.3078 174.444 43.3078C175.476 43.2983 176.297 42.9172 176.907 42.1646C177.176 41.8167 177.531 41.6897 177.97 41.7835C178.105 41.812 178.222 41.8594 178.32 41.9248C178.706 42.1504 178.894 42.4935 178.885 42.9552C178.876 43.2651 178.782 43.5334 178.602 43.759C177.552 44.9534 176.166 45.5553 174.444 45.5648C173.341 45.5648 172.355 45.3013 171.49 44.7742C170.624 44.2472 169.963 43.5343 169.505 42.6367C169.047 41.7409 168.832 40.7503 168.858 39.6687ZM171.711 38.5398H176.96C177.113 38.5398 177.203 38.4649 177.23 38.3142C177.23 38.2668 177.225 38.2203 177.216 38.1729C176.821 37.0534 176.023 36.4278 174.821 36.296C174.668 36.2771 174.516 36.2676 174.363 36.2676C173.314 36.2676 172.479 36.6771 171.86 37.4952C171.707 37.7018 171.577 37.9236 171.469 38.1587C171.398 38.3094 171.433 38.427 171.577 38.5113C171.622 38.5312 171.666 38.5398 171.711 38.5398Z" fill="#A36514"/>
<path d="M64.4646 61.0717C64.4646 59.2849 65.0297 57.8498 66.1599 56.7682C67.1645 55.8468 68.3264 55.3766 69.6456 55.3577C70.8834 55.3672 71.9069 55.7719 72.7144 56.571C72.7948 56.6554 72.8708 56.6506 72.9431 56.5568C72.9702 56.5189 72.9838 56.4867 72.9838 56.4582V53.9472C72.9838 53.477 73.1764 53.1196 73.5625 52.8751C73.7596 52.7528 73.9703 52.6921 74.1954 52.6921H74.209C74.6574 52.6921 75.0028 52.8893 75.2452 53.2846C75.3528 53.5007 75.4106 53.7216 75.4197 53.9481V65.2776C75.4197 65.7478 75.2271 66.1099 74.841 66.3639C74.6439 66.4862 74.4323 66.5469 74.2081 66.5469C73.7596 66.5469 73.4187 66.344 73.1854 65.9402C73.0688 65.7336 73.01 65.5118 73.01 65.2767C73.01 65.2293 72.9874 65.2103 72.9431 65.2198C72.925 65.2293 72.9115 65.2388 72.9024 65.2482C72.2026 66.1137 71.274 66.6123 70.1166 66.7441C69.9458 66.763 69.7758 66.7725 69.6049 66.7725C68.3752 66.7725 67.2811 66.344 66.3209 65.4881C65.1907 64.4814 64.5758 63.1505 64.4773 61.4954C64.4682 61.3533 64.4646 61.212 64.4646 61.0717ZM73.1312 61.1419C73.1583 60.0982 72.8301 59.2328 72.1483 58.5455C71.5471 57.9626 70.8291 57.6706 69.9946 57.6706C69.0253 57.6706 68.2314 58.0517 67.6121 58.8138C67.1003 59.4442 66.8453 60.1873 66.8453 61.0433C66.8453 62.0869 67.1952 62.9429 67.8951 63.6112C68.4963 64.1657 69.2052 64.4435 70.0217 64.4435C70.9367 64.4435 71.7044 64.0671 72.3229 63.3145C72.8355 62.6851 73.1041 61.9599 73.1312 61.1419Z" fill="#A36514"/>
<path d="M77.7208 60.8737C77.757 59.3409 78.2769 58.0328 79.2823 56.9512C80.2597 55.8981 81.4578 55.3236 82.8755 55.2298C83.0726 55.2203 83.2707 55.2156 83.4678 55.2156C84.9931 55.2819 86.2445 55.8602 87.2228 56.9512C88.1831 58.0328 88.6632 59.3589 88.6632 60.9296V61.0424C88.6632 61.3998 88.5104 61.6538 88.2057 61.8045C88.089 61.8614 87.9724 61.8889 87.8558 61.8889H80.399C80.2552 61.8889 80.1702 61.9647 80.1431 62.1145C80.134 62.1714 80.1386 62.2178 80.1567 62.2558C80.4794 63.2719 81.1078 63.9535 82.041 64.3014C82.4361 64.4426 82.8574 64.5127 83.3059 64.5127C84.3376 64.5033 85.1586 64.1222 85.7689 63.3696C86.0384 63.0217 86.3928 62.8946 86.8322 62.9885C86.9669 63.0169 87.0836 63.0643 87.1821 63.1297C87.5682 63.3553 87.7563 63.6985 87.7473 64.1601C87.7382 64.4701 87.6442 64.7384 87.4643 64.964C86.4145 66.1583 85.0284 66.7603 83.3059 66.7697C82.2019 66.7697 81.2173 66.5062 80.352 65.9792C79.4857 65.4521 78.8248 64.7393 78.3673 63.8416C77.9088 62.9458 77.6937 61.9553 77.7208 60.8737ZM80.5735 59.7447H85.8223C85.9751 59.7447 86.0646 59.6698 86.0917 59.5191C86.0917 59.4727 86.0872 59.4253 86.0781 59.3779C85.683 58.2584 84.8846 57.6337 83.683 57.501C83.5302 57.482 83.3783 57.4726 83.2254 57.4726C82.1757 57.4726 81.3411 57.8821 80.7227 58.7001C80.5699 58.9068 80.4397 59.1286 80.3321 59.3637C80.2597 59.5144 80.2959 59.6319 80.4397 59.7163C80.484 59.7362 80.5283 59.7447 80.5735 59.7447Z" fill="#A36514"/>
<path d="M96.2114 52.676C96.6418 52.676 96.9655 52.8685 97.1807 53.2543C97.2883 53.4514 97.3425 53.6543 97.3425 53.8609V65.5857C97.3425 66.0369 97.159 66.3763 96.791 66.6019C96.611 66.7147 96.4185 66.7715 96.2123 66.7715C95.791 66.7715 95.4673 66.5791 95.243 66.1933C95.1445 66.0047 95.0947 65.8028 95.0947 65.5867V53.8619C95.0947 53.4107 95.2783 53.0713 95.6463 52.8457C95.8262 52.7424 96.0143 52.6855 96.2114 52.676Z" fill="#A36514"/>
<path d="M99.7784 56.2317C99.7332 54.953 99.698 53.9368 99.6708 53.1842C99.6618 52.8268 99.7965 52.6524 100.075 52.6619L100.963 52.6761C101.133 52.695 101.286 52.7889 101.42 52.9586C101.546 53.1377 101.599 53.3302 101.582 53.5368L101.569 53.551V53.5652V53.5794V53.5937V53.6079V53.6221V53.6363V53.6505V53.6648L101.555 53.679V53.6932V53.7065V53.7207V53.7349V53.7491V53.7633V53.7776V53.7918L101.542 53.806V53.8202V53.8344V53.8487V53.8629V53.8771V53.8913V53.9055V53.9198V53.934L101.528 53.9482V53.9624V53.9766V53.9908V54.0051V54.0193V54.0335V54.0477V54.0619L101.514 54.0762V54.0904V54.1046V54.1188V54.133V54.1473V54.1615V54.1757V54.1899L101.501 54.2041V54.2183V54.2326V54.2468V54.261V54.2752V54.2894V54.3037V54.3179L101.487 54.3321V54.3463V54.3605V54.3748V54.389V54.4032V54.4174V54.4316V54.4458L101.474 54.4601V54.4743V54.4885V54.5027V54.5169V54.5312V54.5454V54.5596V54.5738V54.588L101.46 54.6023V54.6165V54.6307V54.6449V54.6591V54.6733V54.6876V54.7018V54.716L101.447 54.7302V54.7444C101.348 55.6753 101.285 56.2876 101.259 56.5787C101.231 56.8232 101.119 56.9597 100.922 56.9882C100.895 56.9976 100.872 57.0024 100.855 57.0024L100.411 56.9882C100.25 56.9787 100.107 56.9038 99.981 56.7626C99.8634 56.5938 99.7956 56.4204 99.7784 56.2317Z" fill="#A36514"/>
<path d="M104.193 52.6619H110.384C110.832 52.6619 111.173 52.859 111.406 53.2543C111.523 53.461 111.582 53.6828 111.582 53.9179C111.582 54.388 111.394 54.7454 111.017 54.9899C110.819 55.1122 110.608 55.1729 110.384 55.1729H106.642C106.4 55.1729 106.233 55.2904 106.144 55.5255C106.117 55.6014 106.103 55.6715 106.103 55.7369V57.8678C106.103 58.1219 106.22 58.2963 106.453 58.3901C106.516 58.4091 106.579 58.4186 106.641 58.4186H110.383C110.831 58.4186 111.172 58.6157 111.405 59.011C111.522 59.2177 111.581 59.4395 111.581 59.6736C111.581 60.1438 111.393 60.5011 111.016 60.7457C110.819 60.868 110.607 60.9296 110.383 60.9296H106.641C106.399 60.9296 106.233 61.0519 106.143 61.2964C106.116 61.3628 106.102 61.4282 106.102 61.4936V63.6947C106.102 63.9487 106.219 64.1222 106.452 64.217C106.515 64.2454 106.578 64.2596 106.64 64.2596H110.382C110.83 64.2596 111.171 64.4568 111.404 64.8521C111.521 65.0587 111.58 65.2796 111.58 65.5156C111.58 65.9763 111.392 66.3337 111.015 66.5877C110.818 66.7005 110.606 66.7621 110.382 66.7716H104.191C103.93 66.7716 103.747 66.6446 103.639 66.3905C103.612 66.3062 103.599 66.2256 103.599 66.1507V53.2828C103.599 53.0098 103.72 52.8173 103.962 52.7045C104.035 52.6761 104.111 52.6619 104.193 52.6619Z" fill="#A36514"/>
<path d="M114.272 63.4274L114.501 63.2302C114.869 62.9297 115.263 62.8776 115.686 63.0747C115.838 63.1411 115.969 63.2302 116.076 63.343C116.704 63.9923 117.449 64.3165 118.311 64.3165C119.136 64.3165 119.719 64.0103 120.06 63.3989C120.222 63.1164 120.302 62.8112 120.302 62.4813C120.302 61.8889 119.907 61.414 119.118 61.0566C118.849 60.9343 118.333 60.7514 117.57 60.5068C116.422 60.1115 115.61 59.7305 115.134 59.3636C114.291 58.7058 113.865 57.7835 113.856 56.5986C113.856 55.4601 114.281 54.515 115.134 53.7624C115.969 53.0287 116.991 52.6619 118.203 52.6619C119.432 52.6713 120.49 52.9775 121.379 53.5794C121.756 53.8335 121.931 54.2003 121.905 54.68C121.868 55.0563 121.711 55.3568 121.434 55.5833C121.066 55.8753 120.67 55.9218 120.249 55.7246C120.151 55.6687 120.065 55.6118 119.993 55.5549C119.509 55.1501 118.916 54.9435 118.216 54.934C117.355 54.934 116.79 55.2402 116.521 55.8507C116.441 56.0478 116.395 56.2649 116.386 56.5C116.386 57.0365 116.723 57.4688 117.395 57.7977C117.611 57.9105 118.167 58.1219 119.065 58.4328C120.33 58.866 121.231 59.3314 121.77 59.83C122.488 60.5163 122.847 61.4054 122.847 62.4965C122.847 63.6349 122.461 64.6085 121.689 65.417C120.828 66.3109 119.707 66.7621 118.325 66.7716C116.772 66.7621 115.423 66.292 114.274 65.3611C113.915 65.0597 113.772 64.6748 113.844 64.2046C113.895 63.8843 114.039 63.6255 114.272 63.4274Z" fill="#A36514"/>
<path d="M126.613 52.6619C127.08 52.6619 127.434 52.8685 127.677 53.2828C127.802 53.4989 127.865 53.7292 127.865 53.9738V65.4587C127.865 65.9384 127.672 66.31 127.286 66.5735C127.071 66.6958 126.847 66.7612 126.613 66.7707C126.156 66.7707 125.802 66.564 125.55 66.1498C125.424 65.9336 125.362 65.7033 125.362 65.4587V53.9747C125.362 53.4951 125.559 53.1235 125.954 52.86C126.16 52.7282 126.38 52.6619 126.613 52.6619Z" fill="#A36514"/>
</svg>
